<svg width="114" height="104" viewBox="0 0 114 104" fill="none" xmlns="http://www.w3.org/2000/svg">
<g clip-path="url(#clip0_165_589)">
<path d="M25.5314 80.2903C22.7721 83.8333 18.9974 85.6103 14.1851 85.6103C10.1234 85.6103 6.80115 84.3299 4.20739 81.7583C1.61363 79.1866 0.322266 75.9416 0.322266 72.0234C0.322266 69.5952 0.918279 67.3546 2.12134 65.3017C3.32441 63.2487 4.99104 61.6373 7.1102 60.4673C9.22936 59.2974 11.5251 58.7124 13.9864 58.7124C16.4477 58.7124 18.6552 59.187 20.6088 60.1252C22.5624 61.0744 24.1849 62.454 25.4983 64.2752L23.1915 66.0632C20.7633 63.1273 17.7612 61.6483 14.1961 61.6483C11.2823 61.6483 8.76579 62.6748 6.64663 64.7277C4.53851 66.7807 3.47893 69.2972 3.47893 72.2772C3.47893 75.2573 4.51644 77.7407 6.58041 79.7384C8.64438 81.7362 11.3264 82.7295 14.6156 82.7295C17.9047 82.7295 20.7633 81.3168 23.1915 78.4912L25.5425 80.2793L25.5314 80.2903Z" fill="white"/>
<path d="M31.5134 58.7234C32.1425 58.7234 32.6723 58.9441 33.1028 59.3746C33.5332 59.805 33.754 60.3348 33.754 60.9529C33.754 61.571 33.5332 62.1008 33.1028 62.5313C32.6723 62.9617 32.1425 63.1825 31.5245 63.1825C30.9064 63.1825 30.3766 62.9617 29.9461 62.5202C29.5157 62.0787 29.2949 61.56 29.2949 60.964C29.2949 60.3679 29.5046 59.8492 29.9461 59.4077C30.3766 58.9662 30.8953 58.7455 31.5024 58.7455L31.5134 58.7234ZM32.9814 84.9811H30.0786V65.8976H32.9814V84.9811Z" fill="white"/>
<path d="M65.023 72.4537C64.9568 76.6037 63.7427 79.8377 61.4028 82.1555C59.0519 84.4623 55.9725 85.6212 52.1425 85.6212C47.7497 85.6212 44.2509 84.2747 41.635 81.5816C39.0192 78.8885 37.7168 75.7318 37.7168 72.1116C37.7168 68.4913 39.0192 65.3567 41.635 62.7078C44.2509 60.0588 47.6172 58.7344 51.7562 58.7344C53.9968 58.7344 56.0828 59.1538 58.0033 59.9816C59.9238 60.8094 61.8112 62.0787 63.6544 63.7784L61.3476 65.9859C59.9238 64.6062 58.3786 63.5577 56.723 62.8182C55.0674 62.0787 53.3566 61.7144 51.6127 61.7144C49.8689 61.7144 48.125 62.178 46.3921 63.1162C44.6593 64.0543 43.3127 65.3126 42.3304 66.902C41.3481 68.4913 40.8624 70.2021 40.8624 72.0454C40.8624 74.915 41.9441 77.4205 44.0963 79.5507C46.2597 81.6919 48.9528 82.7515 52.1977 82.7515C54.6038 82.7515 56.6789 82.0893 58.4338 80.7758C60.1887 79.4624 61.2593 77.6523 61.6567 75.3676H53.6767V72.4648H65.023V72.4537Z" fill="white"/>
<path d="M78.7864 65.4121C81.5457 65.4121 83.8856 66.4055 85.8061 68.3922C87.7266 70.3789 88.6979 72.7519 88.6979 75.5333C88.6979 78.3147 87.7487 80.6877 85.8392 82.6634C83.9408 84.6391 81.5899 85.6214 78.7864 85.6214C75.9829 85.6214 73.632 84.6391 71.7115 82.6634C69.802 80.6877 68.8418 78.3147 68.8418 75.5333C68.8418 72.7519 69.802 70.3789 71.7336 68.3922C73.654 66.4055 76.016 65.4121 78.7864 65.4121ZM78.7864 82.851C80.729 82.851 82.3735 82.1446 83.7421 80.7319C85.1108 79.3191 85.7951 77.6194 85.7951 75.6216C85.7951 73.6239 85.0997 71.902 83.709 70.4451C82.3183 68.9882 80.6738 68.2597 78.7754 68.2597C76.8769 68.2597 75.2324 68.9882 73.8527 70.4451C72.4731 71.902 71.7888 73.6349 71.7888 75.6437C71.7888 77.6525 72.451 79.3522 73.7865 80.7539C75.122 82.1557 76.7886 82.851 78.7974 82.851H78.7864Z" fill="white"/>
<path d="M96.5345 68.7011C98.5212 66.5047 100.894 65.412 103.676 65.412C106.457 65.412 108.797 66.3943 110.695 68.37C112.594 70.3457 113.554 72.7187 113.554 75.5001C113.554 78.2815 112.583 80.6545 110.651 82.6412C108.709 84.6279 106.369 85.6213 103.632 85.6213C100.894 85.6213 98.5212 84.4292 96.5456 82.0452V84.9811H93.709V58.7234H96.5456V68.7011H96.5345ZM103.499 82.8068C105.486 82.8068 107.174 82.0673 108.554 80.5993C109.945 79.1313 110.64 77.4095 110.64 75.4339C110.64 73.4582 109.967 71.7364 108.609 70.2684C107.252 68.8004 105.563 68.0609 103.532 68.0609C101.501 68.0609 99.8016 68.7453 98.4329 70.1249C97.0643 71.5046 96.38 73.2374 96.38 75.3235C96.38 77.4095 97.0643 79.1755 98.444 80.6324C99.8236 82.0783 101.501 82.8068 103.488 82.8068H103.499Z" fill="white"/>
<path d="M65.3433 7.62075C66.3918 7.38897 67.4735 7.26756 68.5883 7.26756C76.9766 7.26756 83.7977 14.0886 83.7977 22.4769C83.7977 30.8653 76.9766 37.6863 68.5883 37.6863C60.1999 37.6863 53.3789 30.8653 53.3789 22.4769C53.3789 19.3975 54.306 16.5278 55.8844 14.1328C54.3722 12.3337 52.3745 10.9651 50.1229 10.1924C47.7719 13.7133 46.4033 17.9406 46.4033 22.4769C46.4033 34.7173 56.359 44.6729 68.5993 44.6729C80.8397 44.6729 90.7953 34.7173 90.7953 22.4769C90.7953 10.2366 80.8286 0.291992 68.5883 0.291992C65.3875 0.291992 62.3301 0.976304 59.5818 2.20144C61.7893 3.68044 63.7319 5.52367 65.3433 7.62075Z" fill="white"/>
<path d="M49.1958 37.3552C48.1473 37.587 47.0656 37.7084 45.9509 37.7084C37.5625 37.7084 30.7415 30.8874 30.7415 22.499C30.7415 14.1107 37.5625 7.28964 45.9509 7.28964C54.3392 7.28964 61.1603 14.1107 61.1603 22.499C61.1603 25.5784 60.2331 28.4481 58.6548 30.8432C60.1669 32.6423 62.1646 34.0109 64.4163 34.7835C66.7672 31.2626 68.1358 27.0354 68.1358 22.499C68.1469 10.2476 58.1912 0.291992 45.9509 0.291992C33.7105 0.291992 23.7549 10.2476 23.7549 22.488C23.7549 34.7283 33.7105 44.684 45.9509 44.684C49.1517 44.684 52.209 43.9997 54.9573 42.7745C52.7498 41.2955 50.8073 39.4523 49.1958 37.3552Z" fill="white"/>
<path d="M7.5963 101.658C6.60294 101.658 5.84137 101.371 5.31158 100.787C4.77075 100.202 4.50586 99.3848 4.50586 98.3252C4.50586 97.2656 4.78179 96.4489 5.32262 95.8639C5.86345 95.2789 6.64709 94.9919 7.64045 94.9919C8.21439 94.9919 8.87663 95.0802 9.6382 95.2679V96.1177C8.76625 95.8197 8.09298 95.6652 7.62941 95.6652C6.93406 95.6652 6.40427 95.897 6.02901 96.3606C5.65374 96.8241 5.4661 97.4864 5.4661 98.3362C5.4661 99.1861 5.66477 99.7821 6.07315 100.257C6.48153 100.72 7.02236 100.963 7.72875 100.963C8.32476 100.963 8.97596 100.775 9.66027 100.411V101.184C9.03115 101.504 8.34684 101.669 7.60734 101.669L7.5963 101.658Z" fill="#292929"/>
<path d="M11.2051 95.9854V95.1355H12.0549V95.9854H11.2051ZM11.2051 101.493V96.8352H12.0549V101.493H11.2051Z" fill="#292929"/>
<path d="M17.3747 101.349C16.8118 101.526 16.3261 101.603 15.9177 101.603C15.2334 101.603 14.6705 101.372 14.2401 100.919C13.8096 100.466 13.5889 99.8705 13.5889 99.142C13.5889 98.4136 13.7765 97.8507 14.1628 97.3981C14.5491 96.9456 15.0348 96.7249 15.6308 96.7249C16.1937 96.7249 16.6352 96.9235 16.9332 97.3209C17.2312 97.7182 17.3967 98.2921 17.3967 99.0316V99.2965H14.4498C14.5712 100.4 15.112 100.963 16.0723 100.963C16.4255 100.963 16.8559 100.864 17.3747 100.676V101.349ZM14.4939 98.6674H16.5469C16.5469 97.7955 16.2268 97.365 15.5756 97.365C14.9244 97.365 14.5601 97.7955 14.4939 98.6674Z" fill="#292929"/>
<path d="M19.0859 101.493V96.8352H19.9358V97.7072C20.3773 97.056 20.9292 96.7249 21.5804 96.7249C21.9887 96.7249 22.3088 96.8573 22.5516 97.1112C22.7945 97.365 22.9159 97.7072 22.9159 98.1487V101.493H22.066V98.4136C22.066 98.0714 22.0108 97.8175 21.9115 97.6741C21.8121 97.5306 21.6466 97.4533 21.4038 97.4533C20.885 97.4533 20.3994 97.7955 19.9358 98.4687V101.482H19.0859V101.493Z" fill="#292929"/>
<path d="M26.5799 101.603C25.9508 101.603 25.432 101.372 25.0126 100.908C24.5932 100.444 24.3945 99.8484 24.3945 99.142C24.3945 98.3804 24.6042 97.7955 25.0126 97.365C25.421 96.9346 25.9949 96.7249 26.7344 96.7249C27.0987 96.7249 27.507 96.78 27.9485 96.8794V97.5858C27.4739 97.4423 27.0766 97.376 26.7786 97.376C26.3481 97.376 25.9949 97.5416 25.7411 97.8617C25.4762 98.1818 25.3437 98.6233 25.3437 99.1641C25.3437 99.7049 25.4762 100.113 25.7521 100.433C26.0281 100.753 26.3702 100.919 26.8117 100.919C27.198 100.919 27.5953 100.82 28.0037 100.621V101.349C27.4519 101.515 26.9883 101.603 26.591 101.603H26.5799Z" fill="#292929"/>
<path d="M29.4824 95.9854V95.1355H30.3323V95.9854H29.4824ZM29.4824 101.493V96.8352H30.3323V101.493H29.4824Z" fill="#292929"/>
<path d="M34.6485 100.908C34.1408 101.372 33.6551 101.603 33.1805 101.603C32.7942 101.603 32.4741 101.482 32.2203 101.239C31.9664 100.996 31.834 100.687 31.834 100.323C31.834 99.8153 32.0437 99.4179 32.4741 99.1531C32.9046 98.8771 33.5117 98.7447 34.3174 98.7447H34.516V98.1818C34.516 97.6409 34.2401 97.365 33.6882 97.365C33.2468 97.365 32.7611 97.4975 32.2424 97.7734V97.078C32.8163 96.8463 33.3461 96.7249 33.8428 96.7249C34.3395 96.7249 34.7478 96.8463 34.9906 97.078C35.2335 97.3098 35.3659 97.6741 35.3659 98.1707V100.279C35.3659 100.764 35.5094 101.007 35.8074 101.007C35.8405 101.007 35.8957 101.007 35.973 100.985L36.0282 101.449C35.8405 101.537 35.6198 101.581 35.388 101.581C34.9907 101.581 34.7368 101.349 34.6375 100.886L34.6485 100.908ZM34.5271 100.444V99.2414H34.2401C33.7765 99.2414 33.4013 99.3186 33.1143 99.4952C32.8273 99.6718 32.6839 99.9036 32.6839 100.191C32.6839 100.389 32.7501 100.566 32.8936 100.709C33.0371 100.853 33.2136 100.919 33.4123 100.919C33.7655 100.919 34.1297 100.764 34.516 100.455L34.5271 100.444Z" fill="#292929"/>
<path d="M38.5553 101.603C38.169 101.603 37.6944 101.515 37.1426 101.327V100.555C37.6944 100.831 38.1801 100.963 38.5885 100.963C38.8313 100.963 39.03 100.897 39.1955 100.765C39.3611 100.632 39.4383 100.467 39.4383 100.268C39.4383 99.9809 39.2176 99.7381 38.7651 99.5505L38.2684 99.3407C37.5399 99.0427 37.1757 98.6012 37.1757 98.0273C37.1757 97.6189 37.3192 97.2988 37.6061 97.0671C37.8931 96.8353 38.2905 96.7139 38.7871 96.7139C39.052 96.7139 39.3721 96.747 39.7584 96.8242L39.935 96.8573V97.5637C39.4604 97.4203 39.0851 97.354 38.8092 97.354C38.2684 97.354 37.9924 97.5527 37.9924 97.95C37.9924 98.2039 38.2022 98.4246 38.6105 98.5902L39.0189 98.7668C39.4825 98.9655 39.8026 99.1641 40.0012 99.3849C40.1889 99.6056 40.2882 99.8705 40.2882 100.191C40.2882 100.599 40.1226 100.941 39.8026 101.195C39.4825 101.46 39.0631 101.592 38.5664 101.592L38.5553 101.603Z" fill="#292929"/>
<path d="M45.0237 103.193V96.8352H45.8736V97.7072C46.2158 97.056 46.7345 96.7249 47.4299 96.7249C47.9928 96.7249 48.4343 96.9346 48.7543 97.3429C49.0744 97.7513 49.24 98.3142 49.24 99.0206C49.24 99.7932 49.0523 100.422 48.6881 100.886C48.3239 101.349 47.8382 101.592 47.2422 101.592C46.6904 101.592 46.2268 101.383 45.8626 100.952V103.182H45.0127L45.0237 103.193ZM45.8736 100.389C46.3041 100.776 46.7235 100.974 47.1208 100.974C47.9376 100.974 48.3349 100.356 48.3349 99.1199C48.3349 98.0273 47.9707 97.4754 47.2533 97.4754C46.7787 97.4754 46.3151 97.7292 45.8736 98.248V100.4V100.389Z" fill="#292929"/>
<path d="M53.1797 100.908C52.672 101.372 52.1864 101.603 51.7118 101.603C51.3255 101.603 51.0054 101.482 50.7515 101.239C50.4977 100.996 50.3652 100.687 50.3652 100.323C50.3652 99.8153 50.5749 99.4179 51.0054 99.1531C51.4358 98.8771 52.0429 98.7447 52.8486 98.7447H53.0473V98.1818C53.0473 97.6409 52.7714 97.365 52.2195 97.365C51.778 97.365 51.2924 97.4975 50.7736 97.7734V97.078C51.3476 96.8463 51.8773 96.7249 52.374 96.7249C52.8707 96.7249 53.2791 96.8463 53.5219 97.078C53.7647 97.3098 53.8972 97.6741 53.8972 98.1707V100.279C53.8972 100.764 54.0406 101.007 54.3387 101.007C54.3718 101.007 54.427 101.007 54.5042 100.985L54.5594 101.449C54.3718 101.537 54.151 101.581 53.9192 101.581C53.5219 101.581 53.268 101.349 53.1687 100.886L53.1797 100.908ZM53.0583 100.444V99.2414H52.7714C52.3078 99.2414 51.9325 99.3186 51.6456 99.4952C51.3586 99.6718 51.2151 99.9036 51.2151 100.191C51.2151 100.389 51.2813 100.566 51.4248 100.709C51.5683 100.853 51.7449 100.919 51.9436 100.919C52.2968 100.919 52.661 100.764 53.0473 100.455L53.0583 100.444Z" fill="#292929"/>
<path d="M55.8506 101.493V96.8352H56.7005V97.7072C57.0316 97.056 57.5172 96.7249 58.1574 96.7249C58.2457 96.7249 58.334 96.7248 58.4333 96.7469V97.5416C58.2898 97.4975 58.1574 97.4644 58.047 97.4644C57.5062 97.4644 57.0647 97.7844 56.7005 98.4136V101.493H55.8506Z" fill="#292929"/>
<path d="M62.0762 100.908C61.5685 101.372 61.0829 101.603 60.6083 101.603C60.222 101.603 59.9019 101.482 59.648 101.239C59.3942 100.996 59.2617 100.687 59.2617 100.323C59.2617 99.8153 59.4714 99.4179 59.9019 99.1531C60.3323 98.8771 60.9394 98.7447 61.7451 98.7447H61.9438V98.1818C61.9438 97.6409 61.6678 97.365 61.116 97.365C60.6745 97.365 60.1888 97.4975 59.6701 97.7734V97.078C60.244 96.8463 60.7738 96.7249 61.2705 96.7249C61.7672 96.7249 62.1756 96.8463 62.4184 97.078C62.6612 97.3098 62.7936 97.6741 62.7936 98.1707V100.279C62.7936 100.764 62.9371 101.007 63.2351 101.007C63.2683 101.007 63.3234 101.007 63.4007 100.985L63.4559 101.449C63.2683 101.537 63.0475 101.581 62.8157 101.581C62.4184 101.581 62.1645 101.349 62.0652 100.886L62.0762 100.908ZM61.9548 100.444V99.2414H61.6678C61.2043 99.2414 60.829 99.3186 60.542 99.4952C60.2551 99.6718 60.1116 99.9036 60.1116 100.191C60.1116 100.389 60.1778 100.566 60.3213 100.709C60.4648 100.853 60.6414 100.919 60.8401 100.919C61.1932 100.919 61.5575 100.764 61.9438 100.455L61.9548 100.444Z" fill="#292929"/>
<path d="M67.7711 103.049L67.8704 102.31C68.356 102.541 68.8417 102.663 69.3163 102.663C70.2655 102.663 70.7511 102.155 70.7511 101.151V100.411C70.4421 101.062 69.9233 101.394 69.217 101.394C68.6541 101.394 68.2126 101.195 67.8814 100.787C67.5503 100.378 67.3848 99.8373 67.3848 99.142C67.3848 98.4466 67.5724 97.8506 67.9477 97.4091C68.3229 96.9676 68.8086 96.7358 69.4046 96.7358C69.9233 96.7358 70.3759 96.9456 70.7511 97.376V96.8462H71.601V100.235C71.601 100.963 71.5679 101.504 71.4906 101.857C71.4134 102.21 71.2699 102.497 71.0602 102.718C70.696 103.115 70.122 103.303 69.3384 103.303C68.7975 103.303 68.2788 103.215 67.7711 103.049ZM70.7511 99.8815V97.9499C70.3759 97.5636 69.9785 97.365 69.537 97.365C69.1507 97.365 68.8417 97.5195 68.6209 97.8285C68.4002 98.1376 68.2898 98.568 68.2898 99.1089C68.2898 100.135 68.6541 100.643 69.3715 100.643C69.8571 100.643 70.3207 100.389 70.7511 99.8704V99.8815Z" fill="#292929"/>
<path d="M75.2765 101.603C74.6143 101.603 74.0734 101.383 73.6761 100.941C73.2788 100.5 73.0801 99.9035 73.0801 99.164C73.0801 98.4246 73.2788 97.8175 73.6761 97.387C74.0734 96.9456 74.6143 96.7358 75.2986 96.7358C75.9829 96.7358 76.5237 96.9566 76.9211 97.387C77.3184 97.8285 77.5171 98.4135 77.5171 99.153C77.5171 99.8925 77.3184 100.511 76.9211 100.952C76.5237 101.383 75.9719 101.603 75.2655 101.603H75.2765ZM75.2875 100.963C76.1816 100.963 76.6341 100.356 76.6341 99.153C76.6341 97.9499 76.1926 97.365 75.3096 97.365C74.4266 97.365 73.9851 97.961 73.9851 99.164C73.9851 100.367 74.4156 100.963 75.2875 100.963Z" fill="#292929"/>
<path d="M79.0732 101.548V94.7161H79.9231V97.7072C80.2653 97.056 80.784 96.7249 81.4794 96.7249C82.0423 96.7249 82.4838 96.9346 82.8039 97.3429C83.1239 97.7513 83.2895 98.3142 83.2895 99.0206C83.2895 99.7932 83.1019 100.422 82.7376 100.886C82.3734 101.349 81.8878 101.592 81.3028 101.592C80.7509 101.592 80.2873 101.383 79.9231 100.952L79.8238 101.537H79.0843L79.0732 101.548ZM79.9231 100.389C80.3536 100.776 80.773 100.974 81.1703 100.974C81.9871 100.974 82.3844 100.356 82.3844 99.1199C82.3844 98.0272 82.0202 97.4754 81.3028 97.4754C80.8282 97.4754 80.3646 97.7292 79.9231 98.248V100.4V100.389Z" fill="#292929"/>
<path d="M88.2458 101.349C87.6828 101.526 87.1972 101.603 86.7888 101.603C86.1045 101.603 85.5416 101.372 85.1112 100.919C84.6807 100.466 84.46 99.8705 84.46 99.142C84.46 98.4136 84.6476 97.8507 85.0339 97.3981C85.4202 96.9456 85.9058 96.7249 86.5019 96.7249C87.0648 96.7249 87.5063 96.9235 87.8043 97.3209C88.1133 97.7182 88.2678 98.2921 88.2678 99.0316V99.2965H85.3209C85.4423 100.4 85.9831 100.963 86.9434 100.963C87.2965 100.963 87.727 100.864 88.2347 100.676V101.349H88.2458ZM85.365 98.6674H87.418C87.418 97.7955 87.0979 97.365 86.4467 97.365C85.7955 97.365 85.4312 97.7955 85.365 98.6674Z" fill="#292929"/>
<path d="M89.9453 101.493V96.8352H90.7952V97.7072C91.1263 97.056 91.6119 96.7249 92.2521 96.7249C92.3404 96.7249 92.4287 96.7248 92.528 96.7469V97.5416C92.3846 97.4975 92.2521 97.4644 92.1417 97.4644C91.6009 97.4644 91.1594 97.7844 90.7952 98.4136V101.493H89.9453Z" fill="#292929"/>
<path d="M93.7637 101.493V96.8352H94.6135V97.7072C95.055 97.056 95.6069 96.7249 96.2581 96.7249C96.6665 96.7249 96.9866 96.8573 97.2294 97.1112C97.4722 97.365 97.5936 97.7072 97.5936 98.1487V101.493H96.7437V98.4136C96.7437 98.0714 96.6886 97.8175 96.5892 97.6741C96.4899 97.5306 96.3243 97.4533 96.0815 97.4533C95.5627 97.4533 95.0771 97.7955 94.6135 98.4687V101.482H93.7637V101.493Z" fill="#292929"/>
<path d="M101.843 100.908C101.335 101.372 100.849 101.603 100.375 101.603C99.9886 101.603 99.6685 101.482 99.4146 101.239C99.1608 100.996 99.0283 100.687 99.0283 100.323C99.0283 99.8153 99.238 99.4179 99.6685 99.1531C100.099 98.8771 100.706 98.7447 101.512 98.7447H101.71V98.1818C101.71 97.6409 101.434 97.365 100.883 97.365C100.441 97.365 99.9555 97.4975 99.4367 97.7734V97.078C100.011 96.8463 100.54 96.7249 101.037 96.7249C101.534 96.7249 101.942 96.8463 102.185 97.078C102.428 97.3098 102.56 97.6741 102.56 98.1707V100.279C102.56 100.764 102.704 101.007 103.002 101.007C103.035 101.007 103.09 101.007 103.167 100.985L103.222 101.449C103.035 101.537 102.814 101.581 102.582 101.581C102.185 101.581 101.931 101.349 101.832 100.886L101.843 100.908ZM101.721 100.444V99.2414H101.434C100.971 99.2414 100.596 99.3186 100.309 99.4952C100.022 99.6718 99.8782 99.9036 99.8782 100.191C99.8782 100.389 99.9444 100.566 100.088 100.709C100.231 100.853 100.408 100.919 100.607 100.919C100.96 100.919 101.324 100.764 101.71 100.455L101.721 100.444Z" fill="#292929"/>
<path d="M104.515 101.493V96.8352H105.365V97.7072C105.696 97.056 106.181 96.7249 106.821 96.7249C106.91 96.7249 106.998 96.7248 107.097 96.7469V97.5416C106.954 97.4975 106.821 97.4644 106.711 97.4644C106.17 97.4644 105.729 97.7844 105.365 98.4136V101.493H104.515Z" fill="#292929"/>
<path d="M108.344 101.493V100.433H109.403V101.493H108.344Z" fill="#292929"/>
</g>
<defs>
<clipPath id="clip0_165_589">
<rect width="113.232" height="103" fill="white" transform="translate(0.322266 0.291992)"/>
</clipPath>
</defs>
</svg>
