<svg width="92" height="104" viewBox="0 0 92 104" fill="none" xmlns="http://www.w3.org/2000/svg">
<g clip-path="url(#clip0_165_675)">
<path d="M12.7047 96.2182C12.7047 96.3345 12.5302 96.3927 12.1928 96.3927H11.0526C10.2266 96.381 9.35398 96.5672 8.43486 96.9744C8.33015 97.0093 8.27198 97.0209 8.26034 97.0209C8.10909 97.0209 8.02765 96.8697 8.00438 96.5672C8.00438 96.4159 7.98112 96.2065 7.92294 95.9389C7.24814 96.6719 6.35229 97.0326 5.23538 97.0326C3.74617 97.0326 2.52455 96.4858 1.55889 95.3805C0.593224 94.2868 0.116211 92.8907 0.116211 91.1921C0.116211 89.4934 0.604859 88.074 1.58215 87.0153C2.55945 85.9566 3.85088 85.433 5.46807 85.433C6.51517 85.433 7.37612 85.8169 8.02765 86.5965V83.0479C8.02765 81.5238 7.95785 80.628 7.82987 80.3487C7.69025 80.0695 7.24814 79.9415 6.48027 79.9532C6.03816 79.9532 5.8171 79.895 5.8171 79.7787C5.8171 79.6623 5.92181 79.6041 6.1196 79.6041C7.66699 79.6041 9.1562 79.3714 10.5756 78.9177C10.785 78.8479 10.9246 78.813 11.0061 78.813C11.1922 78.813 11.2853 79.0108 11.2853 79.418V95.2176C11.2853 95.5085 11.3318 95.6946 11.4133 95.7993C11.5296 95.9506 11.8321 96.0204 12.2975 95.9971C12.5535 95.9855 12.6814 96.0436 12.6814 96.1949L12.7047 96.2182ZM8.03929 93.9378V88.4114C8.03929 87.6552 7.91131 87.0851 7.65535 86.7128C7.32958 86.2358 6.87584 86.0031 6.30575 86.0031C4.67692 86.0031 3.85088 87.8064 3.85088 91.4015C3.85088 93.007 4.0603 94.2519 4.47914 95.1245C4.89798 96.0087 5.4797 96.4392 6.22431 96.4392C6.66642 96.4392 7.07363 96.2414 7.45756 95.8459C7.8415 95.4503 8.02765 94.8104 8.02765 93.9262L8.03929 93.9378Z" fill="white"/>
<path d="M25.0611 91.3202C25.0611 93.1352 24.3514 94.5895 22.932 95.7064C21.815 96.5906 20.5934 97.0211 19.2555 97.0211C17.6615 97.0211 16.2887 96.451 15.1369 95.3108C13.9734 94.1707 13.4033 92.8211 13.4033 91.2621C13.4033 89.703 13.985 88.2604 15.1369 87.1202C16.3003 85.98 17.6964 85.4099 19.3369 85.4099C20.9774 85.4099 22.2572 85.9916 23.3857 87.1434C24.5142 88.3069 25.0727 89.6914 25.0727 91.3202H25.0611ZM21.2333 91.3435C21.2333 89.2493 21.0937 87.8066 20.8028 87.0271C20.4887 86.1662 19.9652 85.7357 19.2671 85.7357C18.6156 85.7357 18.1036 86.1894 17.7313 87.0969C17.359 88.0044 17.1729 89.2493 17.1729 90.8432C17.1729 93.0538 17.3939 94.636 17.8244 95.5668C18.1735 96.3114 18.6737 96.6837 19.3136 96.6837C20.1048 96.6837 20.6283 96.2067 20.8727 95.2643C21.1053 94.3684 21.2217 93.0654 21.2217 91.3551L21.2333 91.3435Z" fill="white"/>
<path d="M91.7495 91.3202C91.7495 93.1352 91.0398 94.5895 89.6204 95.7064C88.5035 96.5906 87.2819 97.0211 85.9439 97.0211C84.35 97.0211 82.9771 96.451 81.8253 95.3108C80.6619 94.1707 80.0918 92.8211 80.0918 91.2621C80.0918 89.703 80.6735 88.2604 81.8253 87.1202C82.9888 85.98 84.3849 85.4099 86.0254 85.4099C87.6658 85.4099 88.9456 85.9916 90.0742 87.1434C91.2027 88.3069 91.7612 89.6914 91.7612 91.3202H91.7495ZM87.9218 91.3435C87.9218 89.2493 87.7822 87.8066 87.4913 87.0271C87.1772 86.1662 86.6536 85.7357 85.9556 85.7357C85.304 85.7357 84.7921 86.1894 84.4198 87.0969C84.0475 88.0044 83.8614 89.2493 83.8614 90.8432C83.8614 93.0538 84.0824 94.636 84.5129 95.5668C84.8619 96.3114 85.3622 96.6837 86.0021 96.6837C86.7932 96.6837 87.3168 96.2067 87.5611 95.2643C87.7938 94.3684 87.9102 93.0654 87.9102 91.3551L87.9218 91.3435Z" fill="white"/>
<path d="M46.0146 96.5906C46.0146 96.7419 45.8866 96.8001 45.6306 96.7652H39.9763C39.7436 96.7652 39.6156 96.7186 39.6156 96.6139C39.6156 96.5325 39.8134 96.4743 40.209 96.4627C40.7093 96.451 40.9536 96.2881 40.9536 95.9973V90.2964C40.9536 88.5396 40.8954 87.4808 40.7791 87.1318C40.6045 86.6432 40.1857 86.3872 39.4993 86.3872C38.871 86.3872 38.3707 86.6548 38.0217 87.2016C37.8704 87.4227 37.7774 87.667 37.7657 87.9462C37.7308 88.272 37.7192 89.1446 37.7192 90.5756V95.4156C37.7192 95.9275 37.7657 96.2183 37.8588 96.3114C37.9519 96.3928 38.266 96.4394 38.8128 96.4394C38.9641 96.4394 39.0455 96.4859 39.0455 96.5674C39.0455 96.707 38.9525 96.7768 38.7663 96.7768C38.5918 96.7768 38.4638 96.7768 38.3591 96.7535L33.4377 96.707C33.2865 96.707 33.205 96.6604 33.205 96.5557C33.205 96.451 33.4028 96.4045 33.81 96.4045C34.1125 96.4045 34.287 96.3579 34.3452 96.2765L34.3917 96.0205V89.7961C34.3917 88.2022 34.2987 87.2365 34.1125 86.9108C33.9264 86.585 33.5424 86.4105 32.9723 86.4105C32.2743 86.4105 31.7623 86.7013 31.4249 87.2714C31.3086 87.4925 31.2388 87.7135 31.2039 87.9462C31.1806 88.1789 31.169 88.8421 31.169 89.9473V94.9967C31.169 95.7762 31.2155 96.2067 31.3086 96.2881C31.4017 96.3696 31.6344 96.4045 32.0067 96.4045H32.3906C32.5651 96.4045 32.6466 96.451 32.6466 96.5441C32.6466 96.6488 32.5651 96.707 32.4139 96.707H30.7385C29.3889 96.7303 28.6676 96.7419 28.5861 96.7535C27.7717 96.7768 27.1784 96.7884 26.7828 96.7884H26.4221C26.2011 96.7884 26.0964 96.7186 26.0964 96.5906C26.0964 96.4743 26.1778 96.4161 26.329 96.4161L26.9108 96.5208C27.2016 96.5325 27.4343 96.4743 27.6205 96.3114C27.7601 96.1951 27.8183 95.8344 27.8183 95.241V91.0294C27.8183 88.6676 27.7834 87.3994 27.7135 87.2249C27.5739 87.0736 27.0504 86.9922 26.1429 86.9922C25.9102 86.9922 25.7822 86.934 25.7822 86.8177C25.7822 86.6781 25.8869 86.6199 26.108 86.6199C27.795 86.585 29.3075 86.2127 30.6222 85.503C30.7734 85.4215 30.8898 85.375 30.9479 85.375C31.0294 85.375 31.0759 85.4448 31.0759 85.5728C31.0759 85.8288 31.0759 86.0382 31.0526 86.2127V87.2831C31.8322 86.0149 32.9723 85.375 34.4964 85.375C36.2067 85.375 37.2073 86.0731 37.5098 87.4576C37.8937 86.713 38.3707 86.1778 38.9292 85.8637C39.4876 85.5379 40.2206 85.3866 41.1281 85.3866C43.2688 85.3866 44.3392 86.5734 44.3392 88.9584V95.2294C44.3392 95.7762 44.3625 96.102 44.3974 96.2183C44.4439 96.3347 44.5835 96.4045 44.8162 96.4278C45.1536 96.4627 45.4561 96.4743 45.7237 96.4743C45.8982 96.4743 45.9797 96.5208 45.9797 96.6255L46.0146 96.5906Z" fill="white"/>
<path d="M53.3444 96.5439C53.3444 96.6603 53.2629 96.7185 53.1117 96.7185H46.7127C46.5149 96.7185 46.4102 96.6603 46.4102 96.5556C46.4102 96.4741 46.608 96.4276 46.9919 96.416C47.562 96.4043 47.8994 96.3345 48.0041 96.2298C48.1088 96.1135 48.1554 95.7877 48.1554 95.2176V87.8995C48.1554 87.248 48.0972 86.8641 47.9925 86.7361C47.8878 86.6081 47.5504 86.5499 46.9919 86.5499C46.6313 86.5499 46.4335 86.5499 46.3753 86.5267C46.3171 86.515 46.2822 86.4452 46.2822 86.3521C46.2822 86.2358 46.4102 86.1776 46.6662 86.1776C48.5277 86.166 50.11 85.8751 51.4363 85.3167C51.4712 85.5145 51.5177 86.0729 51.5643 86.992V94.9849C51.5643 95.683 51.6225 96.0786 51.7504 96.2065C51.8784 96.3229 52.3089 96.3811 53.0535 96.3811C53.2396 96.3811 53.3327 96.4392 53.3327 96.5556L53.3444 96.5439ZM51.5643 80.4651C51.5643 80.9421 51.4014 81.3493 51.0756 81.6867C50.7499 82.0241 50.3543 82.1986 49.8773 82.1986C49.4003 82.1986 48.9814 82.0357 48.6557 81.7216C48.3299 81.3959 48.167 81.0003 48.167 80.5C48.167 79.9997 48.3299 79.6391 48.6557 79.3366C48.9814 79.0341 49.4119 78.8828 49.9238 78.8828C50.3892 78.8828 50.7848 79.0341 51.0873 79.3366C51.4014 79.6391 51.5526 80.023 51.5526 80.4767L51.5643 80.4651Z" fill="white"/>
<path d="M67.1658 96.5439C67.1658 96.6835 66.9564 96.7417 66.5259 96.7417H61.0926C60.8599 96.7417 60.7319 96.6835 60.7319 96.5555C60.7319 96.4508 60.8366 96.3927 61.0344 96.3927H61.2322C61.6627 96.3927 61.9186 96.3345 61.9885 96.2298C62.0583 96.1251 62.1048 95.7411 62.1048 95.0896V90.1682C62.1048 88.3532 61.9885 87.2596 61.7558 86.9106C61.558 86.6081 61.1973 86.4568 60.6854 86.4568C60.1735 86.4568 59.743 86.6197 59.4172 86.9338C59.0798 87.2596 58.9169 87.6552 58.9169 88.1438V95.8109C58.9519 96.0087 59.0217 96.1483 59.138 96.2065C59.2427 96.2647 59.5219 96.2996 59.9641 96.3229C60.1037 96.3229 60.1618 96.3694 60.1618 96.4741C60.1618 96.5788 60.1037 96.637 59.9873 96.6486C59.871 96.6603 59.4405 96.6719 58.7192 96.6719C57.9978 96.6719 57.3928 96.6719 56.9158 96.6952C55.9851 96.7301 55.0427 96.7417 54.077 96.7417C53.8792 96.7417 53.7745 96.6835 53.7745 96.5672C53.7745 96.4276 54.0305 96.3694 54.5424 96.3694C55.0543 96.3694 55.3568 96.2647 55.4382 96.0669L55.5197 95.7179V89.9006C55.5197 88.2602 55.5081 87.4109 55.4731 87.341C55.4266 87.0851 55.1939 86.9571 54.7867 86.9571H53.9258C53.6582 86.9571 53.5186 86.8989 53.5186 86.7942C53.5186 86.6895 53.6233 86.6197 53.8211 86.6081C55.7058 86.5266 57.2067 86.1311 58.3352 85.4214C58.4748 85.3515 58.5563 85.3167 58.6145 85.3167C58.7541 85.3167 58.8122 85.4563 58.8122 85.7239V87.1665C59.7081 86.0031 60.8599 85.4214 62.256 85.4214C63.6522 85.4214 64.6527 85.9333 65.0949 86.9455C65.281 87.3643 65.3974 87.8413 65.4323 88.3649C65.4788 88.8884 65.4904 89.9704 65.4904 91.6109V95.2874C65.4904 95.8109 65.537 96.1251 65.6184 96.2181C65.6999 96.3112 65.9791 96.3578 66.4445 96.3578C66.9098 96.3578 67.1425 96.4276 67.1425 96.5555L67.1658 96.5439Z" fill="white"/>
<path d="M80.9877 87.0619C80.9877 87.9578 80.5572 88.4115 79.6962 88.4115C78.9051 88.4115 78.5095 88.0508 78.5095 87.3179C78.5095 87.2015 78.5444 87.0619 78.6026 86.9107C78.6608 86.7594 78.6957 86.6431 78.6957 86.5849C78.6957 86.294 78.5444 86.1544 78.2419 86.1544C78.0441 86.1544 77.8464 86.2475 77.6718 86.422C77.4973 86.5965 77.4042 86.7943 77.4042 87.0154C77.4042 87.1201 77.4741 87.3062 77.602 87.5738C77.9278 88.2021 78.0791 88.7838 78.0791 89.319C78.0791 90.5872 77.4973 91.6459 76.3339 92.4952C75.438 93.1351 74.3444 93.4609 73.0413 93.4609C72.5061 93.4609 71.8779 93.3562 71.1682 93.1351C70.982 93.0769 70.8191 93.0537 70.6912 93.0537C70.3654 93.0537 70.0978 93.1467 69.8651 93.3445C69.6324 93.5423 69.5277 93.7866 69.5277 94.0775C69.5277 94.6941 70.0047 95.0083 70.9704 95.0083C71.6917 95.0083 72.7737 94.9035 74.2048 94.7058C74.5538 94.6592 74.8912 94.6243 75.217 94.6243C76.3455 94.6243 77.2181 94.9035 77.8464 95.4736C78.4746 96.0437 78.7771 96.8349 78.7771 97.8703C78.7771 99.5224 78.1372 100.849 76.8574 101.826C75.5776 102.803 73.8557 103.292 71.6917 103.292C70.1676 103.292 68.9693 103.024 68.0734 102.489C67.1892 101.954 66.7471 101.221 66.7471 100.29C66.7471 98.8825 67.7825 98.0332 69.8418 97.754C68.6086 97.2653 67.992 96.5207 67.992 95.5202C67.992 94.1706 68.7831 93.2398 70.377 92.7512C68.818 91.96 68.0385 90.8431 68.0385 89.4004C68.0385 88.2719 68.5388 87.3062 69.5277 86.5267C70.5166 85.7472 71.7266 85.3633 73.146 85.3633C74.7865 85.3633 76.0663 85.817 76.9738 86.7361C77.6137 85.9101 78.3815 85.4913 79.2541 85.4913C80.4059 85.4913 80.976 86.0148 80.976 87.0619H80.9877ZM77.4624 99.3363C77.4624 98.0798 76.7295 97.4631 75.2519 97.4631C74.5422 97.4631 73.6114 97.5562 72.4596 97.7424C71.6335 97.882 71.0169 97.9401 70.6097 97.9401H70.2258C69.7488 98.5102 69.5161 99.2199 69.5161 100.069C69.5161 101.861 70.6795 102.757 73.0181 102.757C74.2746 102.757 75.3217 102.431 76.171 101.768C77.0203 101.105 77.4508 100.302 77.4508 99.3363H77.4624ZM75.0076 89.5633C75.0076 86.9805 74.3909 85.689 73.1577 85.689C71.9244 85.689 71.3078 86.8641 71.3078 89.2027C71.3078 90.6104 71.459 91.6226 71.7615 92.2276C72.064 92.8442 72.5759 93.1467 73.2856 93.1467C73.9488 93.1467 74.4026 92.8908 74.6469 92.3672C74.8912 91.8553 75.0192 90.9129 75.0192 89.5517L75.0076 89.5633Z" fill="white"/>
<path d="M75.0536 67.7719C74.0298 67.353 72.9943 67.5392 71.1095 67.8766C70.4347 68.0045 69.7599 68.1558 69.0968 68.342C68.9804 68.2372 68.8292 68.1674 68.6547 68.1674C68.5034 68.1674 68.3638 68.2256 68.2474 68.3187C68.1427 68.0976 67.9217 67.9464 67.6541 67.9464C67.5028 67.9464 67.3516 68.0045 67.2469 68.0976C67.1422 67.8766 66.9211 67.7253 66.6535 67.7253C66.5605 67.7253 66.4674 67.7486 66.3859 67.7835C66.2696 67.6206 66.0718 67.5159 65.8507 67.5043C65.7693 67.5043 65.6879 67.5275 65.6064 67.5508C65.4901 67.4112 65.3039 67.3181 65.1061 67.3181C64.7455 67.3181 64.4546 67.6206 64.4546 67.9813C64.4546 67.9813 64.4546 68.3769 64.3732 68.8539C64.315 69.1913 64.1056 69.424 64.1056 69.424C63.8613 69.6915 63.8729 70.0988 64.1405 70.3547C64.2685 70.4711 64.4313 70.5292 64.5942 70.5292C64.6757 70.5292 64.7687 70.5176 64.8385 70.4827C64.8502 70.506 64.8734 70.5292 64.8967 70.5409C65.0247 70.6572 65.1876 70.7154 65.3505 70.7154C65.4435 70.7154 65.5366 70.6921 65.6181 70.6572C65.6413 70.6921 65.6762 70.727 65.6995 70.7503C65.8275 70.8666 65.9904 70.9248 66.1532 70.9248C66.3045 70.9248 66.4441 70.8666 66.5721 70.7736C66.607 70.8434 66.6535 70.9132 66.7117 70.9713C66.8397 71.0877 67.0026 71.1459 67.1654 71.1459C67.3167 71.1459 67.4563 71.0877 67.5843 70.9946C67.6192 71.0644 67.6657 71.1342 67.7239 71.1924C67.8519 71.3087 68.0148 71.3669 68.1776 71.3669C68.2358 71.3669 68.294 71.3669 68.3522 71.3436C68.422 71.4134 68.5034 71.4833 68.5848 71.5647C68.9455 71.9137 69.3993 72.3442 69.9112 72.7049C71.412 73.752 72.7267 74.6595 73.832 74.6595C73.9134 74.6595 74.0065 74.6595 74.088 74.6478C75.6819 74.4268 77.3921 73.2866 77.5899 71.5182C77.7295 70.2267 76.9268 68.5281 75.1002 67.7719H75.0536ZM76.2403 71.3669C76.124 72.4606 74.9256 73.1935 73.8669 73.3448C73.2154 73.4378 71.8425 72.4722 70.6209 71.6345C70.1904 71.332 69.7948 70.9597 69.4458 70.6223C69.3295 70.506 69.2131 70.4013 69.1084 70.3082C69.1549 70.1918 69.1898 70.0638 69.2131 69.9242C69.2247 69.8312 69.248 69.7381 69.248 69.6566C69.9228 69.4589 70.6325 69.296 71.3306 69.168C73.0176 68.8655 73.8669 68.7026 74.5301 68.9818C75.3096 69.3076 76.345 70.25 76.2171 71.3669H76.2403Z" fill="white"/>
<path d="M30.82 57.2776C30.5408 57.0565 30.1336 57.1031 29.9009 57.3707C29.8777 57.2194 29.7962 57.0798 29.6682 56.9751C29.389 56.754 28.9702 56.8006 28.7491 57.0798C28.7491 57.0798 28.7375 57.1031 28.7258 57.1147C28.7258 56.9402 28.6328 56.7657 28.4932 56.6493C28.2372 56.4399 27.8649 56.4632 27.6206 56.6842C27.5857 56.6144 27.5275 56.5446 27.4577 56.4864C27.1785 56.2538 26.7596 56.3003 26.5386 56.5795C26.5153 56.6028 26.4339 56.7191 26.3291 56.882C25.9917 56.7657 25.666 56.6377 25.3286 56.4864C24.1302 55.9629 23.2925 55.2765 22.3967 54.5668C21.4543 53.8105 20.477 53.031 19.0343 52.3562C17.9756 51.8676 17.2659 51.6465 16.5795 51.9257C15.5207 52.3446 15.2299 53.4964 14.8343 55.0903C14.3573 56.9518 14.0548 58.1851 14.8343 59.0926C15.3462 59.6859 16.0908 59.8139 16.8238 59.8139C17.1263 59.8139 17.4171 59.7906 17.6964 59.7674H17.7894C18.918 59.6743 19.8371 59.5579 20.6399 59.4532C22.1175 59.2671 23.1878 59.1275 24.6305 59.3253C24.9446 59.3718 25.2471 59.4183 25.5496 59.4765C25.6311 59.4881 25.7009 59.4881 25.7823 59.4765C25.7823 59.7325 25.794 59.907 25.794 59.9186C25.8172 60.2793 26.1314 60.5469 26.492 60.5236C26.6549 60.512 26.7945 60.4422 26.8992 60.3375C27.0156 60.5585 27.2599 60.6981 27.5159 60.6749C27.7369 60.6632 27.9347 60.5236 28.0394 60.3491C28.0394 60.3956 28.0394 60.4189 28.0394 60.4305C28.0743 60.7912 28.3768 61.0472 28.7375 61.0239C28.7375 61.0239 28.7375 61.0239 28.7491 61.0239C28.9353 61.0123 29.0865 60.9192 29.1912 60.7912C29.2494 61.117 29.5403 61.3497 29.8777 61.3264C29.8777 61.3264 29.8777 61.3264 29.8893 61.3264C30.25 61.2915 30.5176 60.9774 30.4827 60.6167C30.4827 60.6167 30.4361 60.0001 30.5059 59.2438C30.5641 58.6272 30.9015 58.1851 30.9015 58.1851C31.1225 57.9059 31.076 57.487 30.7968 57.266L30.82 57.2776ZM24.805 58.0455C23.1878 57.8244 21.9895 57.9757 20.4654 58.1734C19.6742 58.2782 18.79 58.3945 17.6847 58.4643H17.5917C16.9052 58.5225 16.1141 58.5807 15.8232 58.2316C15.4858 57.8477 15.7418 56.8238 16.1024 55.4161C16.4282 54.1246 16.6493 53.3102 17.0681 53.1474C17.2193 53.0892 17.4986 53.0892 18.4875 53.5546C19.7789 54.1596 20.6981 54.8809 21.5706 55.5906C22.4898 56.3352 23.4438 57.0914 24.7934 57.6964C25.1424 57.8477 25.5031 57.9873 25.8638 58.1153C25.8638 58.1502 25.8638 58.1851 25.8521 58.22C25.8405 58.22 25.8289 58.22 25.8056 58.2083C25.4798 58.1385 25.1424 58.0804 24.805 58.0338V58.0455Z" fill="white"/>
<path fill-rule="evenodd" clip-rule="evenodd" d="M55.9734 16.5105C55.9734 16.5105 55.0427 20.4429 55.9734 22.7582L55.9851 22.7465C56.2115 23.317 56.7622 24.2222 57.4565 25.3636C59.5804 28.8551 63.0489 34.5572 62.6982 39.6514C62.2444 46.2482 59.0217 49.8432 59.0217 49.8432C56.1247 53.5663 51.5872 55.963 46.503 55.963C41.4187 55.963 37.0907 54.5668 33.7167 50.995C30.3427 47.4233 28.423 43.8282 28.6557 35.2652C28.8884 26.7022 35.1361 22.0717 35.1361 22.0717C35.1361 22.0717 33.5189 29.7039 38.1494 33.1827C38.1494 33.1827 35.1361 27.6214 38.1494 20.6756C39.8471 16.7473 41.8462 14.5941 43.5553 12.7533C44.8681 11.3393 46.0098 10.1096 46.7124 8.40122C48.3296 4.45713 49.0277 2.37456 49.2603 0.291992C49.2603 0.291992 51.5872 5.62058 50.4238 10.7165C49.2603 15.8007 50.1911 22.9792 52.2737 26.4579C52.2737 26.4579 53.6582 25.7599 53.6582 22.5255C53.6582 19.2911 54.3562 17.2085 55.9734 16.5105ZM52.2157 51.2858C52.2157 51.2858 53.798 49.529 54.0191 46.2946L54.0307 46.2597C54.2541 43.0754 53.0827 40.9748 52.4639 39.8652C52.4384 39.8193 52.4138 39.7752 52.3902 39.7327C50.9243 37.1034 51.4362 34.7648 51.4362 34.7648C50.6334 35.1139 49.47 37.1499 49.47 38.7438C49.47 40.3377 48.8068 38.7671 48.8068 38.7671C47.783 37.0685 46.7242 34.5787 47.2943 32.0773C47.8644 29.5758 45.6771 26.9697 45.6771 26.9697C45.6397 27.2995 45.6746 27.6293 45.7128 27.9894C45.7931 28.7473 45.8877 29.6395 45.3514 30.9487C45.0057 31.7924 44.4714 32.4474 43.856 33.2018C43.0626 34.1742 42.1346 35.3117 41.3026 37.2313C39.825 40.6402 41.1164 41.8502 41.1164 41.8502C40.5929 41.8502 40.0111 41.7339 39.9413 40.2563C39.8366 37.9643 38.487 37.6618 38.487 37.6618C38.487 37.6618 39.2549 40.0701 37.3236 44.1306C35.8344 47.2719 37.0094 50.1805 39.0571 52.1816C40.779 53.8686 43.5713 54.2875 46.0727 54.2875C48.5741 54.2875 50.7963 53.1124 52.2157 51.2858Z" fill="white"/>
<path d="M46.9684 46.8997C46.9684 49.6455 45.5955 51.8793 45.5955 51.8793C45.5955 51.8793 44.2227 49.6455 44.2227 46.8997C44.2227 44.154 45.5955 41.9202 45.5955 41.9202C45.5955 41.9202 46.9684 44.154 46.9684 46.8997Z" fill="white"/>
<path d="M66.9211 55.87C63.9194 56.8705 61.069 58.4296 57.9509 59.3487C51.9243 61.1171 50.0511 60.9426 43.8848 62.5133C39.7081 63.5836 35.4499 65.5499 33.7745 65.8873C30.9008 66.4574 28.2365 67.0274 24.9323 67.3532C21.6281 67.679 19.8597 67.5743 17.9981 68.6795C15.8807 69.9477 14.5427 72.3444 14.3217 73.566C14.2635 73.9034 14.6241 74.2757 14.9499 74.2059C15.9505 73.9965 18.289 73.3682 21.8492 72.2513C25.7118 71.0413 29.7024 69.3776 32.7158 68.4701C38.3817 66.7598 39.0682 67.3067 44.5829 66.085C52.0988 64.4213 51.7498 63.7582 57.9975 61.8036C63.6402 60.0468 68.0846 60.3493 68.7943 59.7792C73.6458 55.8816 76.9268 53.8689 77.0082 53.0079C77.1362 51.7979 72.4591 54.0085 66.9211 55.8583V55.87Z" fill="white"/>
<path d="M55.8801 64.0955C54.9145 64.4445 54.1466 64.7354 53.4253 65.0146C51.9826 65.573 50.6795 66.085 48.3643 66.7132C55.8685 68.7842 63.7334 70.7038 63.7334 70.7038C63.7334 70.7038 64.4082 70.0523 64.7572 69.0634C65.1063 68.0744 64.8619 66.8645 64.8619 66.8645C64.8619 66.8645 61.0342 65.6312 55.8685 64.0955H55.8801Z" fill="white"/>
<path d="M36.6256 63.3392C36.6256 63.3392 36.6489 63.3392 36.6605 63.3275C38.6267 62.5946 41.0583 61.6754 43.5132 61.0588C43.8041 60.989 44.0717 60.9192 44.3393 60.8494C36.4744 58.7319 31.169 57.3474 31.169 57.3474C31.169 57.3474 30.6571 57.7895 30.3546 59.1508C30.0521 60.512 30.1685 61.4544 30.1685 61.4544C30.1685 61.4544 32.7397 62.2106 36.6256 63.3392Z" fill="white"/>
</g>
<defs>
<clipPath id="clip0_165_675">
<rect width="91.6215" height="103" fill="white" transform="translate(0.12793 0.291992)"/>
</clipPath>
</defs>
</svg>
