<svg width="146" height="59" viewBox="0 0 146 59" fill="none" xmlns="http://www.w3.org/2000/svg">
<g clip-path="url(#clip0_165_420)">
<path d="M0.394531 33.4088H5.47165V2.14377H0.394531V1.49927H26.543V9.40431H26.0432C25.6486 8.22053 25.2145 7.16828 24.7673 6.27386C24.307 5.37945 23.7677 4.61656 23.1232 3.98521C22.4787 3.36702 21.7158 2.8935 20.8345 2.59098C19.9533 2.28846 18.8879 2.13062 17.6383 2.13062H10.0489V16.9411H13.0216C14.0212 16.9411 14.8762 16.849 15.5864 16.6649C16.2835 16.4807 16.8886 16.1387 17.3884 15.6389C17.8882 15.1391 18.3223 14.4551 18.6643 13.587C19.0194 12.7189 19.3614 11.6009 19.6902 10.233H20.19V24.4515H19.6902C19.4798 23.5703 19.2562 22.7153 19.0326 21.8867C18.8089 21.058 18.4801 20.3346 18.0724 19.6901C17.6646 19.0456 17.1122 18.5458 16.4282 18.1643C15.7443 17.7829 14.8498 17.5987 13.7581 17.5987H10.0621V33.4088H15.1392V34.0533H0.394531V33.4088Z" fill="white"/>
<path d="M24.3066 33.4089H28.3315L40.6692 0.683838H41.7609L54.1906 33.4089H58.2549V34.0534H44.1811V33.4089H49.2582L44.4573 20.7029H33.8558L29.0549 33.4089H34.132V34.0534H24.3066V33.4089ZM39.1697 6.76059L34.1452 20.0584H44.1942L39.1697 6.76059Z" fill="white"/>
<path d="M83.8776 34.0533H83.1936C82.9832 33.8166 82.7333 33.593 82.4571 33.3957C82.1808 33.1984 81.7599 33.0931 81.1812 33.0931C80.7208 33.0931 80.2342 33.1721 79.6949 33.3431C79.1556 33.514 78.5506 33.6982 77.8666 33.9086C77.1826 34.1191 76.4066 34.3164 75.5648 34.4742C74.7099 34.6452 73.7628 34.7241 72.7369 34.7241C70.8165 34.7241 68.9488 34.369 67.1336 33.6719C65.3185 32.9748 63.6086 31.8304 61.9908 30.2389C60.4913 28.7526 59.2549 26.9769 58.2421 24.9382C57.2425 22.8995 56.7295 20.5319 56.7295 17.8486C56.7295 15.56 57.1372 13.3897 57.9659 11.3115C58.7945 9.23333 59.9257 7.40504 61.3989 5.82666C62.8589 4.24828 64.5819 2.98558 66.5681 2.0517C68.5542 1.11783 70.7113 0.657471 73.0526 0.657471C73.9996 0.657471 74.8282 0.749543 75.5648 0.933687C76.3014 1.11783 76.9459 1.32828 77.5246 1.55189C78.1034 1.77549 78.6426 1.98594 79.1293 2.17008C79.616 2.35423 80.0895 2.4463 80.5499 2.4463C81.1549 2.4463 81.589 2.34107 81.852 2.14378C82.1151 1.94648 82.3518 1.72288 82.5623 1.48612H83.2463V10.6276H82.7464C82.4702 9.47008 82.1151 8.32576 81.6942 7.19459C81.2733 6.06342 80.6682 5.06378 79.9185 4.19567C79.1556 3.32756 78.1823 2.63044 77.0117 2.09116C75.841 1.56504 74.381 1.28882 72.6448 1.28882C71.027 1.28882 69.6459 1.53873 68.4884 2.03855C67.3309 2.53837 66.3576 3.20918 65.5684 4.05098C64.7792 4.89279 64.1479 5.86612 63.6744 6.97098C63.2008 8.089 62.8457 9.25963 62.5958 10.496C62.3459 11.7324 62.188 12.982 62.1223 14.2447C62.0434 15.5074 62.0039 16.7043 62.0039 17.8355C62.0039 21.0317 62.267 23.6886 62.7799 25.7931C63.2929 27.8976 64.0163 29.5549 64.9502 30.7782C65.8841 32.0014 67.0021 32.8564 68.3043 33.3431C69.6196 33.8297 71.0664 34.0796 72.6448 34.0796C74.6835 34.0796 76.3277 33.7903 77.5772 33.2115C78.8268 32.6328 79.8264 31.8831 80.5893 30.9492C81.3522 30.0153 81.9309 28.9631 82.3255 27.7924C82.7201 26.6218 83.0753 25.4512 83.3778 24.2937H83.8776V34.027V34.0533Z" fill="white"/>
<path d="M89.1787 33.4088H94.2558V2.14377H89.1787V1.49927H103.897V2.14377H98.82V33.4088H103.897V34.0533H89.1787V33.4088Z" fill="white"/>
<path d="M107.172 17.7303C107.172 15.297 107.645 13.0346 108.606 10.9696C109.566 8.89141 110.802 7.10258 112.302 5.57681C113.814 4.05105 115.511 2.85411 117.392 1.986C119.286 1.11789 121.167 0.683838 123.061 0.683838C125.073 0.683838 127.033 1.11789 128.94 1.986C130.848 2.85411 132.544 4.05105 134.031 5.57681C135.517 7.10258 136.714 8.90456 137.621 10.9696C138.516 13.0478 138.976 15.297 138.976 17.7303C138.976 19.8611 138.568 21.9525 137.74 23.9912C136.924 26.03 135.793 27.8451 134.359 29.4366C132.926 31.015 131.242 32.304 129.309 33.2774C127.375 34.2507 125.297 34.7374 123.074 34.7374C120.851 34.7374 118.668 34.2638 116.721 33.3168C114.774 32.3698 113.091 31.1202 111.67 29.5419C110.25 27.9766 109.145 26.1615 108.356 24.0965C107.566 22.0446 107.172 19.9137 107.172 17.7172V17.7303ZM112.433 17.7303C112.433 20.4793 112.617 22.8601 112.986 24.9119C113.354 26.9507 113.959 28.6606 114.814 30.0285C115.669 31.3965 116.761 32.4224 118.102 33.0932C119.444 33.764 121.101 34.0928 123.087 34.0928C125.073 34.0928 126.691 33.764 128.046 33.0932C129.401 32.4224 130.506 31.3965 131.361 30.0285C132.215 28.6606 132.821 26.9507 133.189 24.9119C133.557 22.8732 133.741 20.4793 133.741 17.7303C133.741 15.6258 133.61 13.6002 133.333 11.6273C133.057 9.66744 132.531 7.90492 131.755 6.366C130.979 4.82708 129.901 3.60384 128.506 2.68312C127.125 1.77555 125.31 1.31519 123.087 1.31519C120.864 1.31519 119.062 1.77555 117.668 2.68312C116.287 3.60384 115.195 4.82708 114.419 6.366C113.643 7.90492 113.117 9.65429 112.841 11.6273C112.565 13.5871 112.433 15.6258 112.433 17.7303Z" fill="white"/>
<path d="M141.055 32.1331C141.055 31.4623 141.291 30.8967 141.765 30.4232C142.238 29.9496 142.804 29.7129 143.475 29.7129C144.146 29.7129 144.711 29.9496 145.185 30.4232C145.658 30.8967 145.895 31.4623 145.895 32.1331C145.895 32.8039 145.658 33.3695 145.185 33.843C144.711 34.3165 144.146 34.5533 143.475 34.5533C142.804 34.5533 142.238 34.3165 141.765 33.843C141.291 33.3695 141.055 32.8039 141.055 32.1331Z" fill="white"/>
<path d="M55.7426 42.9449C55.8215 42.9712 55.9136 42.9975 56.0583 43.0107C56.1898 43.037 56.2687 43.0501 56.295 43.0501H56.6239C56.7686 43.0238 57.0579 42.8923 57.5051 42.6424C57.5314 42.5898 57.5446 42.3793 57.5446 42.011C57.5446 41.919 57.5183 41.8269 57.4525 41.7348C57.3868 41.6427 57.321 41.5638 57.2289 41.4586C57.1368 41.3665 57.0711 41.2876 57.0316 41.235C57.0053 41.235 56.9659 41.2218 56.9264 41.1824C56.8738 41.1429 56.8343 41.1298 56.8212 41.1298C56.4003 41.1035 56.0057 41.235 55.6111 41.4981C55.3217 41.6954 55.1902 41.9584 55.2428 42.2872C55.2954 42.6161 55.4664 42.8265 55.7558 42.9317L55.7426 42.9449Z" fill="white"/>
<path d="M144.106 47.0618H143.737C143.856 47.2065 143.987 47.2065 144.106 47.0618Z" fill="white"/>
<path d="M143.053 47.4169C143.053 47.4169 142.935 47.4169 142.83 47.4038C142.738 47.3774 142.672 47.3643 142.646 47.3643V47.2591C142.567 47.2591 142.527 47.2328 142.501 47.1801C142.422 47.1801 142.383 47.1538 142.356 47.1012H142.396C142.396 47.1012 142.462 47.0618 142.501 47.0618H142.646C142.672 46.9829 142.79 46.9302 143.014 46.8776V46.6146H142.646C141.843 47.0618 140.778 47.5484 139.449 48.1009C139.423 48.1009 139.357 48.1929 139.226 48.3902C139.305 48.3902 139.397 48.3771 139.515 48.3376C139.634 48.2982 139.726 48.285 139.778 48.285C139.778 48.2324 139.791 48.2061 139.831 48.2061C139.87 48.2061 139.91 48.2061 139.962 48.2456C140.015 48.2719 140.041 48.285 140.068 48.285C139.989 48.3639 139.949 48.3902 139.923 48.3902C139.555 48.6138 139.278 48.7059 139.081 48.6928C139.081 48.6665 139.094 48.627 139.134 48.5612C139.173 48.4955 139.2 48.4429 139.226 48.3902C139.107 48.3902 138.989 48.4429 138.897 48.5349C137.647 49.1268 136.608 49.6924 135.78 50.2317C135.464 50.3764 135.254 50.3238 135.148 50.0475C135.004 49.7319 134.583 49.0347 133.886 47.9562C133.491 47.2722 133.281 46.7329 133.254 46.3383C133.136 46.049 133.215 45.7859 133.504 45.5623C133.794 45.2729 134.03 45.0888 134.201 45.0099C134.662 44.8915 134.977 44.8783 135.122 44.9704C135.398 45.0625 135.569 44.9441 135.674 44.6021C135.727 44.5232 135.78 44.5232 135.859 44.6021C136.345 45.0362 136.845 45.1151 137.332 44.8126C137.555 44.6153 137.569 44.418 137.371 44.2207C136.661 43.5104 135.964 43.1421 135.267 43.129C134.991 43.0764 134.622 43.0895 134.122 43.1684C133.636 43.2474 133.36 43.2868 133.32 43.2868C132.899 43.4052 132.518 43.6551 132.149 44.0234C131.86 44.3128 131.742 44.6811 131.781 45.1283C131.834 45.8385 131.952 46.3252 132.149 46.6014C132.347 46.8908 132.61 47.3248 132.925 47.9036C133.057 48.1535 133.175 48.3508 133.281 48.5349C133.11 48.5612 133.004 48.5875 132.965 48.6007C132.847 48.7454 132.583 48.8901 132.189 49.0479C131.163 49.2978 130.611 49.4293 130.532 49.4556C129.19 49.7319 128.296 49.9029 127.848 49.9818C127.256 50.1265 126.665 50.1396 126.046 49.9818C126.073 49.9292 126.231 49.5083 126.52 48.6928C126.809 47.5221 126.612 46.562 125.915 45.8254C125.665 45.536 125.494 45.2861 125.402 45.0888C125.323 45.0099 125.362 44.9836 125.507 44.9836C125.599 44.931 125.652 44.852 125.652 44.7468C125.652 44.6416 125.599 44.5758 125.507 44.5495C125.428 44.5232 125.323 44.4838 125.178 44.418C125.034 44.3522 124.915 44.3128 124.849 44.2865C124.771 44.2602 124.665 44.247 124.521 44.2338C124.376 44.2338 124.244 44.2338 124.152 44.2865C123.981 44.3654 123.718 44.3917 123.35 44.4048C122.982 44.3391 122.64 44.3391 122.324 44.4048C121.982 44.4048 121.745 44.4574 121.627 44.5495C120.89 44.8257 120.404 45.0362 120.154 45.1809C119.891 45.3782 119.614 45.6412 119.351 45.9569C119.246 46.1147 119.18 46.2989 119.141 46.4962C118.76 46.7198 118.181 47.1012 117.378 47.6142C116.129 48.4297 115.34 48.8769 114.998 48.9427C115.024 48.798 115.116 48.6007 115.287 48.3771C115.458 48.1403 115.55 47.9562 115.576 47.8115C115.747 47.5221 115.905 47.3248 116.05 47.2196C116.313 46.9434 116.352 46.6935 116.155 46.4436L115.563 45.8254C115.34 45.5755 115.063 45.4176 114.735 45.3387C114.406 45.2598 114.077 45.2861 113.761 45.4308C113.446 45.5755 112.985 45.7859 112.38 46.049C111.775 46.312 111.341 46.5093 111.039 46.654C109.105 47.7194 107.5 48.7848 106.238 49.8634H106.132C106.132 49.8634 106.093 49.7976 106.093 49.7582C106.093 49.7056 106.093 49.6793 106.132 49.6793L107.119 47.8773C107.198 47.7589 107.316 47.4827 107.5 47.0618C107.685 46.6409 107.856 46.3384 108.027 46.1411C108.145 46.049 108.119 45.8648 107.948 45.5886L107.356 45.2598C107.158 45.1151 106.935 45.0888 106.672 45.1677C106.409 45.2598 106.251 45.3913 106.172 45.5886C106.093 45.7859 105.817 46.391 105.33 47.3906C104.949 48.1535 104.607 48.8243 104.278 49.4425C104.199 49.4425 104.107 49.4688 104.015 49.4951C103.752 49.6924 103.436 49.8502 103.094 49.9818C103.042 50.0081 102.897 50.0607 102.634 50.1265C102.371 50.2054 102.173 50.2843 102.029 50.3895C101.634 50.5605 101.042 50.8367 100.227 51.205C99.4244 51.5733 98.8194 51.8495 98.4248 52.0205C98.1354 52.1257 97.9775 52.1915 97.9512 52.2441C97.5303 52.4151 97.2147 52.6124 97.0042 52.836C96.9121 52.9281 95.2022 53.5989 94.7682 53.7962C94.6235 53.8488 94.3341 53.9672 93.9001 54.1513C93.466 54.3355 93.1372 54.4538 92.8873 54.5065C91.7167 54.809 90.9275 54.9537 90.5329 54.9537C90.3619 55.0589 89.941 55.0194 89.2833 54.8484C88.9939 54.7301 88.8887 54.4933 88.9808 54.1513C89.0729 53.862 89.2175 53.5726 89.3754 53.3095C89.5464 53.0333 89.77 52.7176 90.0462 52.3362C90.3224 51.9547 90.5197 51.7048 90.6118 51.5865C90.7038 51.4944 90.8222 51.4418 90.9406 51.4418C91.1379 51.4418 91.4273 51.4549 91.8087 51.4944C92.1902 51.5338 92.4532 51.547 92.5979 51.547C93.1372 51.547 93.4923 51.5075 93.6633 51.4286C95.0838 51.205 96.215 50.7447 97.07 50.0607L97.583 49.7319C97.8066 49.6398 97.9907 49.5214 98.1485 49.3767C98.3064 49.2452 98.4905 49.0216 98.701 48.7322C98.9114 48.4429 99.0298 48.2587 99.0824 48.1798C99.4507 47.7852 99.477 47.3117 99.1482 46.7461C98.8983 46.3252 98.701 46.0621 98.5563 45.9438C98.53 45.9174 98.3985 45.8648 98.1485 45.7991C98.0959 45.7465 98.0433 45.7202 97.9644 45.7202C97.8855 45.7202 97.846 45.7201 97.8197 45.6807C97.4251 45.4176 96.9911 45.4571 96.4912 45.7991C96.3729 45.8517 96.1887 45.9043 95.9388 45.9701C95.6889 46.0358 95.5047 46.0884 95.3864 46.1411C94.8734 46.22 94.4262 46.4041 94.0711 46.6935C93.0714 47.2196 92.0323 47.9825 90.9669 48.9558L90.0067 49.0742C89.7831 49.1926 89.4411 49.3504 88.9676 49.5214C88.4941 49.6924 88.139 49.8371 87.9285 49.9686C87.7312 50.0475 87.4813 50.1396 87.1525 50.2711C86.8368 50.3895 86.5475 50.5079 86.3107 50.6C86.0608 50.7052 85.824 50.7973 85.5741 50.9025C85.3111 50.9814 84.877 51.1261 84.3114 51.3629C83.7327 51.5996 83.2986 51.7575 83.0093 51.8232C82.7462 51.9284 82.3911 52.0731 81.9439 52.2704C81.5098 52.4677 81.2467 52.5861 81.1678 52.5993C80.9968 52.6782 80.6548 52.7965 80.1419 52.9938C79.6289 53.178 79.2475 53.349 79.0107 53.4937C77.4981 53.862 76.5511 54.0724 76.1828 54.0987C75.9592 54.1513 75.8013 54.1382 75.683 54.0593C75.5777 53.9803 75.5251 53.8488 75.5514 53.6515C75.5514 53.3358 75.604 53.0991 75.7356 52.9544C75.9723 51.9547 76.117 51.2708 76.1696 50.9288C76.5116 49.5346 76.7089 48.6402 76.7878 48.2456C76.8404 48.0483 76.8404 47.8904 76.7878 47.772C76.7089 47.68 76.5905 47.5221 76.4327 47.338C76.2748 47.1407 76.1696 47.0092 76.117 46.9302C75.9986 46.8119 75.9066 46.7461 75.8539 46.7461C75.3673 46.7461 75.0253 46.8119 74.828 46.9302C74.2098 47.2065 73.8678 47.3774 73.7626 47.4432C73.1576 47.7852 72.8024 47.9693 72.6972 47.9956C71.6712 48.6402 71.132 48.9821 71.0794 49.0347C71.0267 49.061 70.8163 49.1794 70.4217 49.3899C70.0271 49.6003 69.7509 49.7845 69.5799 49.9292C69.2116 50.1001 68.4487 50.6657 67.2649 51.6259C66.9756 51.8758 66.2785 52.3756 65.1736 53.1385C65.121 53.1648 65.0552 53.178 64.95 53.178C64.95 53.1254 65.0289 52.9544 65.1736 52.665C65.292 52.3756 65.7129 51.6128 66.41 50.3764C66.4363 50.258 66.5152 50.1001 66.6599 49.9029C66.6862 49.5609 66.8835 49.1531 67.2386 48.6928C67.3176 48.5744 67.3176 48.4692 67.2386 48.4034C67.0413 48.114 66.7125 47.8378 66.239 47.601C65.9102 47.4827 65.6471 47.6011 65.4893 47.9825C65.4893 47.9693 65.4761 47.9562 65.4498 47.943C65.2262 47.8904 64.8053 48.0746 64.1608 48.4692C63.6215 48.8111 63.2269 49.0479 62.9902 49.1663C62.1352 49.6661 61.6485 49.9818 61.5302 50.1265C61.3592 50.2974 61.1487 50.4158 60.912 50.4553C60.6226 50.6 60.2412 50.8236 59.7939 51.0998C59.3467 51.3892 59.0179 51.5733 58.8206 51.6785C57.2554 52.5861 56.3873 53.0859 56.2163 53.1648C56.0716 53.2832 55.8349 53.4147 55.5192 53.5463C55.2035 53.6778 54.993 53.783 54.901 53.862C54.3617 54.1119 53.9145 54.2829 53.5462 54.3881C53.4015 54.467 52.928 54.6248 52.152 54.8747C51.5338 55.0194 51.0866 54.98 50.7972 54.7301C50.692 54.2697 50.7183 53.8093 50.863 53.3753C51.0866 53.0333 51.2312 52.7176 51.297 52.4151C51.5338 51.6785 52.0204 50.8104 52.757 49.7976C52.757 49.7845 52.7833 49.745 52.7965 49.7319C52.7965 49.7319 53.7172 48.3376 53.783 48.2192C54.0197 47.7063 54.388 47.4958 54.8878 47.5879H54.993C55.072 47.5879 55.1246 47.5353 55.164 47.4169C55.2035 47.3117 55.1903 47.2065 55.1509 47.1012C54.7563 46.7593 54.4538 46.5225 54.2302 46.3647C53.783 46.1674 53.4015 46.2463 53.0595 46.5883C52.9675 46.7066 52.7965 46.8908 52.5466 47.1407C52.2967 47.3906 52.1257 47.5747 52.0336 47.6931C51.9941 47.7326 51.9678 47.7852 51.9284 47.8247C51.81 47.8773 51.6916 47.9562 51.5864 48.0746C51.2707 48.3902 51.0471 48.5744 50.9287 48.627L48.6532 49.5872C45.6675 50.942 43.8129 51.7575 43.0763 52.0337C40.6824 53.1648 38.7226 53.9803 37.21 54.4802C36.7496 54.6775 36.3682 54.7958 36.0657 54.8484C34.9345 54.9011 34.2505 54.8747 34.0138 54.7827C33.7244 54.638 33.6192 54.4275 33.7112 54.1645C33.8296 53.4016 34.2111 52.494 34.8424 51.4418C34.9871 51.2182 35.2107 50.9288 35.5001 50.5605C35.7894 50.1922 35.9736 49.9423 36.0525 49.8239C36.4208 49.4293 36.7759 49.0874 37.1179 48.7848C37.1968 48.7322 37.2758 48.6665 37.3678 48.5875C37.4599 48.4955 37.552 48.4297 37.6309 48.3902C38.1702 48.0746 38.933 47.8378 39.9064 47.68C40.6167 47.68 41.0639 48.0088 41.2349 48.6665C41.3795 49.0611 41.3927 49.403 41.2743 49.6924V50.1659C41.2743 50.3106 41.3664 50.4684 41.5374 50.6394C41.9057 50.7841 42.2082 50.7841 42.4581 50.6394C42.7475 50.3632 42.879 50.0475 42.8527 49.6793C42.7738 49.0874 42.5633 48.5875 42.2213 48.1798C42.103 48.0877 41.9583 47.9167 41.8136 47.6668C41.5637 47.3248 41.0244 46.9171 40.1958 46.4567C40.0248 46.3647 39.6565 46.2463 39.0909 46.1279C38.2096 46.1016 37.4073 46.4041 36.6707 47.0223C36.6181 47.0749 36.3813 47.2722 35.9341 47.6142C35.6448 47.8773 35.3685 48.1666 35.1055 48.4955C35.066 48.456 35.0397 48.4429 35.0134 48.4692C34.4741 48.5481 34.1716 48.6007 34.0927 48.6138C33.9743 48.7585 33.7112 48.9032 33.3167 49.0611C32.2907 49.311 31.7383 49.4425 31.6594 49.4688C30.3177 49.745 29.4233 49.916 28.9761 49.9949C28.3842 50.1396 27.7923 50.1528 27.1741 49.9949C27.2004 49.9423 27.3583 49.5214 27.6476 48.7059C27.937 47.5353 27.7397 46.5751 27.0426 45.8385C26.7927 45.5492 26.6217 45.2993 26.5296 45.102C26.4507 45.023 26.4902 44.9967 26.6349 44.9967C26.7269 44.9441 26.7795 44.8652 26.7795 44.76C26.7795 44.6547 26.7269 44.589 26.6349 44.5627C26.5559 44.5364 26.4507 44.4969 26.306 44.4311C26.1613 44.3654 26.043 44.3259 25.9772 44.2996C25.8983 44.2733 25.793 44.2601 25.6484 44.247C25.5037 44.247 25.3721 44.247 25.2801 44.2996C25.1091 44.3785 24.846 44.4048 24.4777 44.418C23.1624 44.6284 20.203 46.5883 20.2293 47.0092C20.2293 47.3511 19.7163 47.68 19.3875 48.0088C19.0718 48.3245 18.4667 48.5744 18.3352 48.6138L16.0597 49.574C13.0739 50.9288 11.2194 51.7443 10.4828 52.0205C8.08891 53.1517 6.12909 53.9672 4.61647 54.467C4.15611 54.6643 3.77467 54.7827 3.47215 54.8353C2.34098 54.8879 1.65701 54.8616 1.42026 54.7695C1.13089 54.6248 1.02566 54.4144 1.11773 54.1513C1.23611 53.3884 1.61755 52.4809 2.24891 51.4286C2.39359 51.205 2.61719 50.9156 2.90656 50.5474C3.19593 50.1791 3.38008 49.9292 3.459 49.8108C3.82728 49.4162 4.18242 49.0742 4.5244 48.7717C4.60332 48.7191 4.68224 48.6533 4.77431 48.5744C4.86638 48.4823 4.95846 48.4165 5.03737 48.3771C5.57665 48.0614 6.33954 47.8247 7.31287 47.6668C8.02314 47.6668 8.47035 47.9956 8.64134 48.6533C8.78602 49.0479 8.79918 49.3899 8.6808 49.6793V50.1528C8.6808 50.2974 8.77287 50.4553 8.94386 50.6263C9.31215 50.771 9.61467 50.771 9.86458 50.6263C10.1539 50.3501 10.2855 50.0344 10.2592 49.6661C10.1803 49.0742 9.96981 48.5744 9.62782 48.1666C9.50945 48.0746 9.36476 47.9036 9.22008 47.6537C8.97017 47.3117 8.43089 46.9039 7.60224 46.4436C7.43125 46.3515 7.06296 46.2331 6.49737 46.1147C5.61611 46.0884 4.81377 46.391 4.07719 47.0092C4.02458 47.0618 3.78782 47.2591 3.34062 47.601C2.63035 48.2456 1.97269 49.0611 1.36764 50.0738C0.999356 50.6394 0.7626 51.0998 0.644221 51.4418C0.381158 51.9153 0.183861 52.3625 0.0654825 52.8097C-0.131815 53.3227 -0.118662 53.9409 0.104942 54.6511C0.302239 55.243 0.696834 55.7034 1.26242 56.0585C1.84116 56.4137 2.38044 56.5847 2.89341 56.5847C3.82728 56.532 4.57701 56.4137 5.16891 56.2032C5.3662 56.1506 5.62927 56.0585 5.97125 55.927C6.31323 55.7955 6.56314 55.7034 6.70782 55.6508C6.95773 55.5982 7.31287 55.4666 7.81269 55.243C8.29936 55.0194 8.66764 54.8879 8.91755 54.8353C9.23323 54.638 9.7199 54.4012 10.3907 54.125C11.0484 53.8488 11.535 53.6252 11.8639 53.4147L11.9691 53.3358C13.9947 52.4677 15.3889 51.8495 16.1518 51.4812C16.5201 51.3365 17.0462 51.0866 17.7302 50.771C17.3224 51.4812 17.0199 52.2441 16.8489 53.0728C16.77 53.2175 16.7042 53.5463 16.6385 54.0724C16.6385 54.6906 16.8489 55.2299 17.2698 55.7034C17.6907 56.1769 18.2563 56.44 18.9666 56.4926C19.7689 56.4926 20.5712 56.2821 21.3473 55.8612C21.7682 55.6376 22.2943 55.2825 22.9651 54.7695C23.6228 54.2697 24.0963 53.9277 24.3988 53.7567L24.5435 53.5331L25.8194 52.1652C25.8983 52.0468 25.9509 51.9547 26.0035 51.889C26.0561 51.8232 26.1087 51.7574 26.1745 51.6917C26.2403 51.6128 26.2797 51.5602 26.3192 51.5207C26.3586 51.4812 26.3981 51.4549 26.4639 51.4286C26.5296 51.4023 26.5691 51.3892 26.5954 51.376C26.6217 51.376 26.6743 51.3629 26.7664 51.3629C26.8585 51.3629 26.9242 51.3629 26.9637 51.3629C27.0163 51.3629 27.0952 51.3629 27.2267 51.3629C27.3451 51.3629 27.4635 51.3629 27.5556 51.3629C28.4631 51.3629 29.1208 51.3365 29.5417 51.2839C30.0284 51.205 30.5019 51.1656 30.9359 51.1656C31.1595 51.1656 31.3042 51.0735 31.37 50.9025L31.804 50.7973C32.0934 50.7183 32.3959 50.6526 32.6853 50.5737C32.9747 50.4947 33.1194 50.4684 33.1194 50.4947L34.1453 49.8108C34.0927 49.9029 34.0269 49.9818 33.9743 50.087C33.606 50.6526 33.3693 51.1129 33.2509 51.4549C32.9878 51.9284 32.7905 52.3756 32.6721 52.8229C32.4748 53.3358 32.488 53.954 32.7116 54.6643C32.9089 55.2562 33.3035 55.7165 33.8691 56.0717C34.4478 56.4268 34.9871 56.5978 35.5001 56.5978C36.4339 56.5452 37.1837 56.4268 37.7756 56.2164C37.9729 56.1638 38.2359 56.0717 38.5779 55.9401C38.9199 55.8086 39.1698 55.7165 39.3145 55.6639C39.5644 55.6113 39.9195 55.4798 40.4194 55.2562C40.906 55.0326 41.2743 54.9011 41.5242 54.8484C41.8399 54.6511 42.3266 54.4144 42.9974 54.1382C43.655 53.862 44.1417 53.6383 44.4705 53.4279L44.5758 53.349C46.6013 52.4809 47.9956 51.8627 48.7585 51.4944C49.0741 51.3629 49.5082 51.1656 50.0606 50.9025C49.9817 51.0735 49.9028 51.2445 49.8239 51.4286C49.6266 52.1652 49.495 52.7308 49.4293 53.1254C49.3635 53.7436 49.4687 54.3749 49.7712 55.0326C49.8502 55.2562 49.9817 55.5061 50.1921 55.8086C50.4026 56.098 50.7183 56.4268 50.8367 56.4268C51.8626 56.6899 52.8359 56.6636 53.7435 56.3479C54.4801 56.0454 54.9404 55.8744 55.1377 55.8218C55.335 55.7429 56.2558 55.2562 57.9262 54.3355C58.7285 53.8488 59.2284 53.5463 59.4257 53.4542C59.5046 53.4016 59.6493 53.2964 59.8597 53.1254C60.0833 52.9544 60.2675 52.8229 60.4253 52.7176C60.5831 52.6256 60.7541 52.5466 60.9251 52.494C61.0172 52.3756 61.1487 52.2573 61.3066 52.1389C61.4644 52.0337 61.6485 51.9021 61.8721 51.7706C62.0958 51.6391 62.2536 51.5338 62.3457 51.4549V51.3102H61.9774C62.0957 51.034 62.2799 50.9025 62.5298 50.9025C62.5561 50.8762 62.5824 50.8499 62.6087 50.8236C62.635 50.7973 62.6613 50.7841 62.7008 50.7841C62.7403 50.7841 62.7797 50.7841 62.8323 50.771C62.8849 50.771 62.9244 50.7447 62.9375 50.7184C63.0165 50.5474 63.2006 50.4027 63.5294 50.2711C63.6084 50.2185 63.7004 50.1922 63.8188 50.1922C63.8977 50.0475 64.0424 49.9686 64.2529 49.9686V50.1922C64.4239 50.1133 64.7264 49.7713 65.121 49.1926C64.7395 50.2185 64.266 51.1656 63.6873 52.0337C63.5689 52.1389 63.4637 52.2967 63.3979 52.5072C63.3453 52.6519 63.2532 52.8623 63.1217 53.1122C62.9902 53.3753 62.8849 53.5726 62.806 53.7173C62.7139 53.862 62.5693 54.2039 62.372 54.7432C62.1484 55.1641 62.2536 55.7297 62.6745 56.4268C62.8192 56.5715 63.0033 56.611 63.2269 56.532C63.2795 56.4794 63.3321 56.4137 63.4111 56.3084C63.49 56.2164 63.5426 56.1374 63.5952 56.0848C64.1871 55.7955 64.6475 55.3746 64.9894 54.8353L65.5024 54.3223C66.8967 52.9675 67.9621 52.0731 68.6855 51.6259C68.7644 51.5075 68.9222 51.3892 69.159 51.2971C69.4089 51.205 69.5536 51.1261 69.593 51.0735C69.8167 50.9025 70.1323 50.6789 70.5664 50.3895C70.9873 50.1002 71.2635 49.9292 71.395 49.8502C71.5134 49.7713 71.7107 49.6661 71.9606 49.4951C72.2237 49.3373 72.4341 49.2189 72.6051 49.14C73.8021 48.6665 74.6307 48.3639 75.1042 48.2061C75.2489 48.0614 75.3278 48.1009 75.3278 48.3113C75.3278 48.6796 75.2884 48.9427 75.2226 49.1137C75.1305 49.5609 75.0121 49.9292 74.8543 50.2185C74.5386 51.0998 74.4071 52.2967 74.4597 53.783C74.4597 54.0329 74.5386 54.2565 74.6833 54.4802C74.7754 54.6248 74.9858 54.8616 75.3147 55.1773C75.341 55.1773 75.433 55.2299 75.604 55.322C75.775 55.414 75.8803 55.4929 75.9329 55.5456C76.6168 55.6639 77.2219 55.6245 77.7348 55.4272C78.4188 55.2299 78.9581 55.0194 79.3527 54.7958C80.0893 54.5459 81.1547 54.1513 82.5489 53.612L86.508 51.9811C86.5869 51.9284 86.6527 51.889 86.7316 51.8758C86.6527 51.6522 86.7579 51.547 87.021 51.547C87.3103 51.547 87.5602 51.4681 87.7575 51.3234C88.2968 51.1393 88.7572 50.9814 89.1123 50.8499C88.7572 51.3365 88.4415 51.8495 88.1916 52.402L87.9417 52.8755C87.8496 53.3621 87.8496 53.9014 87.9417 54.4933C88.139 55.0852 88.402 55.4929 88.7177 55.7429C88.9939 56.0059 89.3096 56.1901 89.6779 56.2953C90.5329 56.5847 91.2037 56.6504 91.664 56.4663C91.743 56.3874 94.6235 55.6113 95.7678 54.9405C96.6491 54.5196 97.4383 54.1645 98.1485 53.862C98.3458 53.7436 98.7273 53.5726 99.306 53.349C99.8848 53.1254 100.306 52.9149 100.569 52.7176C100.595 52.6913 100.648 52.665 100.713 52.6387C100.792 52.6124 100.832 52.5861 100.858 52.5598C101.082 52.4677 101.503 52.2836 102.121 52.0468C102.45 51.9153 102.726 51.7969 102.976 51.7048C102.7 52.2047 102.187 53.1517 101.411 54.5854C101.332 54.6643 101.24 54.8353 101.121 55.0983V55.9401C101.174 56.0322 101.266 56.1638 101.397 56.3084C101.529 56.4531 101.621 56.5715 101.674 56.6767H101.753C101.753 56.6767 101.805 56.7162 101.845 56.7293C101.884 56.7293 101.923 56.7556 101.976 56.782C102.173 56.874 102.331 56.8214 102.45 56.5978C102.502 56.5057 102.607 56.361 102.765 56.1769C102.923 55.9928 103.042 55.8218 103.107 55.6771C103.305 55.3614 103.633 54.9274 104.094 54.3749C104.554 53.8225 104.804 53.5331 104.83 53.5068C104.975 53.2306 105.396 52.7834 106.08 52.1389C106.159 52.06 106.264 51.9679 106.409 51.8495C106.553 51.7311 106.659 51.6259 106.738 51.5602L107.395 51.1129C107.816 50.7447 108.237 50.4027 108.697 50.0738C109.145 49.7582 109.736 49.3636 110.46 48.9032C111.183 48.4429 111.67 48.1403 111.907 47.9956C112.025 47.9167 112.209 47.8378 112.459 47.7326C112.709 47.6405 112.893 47.5616 113.012 47.509C113.064 47.4827 113.117 47.509 113.196 47.5484C113.275 47.6011 113.301 47.6405 113.301 47.6931C113.156 48.2061 113.275 48.8111 113.643 49.4951C113.643 49.5477 113.669 49.6266 113.722 49.7319C113.774 49.8371 113.814 49.9292 113.827 50.0081C113.972 50.2054 114.156 50.2975 114.38 50.2975C115.208 50.2975 115.8 50.0738 116.142 49.6266C116.234 49.482 116.76 49.0479 117.72 48.3376C118.312 47.8904 118.72 47.5747 118.983 47.338C118.917 47.5879 118.773 47.7984 118.562 47.9693C118.391 48.1403 117.484 49.3241 117.392 49.4425C116.51 50.4684 115.932 51.6654 115.642 53.0202C115.563 53.1648 115.498 53.4937 115.432 54.0198C115.432 54.638 115.642 55.1773 116.063 55.6508C116.484 56.1243 117.05 56.3874 117.76 56.44C118.562 56.44 119.365 56.2295 120.141 55.8086C120.562 55.585 121.088 55.2299 121.758 54.7169C122.416 54.2171 123.337 53.4805 123.337 53.4805L124.613 52.1126C124.692 51.9942 124.744 51.9021 124.797 51.8364C124.849 51.7706 124.902 51.7048 124.968 51.6391C125.034 51.5602 125.073 51.5075 125.113 51.4681C125.152 51.4286 125.191 51.4023 125.257 51.376C125.323 51.3497 125.362 51.3365 125.389 51.3234C125.415 51.3234 125.468 51.3102 125.56 51.3102C125.652 51.3102 125.718 51.3102 125.757 51.3102C125.81 51.3102 125.889 51.3102 126.02 51.3102C126.138 51.3102 126.257 51.3102 126.349 51.3102C127.256 51.3102 127.914 51.2839 128.335 51.2313C128.822 51.1524 129.295 51.1129 129.729 51.1129C129.953 51.1129 130.098 51.0209 130.163 50.8499L130.611 50.7447C130.9 50.6657 131.202 50.6 131.492 50.5211C131.781 50.4421 131.939 50.4158 131.939 50.4421L133.675 49.2847C133.754 49.4162 133.833 49.5609 133.951 49.7319C134.149 50.0344 134.28 50.2711 134.359 50.4421C134.504 50.6131 134.491 50.7841 134.32 50.9551C133.978 51.1524 133.491 51.4549 132.873 51.8758C132.255 52.2967 131.781 52.5861 131.465 52.7571C130.703 53.2701 130.295 53.5594 130.216 53.612C129.243 54.1776 128.414 54.7827 127.756 55.4272C127.73 55.4798 127.677 55.5324 127.612 55.6113C127.585 55.6639 127.559 55.7034 127.533 55.756C127.296 56.2032 127.27 56.703 127.467 57.2686C127.572 57.729 127.848 58.0447 128.309 58.1893C128.427 58.2683 128.638 58.3603 128.94 58.4787C129.229 58.5971 129.427 58.6892 129.532 58.7286C130.295 59.0443 132.044 58.5182 132.136 58.505C132.478 58.4524 132.768 58.2946 133.018 58.0183C133.82 57.3344 134.307 56.9003 134.478 56.7293C135.214 56.0717 135.674 55.4272 135.872 54.809C136.161 54.0987 136.24 53.4937 136.082 53.007C136.056 52.9281 136.016 52.6124 135.964 52.0468C135.964 51.7048 136.095 51.4812 136.372 51.3892C136.424 51.3629 136.503 51.2971 136.635 51.205C136.753 51.1129 136.871 51.034 136.963 50.9814C137.056 50.9288 137.174 50.9025 137.292 50.9025C138.029 50.429 138.489 50.1133 138.687 49.9423C138.779 49.916 138.897 49.8502 139.029 49.7582C139.16 49.6661 139.239 49.6135 139.265 49.6135C139.357 49.6135 139.423 49.5477 139.436 49.4293C139.436 49.311 139.515 49.2452 139.634 49.2452C139.831 49.1268 140.107 48.9558 140.475 48.7585C140.844 48.5612 141.094 48.4297 141.251 48.3508C141.343 48.3245 141.462 48.3113 141.58 48.3113C141.922 48.0351 142.264 47.8378 142.606 47.7194C142.803 47.6274 143.04 47.4695 143.343 47.2722V47.167H143.119C143.172 47.167 143.198 47.1407 143.198 47.0881H143.093V47.167C143.067 47.2591 143.027 47.3248 142.988 47.338L143.053 47.4169ZM10.2723 52.7965C10.3249 52.7176 10.5091 52.6913 10.8248 52.6782C10.7721 52.7571 10.588 52.7834 10.2723 52.7965ZM14.7444 51.1261L12.4689 52.1652L10.8511 52.6124C10.8511 52.3888 10.9826 52.2836 11.2588 52.2836C11.4824 52.2047 11.8244 52.06 12.2848 51.8232C12.7451 51.5865 13.1003 51.4286 13.3502 51.3629C13.5738 51.2445 14.284 50.9025 15.481 50.3632C15.5599 50.3369 15.7703 50.2448 16.1386 50.087C16.5069 49.9292 16.7963 49.8108 17.0199 49.7319C17.0462 49.7319 17.0857 49.7319 17.1514 49.7187C17.2172 49.7187 17.2567 49.7056 17.283 49.7056C17.546 49.482 18.059 49.232 18.8219 48.969C18.9797 48.9032 19.1112 48.8638 19.2296 48.8374C19.2296 48.8374 19.2165 48.8638 19.2033 48.8769C19.0192 49.1268 18.8876 49.2978 18.7824 49.4293C18.6509 49.5346 18.5325 49.6003 18.4273 49.6003C18.2563 49.6266 17.8748 49.7976 17.2961 50.1133C16.4675 50.3895 15.6257 50.7315 14.7707 51.1524L14.7444 51.1261ZM23.4518 52.2836C22.3075 53.3227 21.1105 54.1382 19.861 54.7564C19.3217 54.9537 18.9797 55.0326 18.835 54.98H18.2431C17.9275 54.8879 17.8091 54.7301 17.9143 54.5065C18.0064 54.3092 18.1379 53.9935 18.2958 53.5726C18.4536 53.1385 18.5851 52.836 18.6772 52.6387C19.0192 52.0468 19.3743 51.3629 19.7294 50.5737C19.7426 50.5079 19.8873 50.2448 20.124 49.8108L20.7422 49.1137C20.9527 49.0216 21.321 49.4688 21.492 49.6266C22.268 50.3632 23.123 50.8236 24.07 51.0077C24.0963 51.0603 24.1358 51.0998 24.1752 51.1129L24.2541 51.1524C24.2541 51.1524 24.3462 51.1787 24.3594 51.2445C24.3857 51.3102 24.3857 51.3629 24.3594 51.4155C24.2147 51.5207 23.9121 51.8101 23.4386 52.2967L23.4518 52.2836ZM26.477 47.4958C26.4507 48.114 26.214 48.8111 25.7536 49.5872C25.6352 49.8371 25.3853 49.9292 25.017 49.8897C24.0568 49.7187 23.4123 49.5609 23.0703 49.4162C22.3864 49.1794 21.9655 48.9558 21.8208 48.7585C21.7945 48.7059 21.755 48.6533 21.6893 48.5744C21.6235 48.4955 21.584 48.456 21.5577 48.4297C21.3604 48.285 21.3604 48.1403 21.5577 47.9956L22.3601 47.2591C23.1887 46.6146 23.6622 46.2594 23.7938 46.1937C24.1358 45.9043 24.6093 45.5886 25.2275 45.2729H25.4511C25.6221 45.3913 25.7273 45.4834 25.7404 45.5229C26.3849 46.0621 26.6217 46.7198 26.477 47.509V47.4958ZM42.8658 52.7965C42.9185 52.7176 43.1026 52.6913 43.4183 52.6782C43.3657 52.7571 43.1815 52.7834 42.8658 52.7965ZM49.8765 50.087C49.0478 50.3632 48.206 50.7052 47.3511 51.1261L45.0756 52.1652L43.4577 52.6124C43.4577 52.3888 43.5893 52.2836 43.8655 52.2836C44.0891 52.2047 44.4311 52.06 44.8914 51.8232C45.3518 51.5865 45.7069 51.4286 45.9568 51.3629C46.1804 51.2445 46.8907 50.9025 48.0876 50.3632C48.1666 50.3369 48.377 50.2448 48.7453 50.087C49.1136 49.9292 49.403 49.8108 49.6266 49.7319C49.6529 49.7319 49.6923 49.7319 49.7581 49.7187C49.8239 49.7187 49.8633 49.7056 49.8896 49.7056C50.1264 49.5083 50.5604 49.2978 51.1655 49.0611C51.034 49.2583 50.9024 49.4556 50.784 49.6661C50.5736 49.745 50.2842 49.8897 49.8765 50.1133V50.087ZM64.0293 49.7582C63.6347 49.9555 63.0954 50.258 62.3983 50.6789C61.7012 51.0998 61.2408 51.3629 61.0172 51.4944C60.6226 51.718 60.2938 51.8232 60.0307 51.8232C60.0307 51.7443 60.1491 51.6522 60.399 51.5338C60.6489 51.3892 61.0172 51.1656 61.5302 50.863C62.0431 50.5605 62.4377 50.3369 62.7008 50.1659C63.2138 49.8634 63.7399 49.6529 64.2792 49.4951L64.0293 49.7582ZM78.695 54.296C78.695 54.296 78.603 54.2697 78.5898 54.2171L78.5503 54.1776L78.5898 54.0987H78.9976C78.9449 54.2171 78.8529 54.2829 78.7082 54.2829L78.695 54.296ZM79.2869 54.0724H79.0239C79.0502 53.9935 79.208 53.9672 79.4974 53.9672C79.4974 54.0461 79.4184 54.0724 79.2738 54.0724H79.2869ZM91.5062 50.5605L92.4927 49.6003C93.637 48.7191 94.4393 48.1666 94.8734 47.9693C95.5047 47.5484 96.2808 47.2985 97.1884 47.2196C97.4514 47.2196 97.6093 47.1538 97.6224 47.0355C97.7013 46.8119 97.7934 46.7593 97.9118 46.8908C98.0828 47.0618 98.1485 47.1933 98.0959 47.2985C98.0959 47.5747 98.0565 47.7457 97.9907 47.8115C97.7671 48.3245 97.4646 48.6928 97.0831 48.9164C96.2808 49.5346 95.4258 49.9818 94.5183 50.2448C94.2026 50.3895 93.7817 50.5605 93.2687 50.7315C93.1767 50.7578 92.9925 50.7841 92.7426 50.8236C92.4795 50.863 91.835 50.8762 91.7298 50.9156H91.2826C91.2563 50.8499 91.3352 50.7183 91.5062 50.5474V50.5605ZM82.1938 52.9544C82.2858 52.8097 82.3779 52.7308 82.4437 52.7308C82.4963 52.7308 82.5489 52.7308 82.6147 52.7439C82.6804 52.7439 82.7199 52.7571 82.7462 52.7571C82.6541 52.9807 82.47 53.0465 82.1938 52.9412V52.9544ZM83.6932 52.4283C83.5485 52.6256 83.2592 52.7176 82.812 52.7308V52.6519C83.1013 52.4283 83.4039 52.3625 83.6932 52.4283C83.6932 52.2573 83.7853 52.1652 83.9826 52.1652H84.2457C84.193 52.3362 84.0089 52.4283 83.6932 52.4283ZM88.6783 50.7578C88.6783 50.7578 88.5073 50.8104 88.3363 50.8499C88.1521 50.8893 88.0206 50.9683 87.9548 51.0866C87.8365 51.1392 87.7575 51.1787 87.7312 51.1919C87.3893 51.2445 86.9157 51.3892 86.3238 51.6391C85.7188 51.889 85.2848 52.0468 85.0217 52.1257C84.9691 52.1257 84.8902 52.1389 84.7586 52.1784C84.6403 52.2178 84.5613 52.231 84.5219 52.231C84.4824 52.231 84.4035 52.2047 84.2851 52.152C84.2851 52.06 84.364 51.9811 84.535 51.9284C84.7323 51.8495 85.0217 51.7443 85.4163 51.6128C85.8109 51.4812 86.0739 51.3892 86.2186 51.3365C86.3107 51.3365 86.4817 51.2839 86.7316 51.1919C86.85 51.1129 86.9815 51.0866 87.0999 51.0866C87.2446 51.0866 87.3366 51.034 87.3761 50.9156C87.4156 50.8104 87.4419 50.7447 87.4682 50.7447C87.5602 50.7184 87.7049 50.6657 87.8891 50.5737C88.0732 50.4816 88.2311 50.429 88.3626 50.4027C88.4941 50.3764 88.6388 50.3764 88.7835 50.4027C88.8624 50.4553 88.9545 50.4027 89.0729 50.2975C89.3885 50.1659 89.6516 50.087 89.9147 50.0344C89.8094 50.1396 89.7174 50.258 89.6121 50.3764C89.1649 50.5868 88.8361 50.7052 88.6651 50.7447L88.6783 50.7578ZM122.258 52.2704C121.114 53.3095 119.917 54.125 118.667 54.7432C118.128 54.9405 117.786 55.0194 117.642 54.9668H117.05C116.734 54.8747 116.616 54.7169 116.721 54.4933C116.813 54.296 116.944 53.9803 117.102 53.5594C117.26 53.1254 117.392 52.8229 117.484 52.6256C117.826 52.0337 118.181 51.3497 118.536 50.5605C118.562 50.4684 118.838 49.9423 119.378 49.0084C119.43 48.8375 119.549 48.8506 119.746 49.0479C120.654 50.1265 121.706 50.771 122.876 50.9814C122.903 51.034 122.942 51.0735 122.982 51.0866L123.061 51.1261C123.061 51.1261 123.14 51.1524 123.166 51.2182C123.192 51.2839 123.192 51.3365 123.166 51.3892C123.021 51.4944 122.719 51.7838 122.245 52.2704H122.258ZM125.283 47.4827C125.257 48.1009 125.02 48.798 124.56 49.574C124.442 49.8239 124.192 49.916 123.823 49.8765C122.863 49.7056 122.219 49.5477 121.877 49.403C121.193 49.1663 120.772 48.9427 120.627 48.7454C120.601 48.6928 120.562 48.6402 120.496 48.5612C120.43 48.4823 120.391 48.4429 120.364 48.4165C120.167 48.2719 120.167 48.1272 120.364 47.9825L121.167 47.2459C121.995 46.6014 122.469 46.2463 122.6 46.1805C122.942 45.8911 123.416 45.5755 124.034 45.2598H124.258C124.429 45.3782 124.534 45.4702 124.547 45.5097C125.191 46.049 125.428 46.7066 125.283 47.4958V47.4827ZM134.57 51.4418C134.57 51.4418 134.649 51.4418 134.649 51.4812C134.596 51.5338 134.53 51.5733 134.451 51.6128C134.359 51.6522 134.307 51.6785 134.28 51.7048L134.241 51.6259V51.5865C134.32 51.4944 134.425 51.4418 134.57 51.4418ZM134.004 55.7034C134.004 55.7034 133.872 55.8218 133.754 55.9007C133.636 55.9928 133.544 56.0717 133.504 56.1374C133.162 56.5847 132.57 56.8872 131.742 57.0582C131.663 57.0582 131.571 57.0713 131.465 57.1108C131.36 57.1502 131.281 57.1634 131.229 57.1634C130.808 57.2686 130.413 57.2686 130.019 57.1634C129.927 57.1371 129.769 57.0976 129.558 57.0582C129.348 57.0056 129.203 56.9661 129.137 56.9135C129.019 56.9135 128.98 56.874 129.032 56.8083C129.032 56.7819 129.058 56.7293 129.111 56.6636L129.19 56.5583C129.677 55.9665 130.282 55.4929 130.979 55.1247C131.913 54.6248 132.715 54.0592 133.399 53.4279C133.649 53.2306 134.201 52.8755 135.083 52.3493C135.385 53.5463 135.03 54.6643 134.03 55.7034H134.004ZM135.898 50.6657C135.951 50.3764 136.135 50.2448 136.451 50.2975C136.372 50.5474 136.201 50.6657 135.898 50.6657ZM136.49 50.258C136.635 50.0081 136.924 49.8239 137.371 49.7056C137.148 50.0738 136.858 50.258 136.49 50.258ZM139.239 49.1137C139.094 49.482 138.844 49.6003 138.502 49.482V49.3373H138.134V49.482H138.463C138.463 49.6266 138.358 49.7056 138.134 49.7056V49.482L137.95 49.7056H137.398C137.49 49.4688 137.74 49.3373 138.134 49.3373C138.226 49.0479 138.489 48.9295 138.91 49.0084V49.1137C138.687 49.1137 138.555 49.1926 138.502 49.3373C138.765 49.3373 138.923 49.2583 138.936 49.1137H139.226C139.278 48.969 139.423 48.9295 139.66 48.9953C139.607 49.0742 139.463 49.1005 139.226 49.1005L139.239 49.1137ZM139.857 48.9427C139.778 48.9821 139.726 48.969 139.673 48.9295C139.699 48.7585 139.791 48.6928 139.962 48.7454C139.962 48.8375 139.923 48.9164 139.857 48.9427ZM140.738 48.4034C140.712 48.5481 140.594 48.6007 140.37 48.5481C140.396 48.456 140.515 48.4034 140.738 48.4034C140.791 48.2324 140.923 48.1403 141.146 48.1403C141.094 48.3113 140.962 48.4034 140.738 48.4034ZM141.58 47.9562V47.8115H140.988C141.159 47.5221 141.383 47.3906 141.646 47.4432C141.593 47.5879 141.567 47.7194 141.58 47.8115H141.87C141.817 47.9036 141.725 47.9562 141.58 47.9562Z" fill="white"/>
<path d="M145.802 46.1017C145.526 45.9044 145.276 45.8255 145.026 45.8518C144.342 46.0228 143.711 46.2333 143.158 46.4832C143.106 46.5358 143.08 46.5753 143.08 46.6279C143.132 46.7462 143.132 46.8383 143.08 46.8909C142.987 47.0093 142.83 47.0751 142.646 47.0751V47.1803H143.158C143.237 47.1014 143.422 47.0751 143.75 47.0619C143.829 46.9435 143.948 46.8778 144.119 46.8778H144.158C144.184 46.7989 144.224 46.7462 144.29 46.7068C144.355 46.6673 144.408 46.6805 144.461 46.7199C144.605 46.8383 144.829 46.8515 145.118 46.7594L145.71 46.6147L146 46.47C146.052 46.3517 145.986 46.2201 145.815 46.1017H145.802Z" fill="white"/>
</g>
<defs>
<clipPath id="clip0_165_420">
<rect width="146" height="58.2159" fill="white" transform="translate(0 0.683838)"/>
</clipPath>
</defs>
</svg>
