<svg width="121" height="104" viewBox="0 0 121 104" fill="none" xmlns="http://www.w3.org/2000/svg">
<g clip-path="url(#clip0_165_692)">
<path d="M5.77341 69.5855V83.4815H0.749023V60.4841H5.78777L13.8411 75.2128L22.0381 60.4841H26.9333V83.4815H21.9089V69.6572L13.8986 84.1993L5.77341 69.5998V69.5855Z" fill="white"/>
<path d="M41.6904 59.4937L54.883 83.4815H49.471L47.1454 79.1462H36.1635L33.8523 83.4815H28.3398L41.7047 59.4937H41.6904ZM44.8916 74.9688L41.6329 68.8964L38.3886 74.9688H44.8916Z" fill="white"/>
<path d="M55.2852 68.7097H60.7258V74.0212H55.2852V68.7097Z" fill="white"/>
<path d="M66.0371 60.4841H71.0902V69.1261H81.9716V60.4841H87.0247V83.4815H81.9716L81.9142 73.6624H71.0902V83.4815H66.0371V60.4841Z" fill="white"/>
<path d="M90.5277 72.2125V60.4841H95.5808V72.2125C95.5808 76.5765 97.2891 79.1031 101.423 79.1031C105.558 79.1031 107.266 76.5765 107.266 72.2412V60.4841H112.377V72.2412C112.377 79.3184 108.587 83.7829 101.409 83.7829C94.2314 83.7829 90.499 79.3471 90.499 72.2125H90.5277Z" fill="white"/>
<path d="M115.923 60.4841H120.976V83.4815H115.923V60.4841Z" fill="white"/>
<path d="M12.865 92.8269L18.4206 103.12H16.7697L15.6212 100.952H10.0514L8.88857 103.12H7.20898L12.8507 92.8269H12.865ZM14.9465 99.6744L12.8507 95.698L10.7404 99.6744H14.9465Z" fill="white"/>
<path d="M24.8659 98.1815C24.8659 95.3247 27.1197 93.0422 30.1343 93.0422C31.8283 93.0422 33.2638 93.7313 34.24 94.8079L33.0629 95.7267C32.3594 94.9372 31.3258 94.4634 30.12 94.4634C27.9954 94.4634 26.3732 96.0569 26.3732 98.1671C26.3732 100.277 28.0097 101.856 30.1487 101.856C31.2541 101.856 32.3881 101.368 33.1346 100.464V98.1097H34.6707V100.952C33.6658 102.316 32.0149 103.278 30.1487 103.278C27.1197 103.278 24.8516 101.009 24.8516 98.1671L24.8659 98.1815Z" fill="white"/>
<path d="M43.1836 93.2146H50.9212V94.6071H44.7053V97.1336H49.2272V98.4974H44.7053V101.713H50.9355V103.105H43.1836V93.2146Z" fill="white"/>
<path d="M59.3044 93.2146H60.8261L66.9271 100.895V93.2146H68.4488V103.105H66.9271L60.8261 95.4397V103.105H59.29V93.2146H59.3044Z" fill="white"/>
<path d="M76.8474 98.1672C76.8474 95.2961 79.1299 93.0566 82.1158 93.0566C83.7236 93.0566 85.1591 93.7026 86.1784 94.808L85.0012 95.7267C84.2547 94.9228 83.2212 94.4778 82.1014 94.4778C80.0055 94.4778 78.3547 96.0282 78.3547 98.1528C78.3547 100.277 79.9912 101.842 82.1014 101.842C83.2642 101.842 84.2691 101.397 85.0299 100.579L86.2214 101.483C85.1735 102.632 83.7523 103.278 82.1014 103.278C79.1012 103.278 76.833 101.038 76.833 98.1672H76.8474Z" fill="white"/>
<path d="M94.3027 93.2146H95.8388V103.105H94.3027V93.2146Z" fill="white"/>
<path d="M108.931 92.8269L114.487 103.12H112.836L111.688 100.952H106.118L104.955 103.12H103.275L108.917 92.8269H108.931ZM111.013 99.6744L108.917 95.698L106.807 99.6744H111.013Z" fill="white"/>
<path d="M48.3088 43.631C47.8925 43.5161 47.4762 43.7602 47.3613 44.1621C47.3326 44.2626 46.7153 46.5451 46.6436 50.0335C46.6436 50.4642 46.9737 50.8087 47.39 50.823C47.39 50.823 47.39 50.823 47.4044 50.823C47.8207 50.823 48.1652 50.4929 48.1796 50.0766C48.2514 46.8035 48.8399 44.6072 48.8543 44.5784C48.9691 44.1621 48.7251 43.7458 48.3231 43.631H48.3088Z" fill="white"/>
<path d="M73.4015 43.631C72.9851 43.7459 72.7555 44.1622 72.8703 44.5785C72.8703 44.6072 73.4732 46.7892 73.545 50.0766C73.545 50.4929 73.8895 50.8231 74.3202 50.8231C74.3202 50.8231 74.3202 50.8231 74.3346 50.8231C74.7652 50.8231 75.0954 50.4642 75.081 50.0336C75.0093 46.5452 74.3776 44.2483 74.3633 44.1622C74.2484 43.7459 73.8321 43.5162 73.4158 43.631H73.4015Z" fill="white"/>
<path d="M81.3834 43.674C82.2878 42.8844 82.8907 41.7216 82.8907 40.4297C82.8907 38.1902 80.924 35.8216 77.3064 35.8216L74.2057 35.7785C74.421 35.1325 74.5789 34.2856 74.3779 33.4386C74.2057 32.7352 73.8181 32.161 73.2295 31.6872C76.0719 28.6439 77.8232 24.5669 77.8232 20.0881C77.8232 14.2167 74.823 9.0344 70.2867 5.9767L71.7365 1.26813C71.8657 0.866181 71.6361 0.435519 71.2341 0.30632C70.8322 0.177121 70.4015 0.406808 70.2723 0.808759L68.9372 5.14409C66.5255 3.82339 63.7549 3.07691 60.8264 3.07691C57.8979 3.07691 55.0986 3.83775 52.6726 5.1728L51.3232 0.808759C51.194 0.406808 50.7633 0.177121 50.3614 0.30632C49.9594 0.435519 49.7297 0.866181 49.8589 1.26813L51.3232 6.00541C46.8012 9.06312 43.8297 14.2311 43.8297 20.0881C43.8297 24.5669 45.581 28.6439 48.4234 31.6872C47.8348 32.161 47.4472 32.7352 47.2749 33.4386C47.0596 34.2856 47.2175 35.1182 47.4472 35.7785L44.4469 35.8216C40.815 35.8216 38.8483 38.1902 38.8483 40.4297C38.8483 41.7073 39.4369 42.8844 40.3556 43.674C37.8578 44.7219 36.1064 47.1911 36.1064 50.0478C36.1064 50.4784 36.451 50.823 36.8816 50.823C37.3123 50.823 37.6568 50.4784 37.6568 50.0478C37.6568 47.0762 40.0685 44.6645 43.0401 44.6645V43.1285H43.0114C41.6046 43.1285 40.4131 41.8939 40.4131 40.4297C40.4131 38.9654 41.8342 37.3576 44.4756 37.3576L48.366 37.3145C49.3852 38.1759 53.4908 41.2049 60.8264 41.2049H60.8839C68.2338 41.2049 72.3395 38.1759 73.3444 37.3145L77.3352 37.372C79.9622 37.372 81.3834 38.9511 81.3834 40.444C81.3834 41.937 80.1919 43.1428 78.785 43.1428H78.7563V44.6789C81.7279 44.6789 84.1396 47.0906 84.1396 50.0621C84.1396 50.4928 84.4841 50.8373 84.9148 50.8373C85.3455 50.8373 85.69 50.4928 85.69 50.0621C85.69 47.1911 83.9386 44.7219 81.4408 43.6883L81.3834 43.674ZM45.3513 20.1024C45.3513 14.9488 47.8922 10.3695 51.7825 7.57015L53.1032 11.8481C53.2037 12.1782 53.5052 12.3936 53.8354 12.3936C53.9071 12.3936 53.9933 12.3936 54.0651 12.3649C54.467 12.2357 54.6967 11.805 54.5675 11.403L53.1176 6.70883C55.3857 5.40249 58.0128 4.65601 60.8121 4.65601C63.6114 4.65601 66.2097 5.40249 68.4635 6.69447L67.0136 11.403C66.8844 11.805 67.1141 12.2357 67.5161 12.3649C67.5878 12.3936 67.674 12.3936 67.7457 12.3936C68.0759 12.3936 68.3774 12.1782 68.4779 11.8481L69.8129 7.54144C73.7319 10.3551 76.2872 14.9345 76.2872 20.1168C76.2872 25.2991 73.531 30.223 69.3679 32.9936L67.4012 30.4383C67.1859 30.1225 66.7552 30.0076 66.3963 30.2086C64.7024 31.1417 62.7788 31.6442 60.8264 31.6442C58.8741 31.6442 56.9792 31.1561 55.2853 30.223C54.9982 30.0651 54.6393 30.1081 54.4096 30.3235C54.3809 30.3522 54.3378 30.3809 54.3091 30.424L52.3137 33.0079C48.1219 30.2373 45.3657 25.4857 45.3657 20.1024H45.3513ZM68.0329 33.7688C65.8795 34.9172 63.4248 35.5632 60.8121 35.5632C58.1994 35.5632 55.7877 34.9172 53.6344 33.7831L55.1274 31.8451C56.8931 32.6921 58.8454 33.1515 60.8121 33.1515C62.7788 33.1515 64.7598 32.6921 66.5399 31.8308L68.0329 33.7688ZM72.4113 36.0513C72.1529 36.2666 71.2198 37.0561 69.5832 37.8313C67.8175 38.664 64.8747 39.6688 60.8408 39.6688H60.7834C56.7495 39.6688 53.7923 38.664 52.0409 37.8313C50.4188 37.0561 49.4713 36.2666 49.2129 36.0513C49.055 35.7642 48.5239 34.7306 48.7536 33.8262C48.854 33.4099 49.1124 33.0797 49.5144 32.7926C50.2609 33.4529 51.0504 34.0559 51.8974 34.5727C51.9261 34.6014 51.9548 34.6301 51.9979 34.6588C52.084 34.7306 52.1845 34.7736 52.285 34.788C54.7972 36.2522 57.7113 37.0992 60.8264 37.0992C63.9416 37.0992 66.827 36.2666 69.3392 34.8023C69.4684 34.788 69.5976 34.7306 69.6981 34.6444C69.7555 34.6014 69.7986 34.544 69.8416 34.4865C70.6455 33.9841 71.4207 33.4099 72.1241 32.7782C72.5261 33.051 72.7845 33.3955 72.885 33.8118C73.1147 34.7306 72.5835 35.7642 72.4256 36.0513H72.4113Z" fill="white"/>
</g>
<defs>
<clipPath id="clip0_165_692">
<rect width="120.226" height="103" fill="white" transform="translate(0.749023 0.291992)"/>
</clipPath>
</defs>
</svg>
