<svg width="147" height="39" viewBox="0 0 147 39" fill="none" xmlns="http://www.w3.org/2000/svg">
<g clip-path="url(#clip0_165_753)">
<path d="M22.4594 30.4465H23.7364V35.98H22.4594V35.3947C21.9273 35.8869 21.3687 36.1263 20.7568 36.1263C19.9986 36.1263 19.3601 35.847 18.8679 35.3016C18.3758 34.743 18.123 34.038 18.123 33.1866C18.123 32.3353 18.3758 31.6702 18.8679 31.1116C19.3601 30.5529 19.9853 30.2869 20.7302 30.2869C21.3687 30.2869 21.9539 30.5529 22.4594 31.085V30.4465ZM19.4266 33.1999C19.4266 33.732 19.5729 34.1577 19.8523 34.4902C20.1449 34.8228 20.5041 34.9957 20.9563 34.9957C21.4352 34.9957 21.8076 34.8361 22.1003 34.5035C22.3929 34.171 22.5392 33.7453 22.5392 33.2266C22.5392 32.7078 22.3929 32.2821 22.1003 31.9496C21.8076 31.617 21.4352 31.4574 20.9696 31.4574C20.5307 31.4574 20.1582 31.6303 19.8656 31.9629C19.5729 32.2954 19.4266 32.7211 19.4266 33.2133V33.1999Z" fill="white"/>
<path d="M32.1559 31.391L31.1051 31.9497C30.9322 31.6039 30.7326 31.4442 30.4799 31.4442C30.3602 31.4442 30.2671 31.4841 30.174 31.564C30.0942 31.6438 30.0543 31.7369 30.0543 31.8566C30.0543 32.0694 30.2937 32.2823 30.7858 32.4818C31.4642 32.7744 31.9165 33.0405 32.1559 33.2932C32.3954 33.5326 32.5018 33.8652 32.5018 34.2908C32.5018 34.8229 32.3022 35.2751 31.9165 35.6343C31.5307 35.9801 31.0785 36.1398 30.5331 36.1398C29.602 36.1398 28.9502 35.6875 28.5645 34.783L29.6552 34.2775C29.8015 34.5436 29.9212 34.7165 30.001 34.783C30.1607 34.9293 30.3469 34.9958 30.5597 34.9958C30.9854 34.9958 31.2115 34.7963 31.2115 34.4105C31.2115 34.1844 31.0386 33.9716 30.706 33.7721C30.573 33.7055 30.4533 33.639 30.3203 33.5858C30.1873 33.5193 30.0676 33.4661 29.9345 33.3996C29.5621 33.2134 29.3094 33.0405 29.1497 32.8542C28.9502 32.6281 28.8571 32.3222 28.8571 31.963C28.8571 31.4841 29.0167 31.0851 29.3493 30.7659C29.6818 30.4466 30.0942 30.3003 30.573 30.3003C31.278 30.3003 31.8101 30.6594 32.1559 31.391Z" fill="white"/>
<path d="M33.6594 30.4465H34.9364V30.952C35.1758 30.6992 35.3886 30.5263 35.5616 30.4332C35.7478 30.3401 35.9739 30.2869 36.2533 30.2869C36.8784 30.2869 37.3706 30.5529 37.7298 31.0983C38.1288 30.5529 38.6742 30.2869 39.3526 30.2869C40.6029 30.2869 41.2148 31.0451 41.2148 32.5482V35.9667H39.9378V32.894C39.9378 32.3619 39.8713 31.9895 39.7383 31.7767C39.6053 31.5505 39.3925 31.4441 39.0865 31.4441C38.7407 31.4441 38.4746 31.5771 38.315 31.8432C38.1554 32.1092 38.0756 32.5349 38.0756 33.1201V35.98H36.7986V32.9206C36.7986 31.9363 36.5193 31.4441 35.9473 31.4441C35.5882 31.4441 35.3221 31.5771 35.1625 31.8432C35.0029 32.1092 34.9098 32.5349 34.9098 33.1201V35.98H33.6328V30.4465H33.6594Z" fill="white"/>
<path d="M46.934 30.4465H48.211V35.98H46.934V35.3947C46.402 35.8869 45.8433 36.1263 45.2314 36.1263C44.4732 36.1263 43.8347 35.847 43.3426 35.3016C42.8504 34.743 42.5977 34.038 42.5977 33.1866C42.5977 32.3353 42.8504 31.6702 43.3426 31.1116C43.8347 30.5529 44.4599 30.2869 45.2048 30.2869C45.8433 30.2869 46.4286 30.5529 46.934 31.085V30.4465ZM43.9012 33.1999C43.9012 33.732 44.0475 34.1577 44.3269 34.4902C44.6195 34.8228 44.9787 34.9957 45.4309 34.9957C45.9098 34.9957 46.2822 34.8361 46.5749 34.5035C46.8675 34.171 47.0138 33.7453 47.0138 33.2266C47.0138 32.7078 46.8675 32.2821 46.5749 31.9496C46.2822 31.617 45.9098 31.4574 45.4442 31.4574C45.0053 31.4574 44.6328 31.6303 44.3402 31.9629C44.0475 32.2954 43.9012 32.7211 43.9012 33.2133V33.1999Z" fill="white"/>
<path d="M49.8209 30.4465H51.0979V30.9387C51.3373 30.6992 51.5368 30.5263 51.7231 30.4332C51.9093 30.3401 52.1221 30.2869 52.3749 30.2869C52.7074 30.2869 53.0665 30.3933 53.4257 30.6194L52.8404 31.79C52.601 31.617 52.3616 31.5239 52.1354 31.5239C51.4437 31.5239 51.0846 32.056 51.0846 33.1068V35.9667H49.8076V30.4332L49.8209 30.4465Z" fill="white"/>
<path d="M55.9132 31.6436V35.98H54.6362V31.6436H54.0908V30.4464H54.6362V28.4246H55.9132V30.4464H56.9108V31.6436H55.9132Z" fill="white"/>
<path d="M62.045 30.4466L63.4949 33.5991L65.0512 29.9412L66.6208 33.5991L68.0574 30.4466H69.494L66.5942 36.3925L65.0512 32.8276L63.4949 36.3925L60.6084 30.4466H62.045Z" fill="white"/>
<path d="M74.2432 30.4465H75.5202V35.98H74.2432V35.3947C73.7112 35.8869 73.1525 36.1263 72.5406 36.1263C71.7824 36.1263 71.1439 35.847 70.6384 35.3016C70.1463 34.743 69.8936 34.038 69.8936 33.1866C69.8936 32.3353 70.1463 31.6702 70.6384 31.1116C71.1306 30.5529 71.7558 30.2869 72.5007 30.2869C73.1392 30.2869 73.7245 30.5529 74.2299 31.085V30.4465H74.2432ZM71.2104 33.1999C71.2104 33.732 71.3567 34.1577 71.6361 34.4902C71.9287 34.8228 72.2879 34.9957 72.7401 34.9957C73.219 34.9957 73.5914 34.8361 73.8841 34.5035C74.1767 34.171 74.323 33.7453 74.323 33.2266C74.323 32.7078 74.1767 32.2821 73.8841 31.9496C73.5914 31.617 73.219 31.4574 72.7534 31.4574C72.3145 31.4574 71.942 31.6303 71.6494 31.9629C71.3567 32.2954 71.2104 32.7211 71.2104 33.2133V33.1999Z" fill="white"/>
<path d="M78.9786 34.956L76.4912 30.46H77.9677L79.657 33.6391L81.2399 30.46H82.6765L78.2736 38.9997H76.8105L78.9653 34.9693L78.9786 34.956Z" fill="white"/>
<path d="M88.463 31.6436V35.98H87.186V31.6436H86.6406V30.4464H87.186V28.4246H88.463V30.4464H89.4606V31.6436H88.463Z" fill="white"/>
<path d="M90.1387 33.1735C90.1387 32.3754 90.418 31.697 90.99 31.1383C91.562 30.5796 92.2536 30.3003 93.0784 30.3003C93.9031 30.3003 94.6081 30.5796 95.18 31.1516C95.752 31.7103 96.0313 32.402 96.0313 33.2267C96.0313 34.0514 95.752 34.7431 95.18 35.3151C94.6081 35.8737 93.9031 36.1531 93.0651 36.1531C92.2271 36.1531 91.5487 35.8737 90.9767 35.3018C90.418 34.7431 90.1387 34.0381 90.1387 33.1868V33.1735ZM91.4422 33.2001C91.4422 33.7587 91.5886 34.1844 91.8812 34.5169C92.1871 34.8362 92.5862 35.0091 93.0784 35.0091C93.5705 35.0091 93.9829 34.8495 94.2755 34.5302C94.5682 34.211 94.7278 33.7854 94.7278 33.24C94.7278 32.6946 94.5815 32.269 94.2755 31.9497C93.9696 31.6305 93.5705 31.4575 93.0784 31.4575C92.5862 31.4575 92.2004 31.6172 91.8945 31.9497C91.5886 32.2823 91.4422 32.6946 91.4422 33.2134V33.2001Z" fill="white"/>
<path d="M100.966 30.4465H102.243V30.952C102.482 30.6992 102.695 30.5263 102.868 30.4332C103.054 30.3401 103.281 30.2869 103.56 30.2869C104.185 30.2869 104.677 30.5529 105.036 31.0983C105.435 30.5529 105.981 30.2869 106.659 30.2869C107.91 30.2869 108.521 31.0451 108.521 32.5482V35.9667H107.244V32.894C107.244 32.3619 107.178 31.9895 107.045 31.7767C106.912 31.5505 106.699 31.4441 106.393 31.4441C106.047 31.4441 105.781 31.5771 105.622 31.8432C105.462 32.1092 105.382 32.5349 105.382 33.1201V35.98H104.105V32.9206C104.105 31.9363 103.826 31.4441 103.254 31.4441C102.895 31.4441 102.629 31.5771 102.469 31.8432C102.31 32.1092 102.216 32.5349 102.216 33.1201V35.98H100.939V30.4465H100.966Z" fill="white"/>
<path d="M109.905 33.1735C109.905 32.3754 110.185 31.697 110.757 31.1383C111.329 30.5796 112.02 30.3003 112.845 30.3003C113.67 30.3003 114.375 30.5796 114.947 31.1516C115.519 31.7103 115.798 32.402 115.798 33.2267C115.798 34.0514 115.519 34.7431 114.947 35.3151C114.375 35.8737 113.67 36.1531 112.832 36.1531C111.994 36.1531 111.315 35.8737 110.743 35.3018C110.185 34.7431 109.905 34.0381 109.905 33.1868V33.1735ZM111.209 33.2001C111.209 33.7587 111.355 34.1844 111.648 34.5169C111.954 34.8362 112.353 35.0091 112.845 35.0091C113.337 35.0091 113.749 34.8495 114.042 34.5302C114.335 34.211 114.494 33.7854 114.494 33.24C114.494 32.6946 114.348 32.269 114.042 31.9497C113.736 31.6305 113.337 31.4575 112.845 31.4575C112.353 31.4575 111.967 31.6172 111.661 31.9497C111.355 32.2823 111.209 32.6946 111.209 33.2134V33.2001Z" fill="white"/>
<path d="M117.607 30.4465L119.043 33.5458L120.467 30.4465H121.903L119.03 36.3525L116.184 30.4465H117.62H117.607Z" fill="white"/>
<path d="M127.596 33.5193H123.633C123.672 33.9716 123.819 34.3307 124.072 34.5968C124.338 34.8628 124.67 34.9958 125.082 34.9958C125.402 34.9958 125.668 34.916 125.867 34.7697C126.067 34.6234 126.306 34.344 126.559 33.9317L127.636 34.5302C127.463 34.8096 127.291 35.0623 127.104 35.2618C126.918 35.4614 126.719 35.6343 126.506 35.7673C126.293 35.9003 126.067 35.9934 125.814 36.06C125.575 36.1265 125.295 36.1531 125.016 36.1531C124.191 36.1531 123.526 35.887 123.034 35.355C122.529 34.8229 122.289 34.1179 122.289 33.2267C122.289 32.3355 122.528 31.6438 123.021 31.0984C123.513 30.5663 124.151 30.3003 124.963 30.3003C125.774 30.3003 126.426 30.553 126.891 31.0718C127.357 31.5906 127.596 32.2956 127.596 33.2134V33.5193ZM126.28 32.4685C126.107 31.7901 125.668 31.4442 124.989 31.4442C124.83 31.4442 124.683 31.4708 124.55 31.5108C124.417 31.564 124.284 31.6305 124.178 31.7103C124.072 31.8034 123.965 31.9098 123.885 32.0295C123.805 32.1492 123.739 32.2956 123.699 32.4552H126.266L126.28 32.4685Z" fill="white"/>
<path d="M87.5844 2.04724L72.1943 24.6469H66.7139C65.5434 24.6469 64.8251 24.1281 64.5591 23.0773L64.5059 2.03394H69.2546V6.82256V20.4702L82.2371 2.04724H87.5977" fill="white"/>
<path d="M31.2251 24.647H35.9872L35.9339 3.53714C35.6679 2.4863 34.9496 1.96753 33.7791 1.96753H28.2854L20.903 15.0298L20.8764 3.53714C20.6103 2.4863 19.892 1.96753 18.7215 1.96753H13.2279L0.21875 24.3544H5.65917L16.1675 6.62314V24.647H20.9296L31.2251 6.62314V24.647Z" fill="white"/>
<path d="M93.6373 24.647H88.8486V2.04736H93.6373V24.647Z" fill="white"/>
<path d="M133.21 2.80542C127.198 2.80542 122.329 7.67386 122.329 13.6863C122.329 19.6986 127.198 24.5671 133.21 24.5671C139.222 24.5671 144.091 19.6986 144.091 13.6863C144.091 7.67386 139.222 2.80542 133.21 2.80542ZM131.507 12.7019C131.374 12.9414 131.068 13.0212 130.829 12.8881C130.589 12.7551 130.51 12.4492 130.643 12.2098C130.776 11.9703 131.082 11.8905 131.321 12.0235C131.561 12.1565 131.64 12.4625 131.507 12.7019ZM131.321 15.349C131.082 15.482 130.776 15.4022 130.643 15.1627C130.51 14.9233 130.589 14.6174 130.829 14.4844C131.068 14.3513 131.374 14.4311 131.507 14.6706C131.64 14.91 131.561 15.216 131.321 15.349ZM131.068 11.1589H127.49C126.772 11.1589 126.333 10.3741 126.705 9.74893C127.49 8.45866 128.647 7.42113 130.031 6.78264C130.55 6.54321 131.161 6.83585 131.308 7.39452L131.96 10.015C132.106 10.6002 131.667 11.1589 131.068 11.1589ZM126.825 12.1832L129.419 12.9281C129.991 13.0877 130.257 13.7528 129.964 14.2715L128.182 17.3708C127.823 17.996 126.918 17.9827 126.572 17.3442C125.841 16.0274 125.522 14.4977 125.668 12.9813C125.721 12.4093 126.28 12.0235 126.838 12.1832H126.825ZM128.727 18.4616L130.669 16.586C131.095 16.1737 131.8 16.2668 132.106 16.7856L133.888 19.8849C134.247 20.51 133.782 21.2815 133.064 21.2682C131.561 21.2416 130.071 20.7495 128.834 19.8716C128.368 19.539 128.315 18.8606 128.727 18.4616ZM132.718 16.1471C132.718 15.8677 132.944 15.6549 133.21 15.6549C133.476 15.6549 133.702 15.881 133.702 16.1471C133.702 16.4131 133.476 16.6392 133.21 16.6392C132.944 16.6392 132.718 16.4131 132.718 16.1471ZM133.21 15.2692C132.332 15.2692 131.614 14.5509 131.614 13.6729C131.614 12.795 132.332 12.0767 133.21 12.0767C134.088 12.0767 134.806 12.795 134.806 13.6729C134.806 14.5509 134.088 15.2692 133.21 15.2692ZM135.591 12.8748C135.352 13.0079 135.046 12.9281 134.913 12.6886C134.78 12.4492 134.859 12.1432 135.099 12.0102C135.338 11.8772 135.644 11.957 135.777 12.1965C135.91 12.4359 135.83 12.7418 135.591 12.8748ZM135.777 15.1627C135.644 15.4022 135.338 15.482 135.099 15.349C134.859 15.216 134.78 14.91 134.913 14.6706C135.046 14.4311 135.352 14.3513 135.591 14.4844C135.83 14.6174 135.91 14.9233 135.777 15.1627ZM135.764 10.7732C135.338 11.1855 134.633 11.0924 134.327 10.5736L132.545 7.47433C132.186 6.84915 132.651 6.07765 133.37 6.09095C134.873 6.11756 136.362 6.60972 137.6 7.48764C138.065 7.82018 138.118 8.49857 137.706 8.89762L135.764 10.7732ZM133.715 11.2254C133.715 11.5048 133.489 11.7176 133.223 11.7176C132.957 11.7176 132.731 11.4915 132.731 11.2254C132.731 10.9594 132.957 10.7333 133.223 10.7333C133.489 10.7333 133.715 10.9594 133.715 11.2254ZM135.365 16.2136H138.93C139.648 16.2136 140.087 16.9984 139.714 17.6236C138.93 18.9138 137.772 19.9514 136.389 20.5899C135.87 20.8293 135.258 20.5366 135.112 19.978L134.46 17.3575C134.314 16.7723 134.753 16.2136 135.352 16.2136H135.365ZM139.608 15.1893L137.014 14.4444C136.442 14.2848 136.176 13.6197 136.469 13.101L138.251 10.0017C138.61 9.37648 139.515 9.38979 139.861 10.0283C140.592 11.3451 140.912 12.8748 140.765 14.3912C140.712 14.9632 140.153 15.349 139.595 15.1893H139.608Z" fill="white"/>
<path d="M50.3661 1.26245C43.5423 1.26245 38.0088 6.79598 38.0088 13.6198C38.0088 20.4436 43.5423 25.9771 50.3661 25.9771C57.1899 25.9771 62.7234 20.4436 62.7234 13.6198C62.7234 6.79598 57.1899 1.26245 50.3661 1.26245ZM50.3661 21.3481C46.0963 21.3481 42.6378 17.8896 42.6378 13.6198C42.6378 9.34991 46.0963 5.89146 50.3661 5.89146C54.636 5.89146 58.0944 9.34991 58.0944 13.6198C58.0944 17.8896 54.636 21.3481 50.3661 21.3481Z" fill="white" stroke="white" stroke-miterlimit="10"/>
<path d="M133.196 1.26245C126.372 1.26245 120.839 6.79598 120.839 13.6198C120.839 20.4436 126.372 25.9771 133.196 25.9771C140.02 25.9771 145.554 20.4436 145.554 13.6198C145.554 6.79598 140.02 1.26245 133.196 1.26245ZM133.196 21.3481C128.926 21.3481 125.468 17.8896 125.468 13.6198C125.468 9.34991 128.926 5.89146 133.196 5.89146C137.466 5.89146 140.925 9.34991 140.925 13.6198C140.925 17.8896 137.466 21.3481 133.196 21.3481Z" fill="white" stroke="white" stroke-miterlimit="10"/>
<path d="M106.593 2.02075C100.368 2.02075 95.2998 7.08872 95.2998 13.3139C95.2998 19.5392 100.368 24.6071 106.593 24.6071H117.766C118.578 24.6071 119.975 24.1549 119.975 22.2394V21.5743V12.7686C119.975 11.6645 119.456 11.1058 118.418 11.1058H103.387V15.2959H115.292V19.9914H106.686C103.041 19.9914 100.075 17.0251 100.075 13.3804C100.075 9.73577 103.041 6.72957 106.686 6.72957H119.975V2.02075H106.593Z" fill="white"/>
</g>
<defs>
<clipPath id="clip0_165_753">
<rect width="146" height="38.3888" fill="white" transform="translate(0.21875 0.597412)"/>
</clipPath>
</defs>
</svg>
