<svg width="146" height="71" viewBox="0 0 146 71" fill="none" xmlns="http://www.w3.org/2000/svg">
<g clip-path="url(#clip0_165_431)">
<path d="M27.4149 27.8428C27.4149 27.8428 28.9176 27.8657 29.8696 27.8657C35.3297 27.8657 38.1286 23.048 37.8648 16.0279C37.7501 12.9537 37.5436 1.62061 30.3858 3.69682C15.5312 8.0213 9.49755 13.642 9.49755 13.642L9.27961 15.6952C15.4968 15.6952 16.0588 16.8767 16.0588 16.8767C16.0588 25.1472 17.3665 28.4622 12.6291 33.8649C9.66961 37.2374 3.89982 37.9371 -0.0117188 37.9944C0.378288 40.4492 0.963297 40.9998 1.39919 41.8716C9.26814 41.493 12.0555 40.1739 15.5771 37.1915C19.8327 33.5896 20.716 28.5425 20.716 28.5425C20.716 28.5425 34.6185 35.1382 38.4154 55.6365C39.5969 55.6365 43.2905 55.6365 43.2905 55.6365C36.9471 33.6126 27.4034 27.8543 27.4034 27.8543L27.4149 27.8428ZM19.9933 12.839C19.9933 12.839 25.3616 10.0172 29.9958 9.21426C33.0126 8.6866 32.9438 14.4564 32.9438 17.2209C32.9438 19.9853 31.9573 23.4724 28.8832 23.4724H20.7504L19.9818 12.8505L19.9933 12.839Z" fill="white"/>
<path d="M106.954 28.2099C106.954 28.2099 110.441 28.2328 111.393 28.2328C118.78 28.2328 119.629 20.0771 119.629 17.175C119.629 14.1008 118.585 5.72714 109.259 6.67922C96.5268 7.97542 96.9169 11.887 88.6694 11.7952C88.6694 12.4605 88.807 14.4105 88.807 14.4105C95.0242 14.4105 95.5862 15.592 95.5862 15.592C95.5862 23.8624 96.8939 28.8178 92.1565 34.232C90.3785 36.2623 87.6026 37.3177 84.8037 37.8568C84.9872 38.7515 85.1364 39.7839 85.5952 41.7683C90 41.103 92.4432 39.8068 95.093 37.5585C99.3487 33.9567 100.232 28.9096 100.232 28.9096C100.232 28.9096 112.334 37.2374 115.488 51.9888C117.117 52.1838 121.235 52.2182 121.235 52.2182C117.014 36.8703 106.919 28.2099 106.919 28.2099H106.954ZM100.289 23.9198V14.1123C100.289 14.1123 106.22 12.1164 108.089 11.9902C113.171 11.6346 115.144 15.0529 115.144 17.8059C115.144 20.5589 113.332 23.9313 108.239 23.9313H100.289V23.9198Z" fill="white"/>
<path d="M83.7485 10.7397L80.5137 8.9503C80.5137 8.9503 77.1069 20.9717 76.4989 23.8394H76.4416V6.3235L72.6104 4.16699V47.9165L76.4531 45.9894L76.4301 33.6928L77.7722 29.7468L80.8005 44.0853C80.8005 44.0853 82.6588 43.397 84.4941 43.007C84.2073 41.6535 80.399 23.3117 80.399 23.3117L83.737 10.7512L83.7485 10.7397Z" fill="white"/>
<path d="M89.8392 30.3433L90.298 31.2036H92.8445L91.3189 28.6227C92.076 27.3035 92.4316 25.8238 92.4316 24.2982H90.5504C90.516 25.0897 90.4013 25.8926 90.1604 26.6497L88.5659 23.8508C89.713 23.1282 90.493 22.0499 90.493 20.639C90.493 18.9528 89.1509 17.9548 87.8203 17.9548C86.4094 17.9548 84.8953 18.7119 84.8953 20.7422C84.8953 21.7517 85.4 22.6693 85.8932 23.5296C84.4364 24.5735 83.4844 25.6747 83.4844 27.5903C83.4844 29.7927 84.9297 31.4789 86.8683 31.4789C88.0497 31.4789 88.9559 31.2265 89.8277 30.3662L89.8392 30.3433ZM87.74 19.6754C88.1644 19.6869 88.5889 20.0884 88.5889 20.6849C88.5889 21.3502 88.0842 21.8664 87.6024 22.2449C87.3615 21.7287 86.9256 21.1093 86.9256 20.5128C86.9256 19.9163 87.3156 19.6525 87.74 19.6754ZM85.7097 27.5444C85.5376 26.3973 86.4553 25.4338 86.8912 25.2617L88.9445 28.8177C88.5086 29.2077 88.0153 29.5174 87.4074 29.5174C86.4209 29.5174 85.8474 28.485 85.7097 27.5444Z" fill="white"/>
<path d="M128.737 42.8694C128.737 45.37 128.611 46.9874 127.314 46.9874C125.938 46.9874 125.926 45.5306 125.926 43.03C125.926 43.03 125.881 7.20674 125.881 6.65614C124.16 6.34643 121.35 6.32349 121.35 6.32349L121.395 43.4429C121.395 49.2012 122.726 51.9428 127.303 51.9428C131.88 51.9428 133.153 49.2012 133.153 43.4429V8.33087C131.972 7.86057 128.748 7.16085 128.748 7.16085V42.8579L128.737 42.8694Z" fill="white"/>
<path d="M142.49 14.0205L142.788 35.3217L137.328 10.0401C137.328 10.0401 136.433 9.43218 134.827 8.85864V50.6467C136.238 50.1878 137.741 49.5111 138.119 49.3161L138.005 27.5675L142.283 46.4025C142.283 46.4025 144.313 44.6589 145.988 41.0227V19.4118C144.784 16.1655 142.478 14.0205 142.478 14.0205H142.49Z" fill="white"/>
<path d="M64.5578 45.4733C63.3189 45.5307 62.3095 43.1218 61.3115 38.4073C60.4856 33.8649 60.1759 29.6666 60.1759 24.3556C60.1759 17.5764 60.7954 11.9901 61.5868 9.78776C62.4816 7.28713 63.5828 6.40388 64.3398 6.40388C65.0969 6.40388 66.3357 7.40184 66.8863 8.5948L70.6832 6.14005C69.0773 2.83647 66.806 1.50586 64.3513 1.50586C57.1132 1.50586 55.5303 10.3039 55.5303 24.2753C55.5303 38.2467 59.2353 51.2087 64.3513 51.2087C67.2305 51.2087 69.754 48.0772 71.4058 42.4451L67.5746 40.5524C66.9093 42.9383 65.3034 45.4504 64.5692 45.4733H64.5578Z" fill="white"/>
<path d="M46.9846 0.588135C42.6486 0.588135 39.5859 9.78769 39.5859 25.5944C39.5859 41.4011 42.8322 55.5102 46.9846 55.5102C51.137 55.5102 54.3832 45.0718 54.3832 25.5944C54.3832 7.98678 51.3205 0.588135 46.9846 0.588135ZM47.1567 48.3983C45.7916 44.3262 44.3004 36.4343 44.3004 25.6059C44.3004 14.0892 45.9637 8.34238 47.0993 6.12852C48.0514 7.96384 49.6802 12.9536 49.6802 25.6059C49.6802 38.2582 48.2808 45.1865 47.1681 48.3983H47.1567Z" fill="white"/>
<path d="M41.0879 59.7544H38.2661L35.9375 70.7204H37.1534L38.1743 65.8912H40.2964C41.7302 65.8912 41.9826 66.8319 41.7417 67.9216C41.5811 68.6557 41.4091 70.0093 41.5238 70.709H42.9461L43.0035 70.4566C42.7167 70.4566 42.7282 69.9748 42.7282 69.7684C42.7856 68.9539 42.8773 68.1395 43.0035 67.3251C43.1297 65.8683 42.8888 65.4095 41.5008 65.2833V65.2489C42.82 65.0768 43.795 64.1477 44.1162 62.863C44.7356 60.3279 43.382 59.7314 41.0879 59.7314V59.7544ZM42.8773 62.7827C42.5103 64.6983 40.9043 64.7901 40.3308 64.8015H38.4152L39.2526 60.8556H40.9617C41.7761 60.8556 43.2559 60.9015 42.8773 62.7827Z" fill="white"/>
<path d="M52.4905 59.7544L50.8272 67.6348C50.6552 68.4951 50.2078 69.8831 48.2692 69.8831C46.3307 69.8831 46.4683 68.4951 46.6748 67.6348L48.3381 59.7544H47.1222L45.3557 68.0707C44.9427 70.0322 46.0439 70.9843 48.0284 70.9843C50.0128 70.9843 51.5269 70.0322 51.9284 68.0707L53.6949 59.7544H52.479H52.4905Z" fill="white"/>
<path d="M61.472 59.7544L59.5679 68.7016C59.4761 69.1145 59.4073 69.539 59.3384 69.929H59.304C59.2696 69.4128 59.2467 69.0687 59.1893 68.7245L57.9734 59.7429H56.0004L53.6719 70.709H54.8878L56.746 61.9682C56.8608 61.4177 56.964 60.8441 57.0787 60.282H57.1131C57.0672 60.9359 57.1016 61.4406 57.1705 61.9338L58.3749 70.709H60.3593L62.6879 59.7429H61.472V59.7544Z" fill="white"/>
<path d="M68.5034 68.7131C68.4116 69.126 68.3428 69.5504 68.274 69.9404H68.2396C68.2052 69.4243 68.1822 69.0801 68.1249 68.736L66.909 59.7544H64.936L62.6074 70.7205H63.8233L65.6816 61.9797C65.7963 61.4291 65.8995 60.8556 66.0142 60.2935H66.0487C66.0028 60.9474 66.0372 61.4521 66.106 61.9453L67.3104 70.7205H69.2949L71.6234 59.7544H70.4075L68.5034 68.7016V68.7131Z" fill="white"/>
<path d="M71.8525 70.7319H73.0684L75.3855 59.7544H74.1811L71.8525 70.7319Z" fill="white"/>
<path d="M81.4995 68.7131C81.4077 69.126 81.3389 69.5504 81.2701 69.9404H81.2357C81.2012 69.4243 81.1783 69.0801 81.121 68.736L79.9051 59.7544H77.9321L75.6035 70.7205H76.8194L78.6777 61.9797C78.7924 61.4291 78.8956 60.8556 79.0103 60.2935H79.0447C78.9989 60.9474 79.0333 61.4521 79.1021 61.9453L80.3065 70.7205H82.291L84.6195 59.7544H83.4036L81.4995 68.7016V68.7131Z" fill="white"/>
<path d="M90.2181 59.5364C87.0407 59.5364 85.928 62.6105 85.3889 65.1685C84.8383 67.738 84.3909 70.9842 87.6601 70.9842C88.876 70.9842 90.0001 70.3418 90.5851 69.103H90.6196L90.2525 70.8121H91.1931L92.409 65.0997H88.7498L88.5204 66.2009H90.9637C90.6081 67.9445 89.9657 69.9977 87.7289 69.906C85.5954 69.8027 86.2951 66.8891 86.6507 65.2259C87.0407 63.3561 87.6601 60.6032 90.0575 60.649C91.434 60.6835 91.8125 61.6126 91.5372 62.9547H92.7646C93.2349 60.9129 92.3287 59.5479 90.2296 59.5479L90.2181 59.5364Z" fill="white"/>
<path d="M101.757 59.7544H94.9205L94.5879 61.3718H96.9853L95.0008 70.7319H97.0426L99.0385 61.3718H101.413L101.757 59.7544Z" fill="white"/>
<path d="M106.828 59.7544H102.951L100.622 70.7205H102.664L103.673 65.9945H104.04C104.625 65.9945 105.222 65.983 105.75 66.1436C106.403 66.3501 106.185 67.2678 106.059 67.9445C105.933 68.6787 105.589 70.0207 105.692 70.7205H107.94L107.986 70.514C107.562 70.1928 108.193 67.4972 108.273 67.0498C108.502 65.9945 108.307 65.226 107.115 65.0654V65.0309C108.537 64.8359 109.122 63.5856 109.363 62.3812C109.787 60.3623 108.571 59.7544 106.805 59.7544H106.828ZM107.16 62.8056C106.931 63.9068 106.312 64.3427 105.623 64.3886H104.017L104.66 61.3603H106.185C106.965 61.3718 107.424 61.5782 107.16 62.8056Z" fill="white"/>
<path d="M111.932 59.7544L109.604 70.7319H111.657L113.974 59.7544H111.932Z" fill="white"/>
<path d="M120.156 59.7544H115.969L113.641 70.7205H115.682L116.657 66.1321H118.034C118.825 66.1436 119.72 65.983 120.466 65.4783C121.372 64.8589 121.854 63.815 122.049 62.8744C122.37 61.3374 122.106 59.7544 120.145 59.7544H120.156ZM119.961 62.8056C119.686 64.1362 118.997 64.5148 118.103 64.5148H117.002L117.678 61.3603H118.619C119.777 61.3603 120.225 61.5553 119.961 62.8056Z" fill="white"/>
</g>
<defs>
<clipPath id="clip0_165_431">
<rect width="146" height="70.4076" fill="white" transform="translate(0 0.588135)"/>
</clipPath>
</defs>
</svg>
