<svg width="31" height="31" viewBox="0 0 31 31" fill="none" xmlns="http://www.w3.org/2000/svg">
<path d="M30.4652 1.73028C30.4652 1.2581 30.2628 0.853385 29.9256 0.516118C29.5883 0.246305 29.1836 0.0439453 28.7788 0.0439453H1.93242C1.3928 0.0439453 0.988081 0.246305 0.718267 0.516118C0.381001 0.853385 0.246094 1.2581 0.246094 1.73028V28.5767C0.246094 29.0489 0.381001 29.4536 0.718267 29.7909C0.988081 30.1281 1.3928 30.263 1.93242 30.263H16.3674V18.5262H12.4551V14.0068H16.3674V10.6341C16.3674 8.74542 16.9071 7.26145 17.9863 6.1822C19.0656 5.1704 20.4821 4.63077 22.2359 4.63077C23.5849 4.63077 24.7991 4.69822 25.7434 4.76568V8.88033H23.3151C22.4382 8.88033 21.8312 9.08269 21.4939 9.48741C21.2241 9.82468 21.0892 10.3643 21.0892 11.1063V14.0068H25.6085L25.0015 18.5262H21.0892V30.263H28.7788C29.251 30.263 29.6557 30.1281 29.993 29.7909C30.2628 29.4536 30.4652 29.0489 30.4652 28.5767V1.73028Z" fill="white"/>
</svg>
