<svg width="29" height="17" viewBox="0 0 29 17" fill="none" xmlns="http://www.w3.org/2000/svg">
<path d="M28.4373 7.30457L19.858 0.319627C19.3346 -0.106542 18.4856 -0.106542 17.9622 0.319627C17.4386 0.745883 17.4386 1.43687 17.9622 1.86313L24.2531 6.98492H1.34052C0.600231 6.98492 0 7.47361 0 8.07632C0 8.67895 0.600231 9.16772 1.34052 9.16772H24.2531L17.9624 14.2895C17.4389 14.7158 17.4389 15.4068 17.9624 15.833C18.2241 16.046 18.5673 16.1527 18.9103 16.1527C19.2534 16.1527 19.5965 16.046 19.8582 15.833L28.4373 8.84807C28.9609 8.42181 28.9609 7.73083 28.4373 7.30457Z" fill="#F3FA58"/>
</svg>
