<svg width="147" height="90" viewBox="0 0 147 90" fill="none" xmlns="http://www.w3.org/2000/svg">
<g clip-path="url(#clip0_165_739)">
<path fill-rule="evenodd" clip-rule="evenodd" d="M146 26.2201V48.1942L135.618 65.8533H129.99V59.4259L126.151 65.8533H108.814L107.088 61.6543L104.628 65.8533H93.2674L92.0438 60.9845L89.1843 65.8533H83.5555V62.002L79.9619 65.8533H71.3062L68.0861 62.6332V55.5232H64.2348L58.2454 65.8533H25.001V59.2843L21.1755 65.8533H15.5467V61.8861L11.8758 65.8533H3.22011L0 62.6332V43.6474L10.3816 26.233V26.2201L13.6018 23H22.2574L25.4775 26.2201V26.8513L26.2375 25.8981L29.1356 23H37.7913L40.0325 25.2412L41.3978 23H47.0266V39.7317L56.9445 23H62.5604V23.6827L63.0627 23H78.0942V26.6838L81.6879 23H90.3307L92.559 25.2283L93.9758 23H105.813L107.99 25.1768L109.419 23H114.636L116.349 27.1475L118.912 23H124.464V23.5925L124.915 23H130.479V26.9672L130.904 26.2588L134.124 23H142.78L146 26.2201ZM107.926 26.671L105.349 24.0949L105.362 24.082H95.0322V47.3184H98.4713V36.9883H101.91L104.486 47.3184H107.926L105.349 36.9883L107.926 34.4122V26.671ZM104.486 27.534V33.562H98.4584V27.534H104.486ZM21.7938 24.0947L24.3699 26.6708V30.9729H20.9308V27.5338H14.9028V43.8791H20.9308V40.44H24.3699V44.7421L21.7938 47.3182H14.0527L11.4766 44.7421V26.6708L14.0527 24.0947H21.7938ZM27.01 47.3311V26.6838L29.586 24.1077H37.3272L39.9033 26.6838V47.3311H36.4642V37.001H30.4362V47.3311H27.01ZM30.449 33.5619H36.4771V27.5339H30.449V33.5619ZM45.9313 43.892V24.0947H42.4922V47.3311H55.3984V43.892H45.9313ZM61.4655 24.0947V47.3311H58.0264V24.0947H61.4655ZM76.9863 27.5338V24.0947H64.0801V47.3311H67.5192V37.0009H76.9863V33.5619H67.5192V27.5338H76.9863ZM89.8797 24.0947L92.4558 26.6708V44.7421L89.8797 47.3182H82.1386L79.5625 44.7421V26.6708L82.1386 24.0947H89.8797ZM83.0016 43.892H89.0296V27.5467H83.0016V43.892ZM113.902 24.0947L119.93 38.7269V24.0947H123.369V47.3311H119.93L113.902 32.6989V47.3311H110.463V24.0947H113.902ZM129.384 47.3311V24.0947H125.945V47.3311H129.384ZM131.999 47.3311V26.6838L134.575 24.1077H142.316L144.893 26.6838V47.3311H141.453V37.001H135.425V47.3311H131.999ZM135.438 33.5619H141.466V27.5339H135.438V33.5619Z" fill="white"/>
</g>
<defs>
<clipPath id="clip0_165_739">
<rect width="146" height="88.9653" fill="white" transform="translate(0.21875 0.309082)"/>
</clipPath>
</defs>
</svg>
