<svg width="146" height="48" viewBox="0 0 146 48" fill="none" xmlns="http://www.w3.org/2000/svg">
<path d="M57.5621 10.6997V14.3604H45.8662V17.2971H57.0012L56.9808 20.8559H45.8662V26.2399H41.1348V10.7099H57.5519L57.5621 10.6997Z" fill="white"/>
<path d="M75.8132 10.6997V14.3604H63.2811V16.6241H75.181V20.0503H63.2811V22.518H75.9049V26.2399H58.6211V10.7099H75.8132V10.6997Z" fill="white"/>
<path d="M81.7087 21.0906C81.7087 21.9471 81.8005 22.3244 82.1778 22.5589C82.6877 22.8648 82.7386 22.8648 86.4605 22.8852C89.8459 22.8716 91.5386 22.4128 91.5386 21.5086C91.5386 20.5807 91.1919 20.3462 89.6726 20.3258C89.1321 20.3258 87.6026 20.2544 85.9507 20.183C84.2274 20.0913 82.6877 20.0199 82.1778 20.0199C79.9141 19.9485 78.823 19.6222 78.1296 18.837C77.5484 18.1334 77.2731 17.1341 77.2731 15.574C77.2731 13.2695 77.8135 11.8725 78.9046 11.2607C80.118 10.6081 81.464 10.4653 87.0826 10.4653C91.4163 10.4653 93.0478 10.6795 94.1592 11.3321C95.1585 11.9643 95.5766 12.9636 95.5766 14.8704C95.5766 14.9622 95.5766 15.2885 95.5562 15.5944H90.988C90.9676 14.8296 90.8962 14.6155 90.6413 14.381C90.264 14.0751 89.7338 14.0343 86.1648 14.0343C82.1778 14.0343 81.8515 14.126 81.8515 15.2681C81.8515 15.8289 82.0656 16.1246 82.5041 16.2674C82.9222 16.3796 84.1356 16.4509 87.5312 16.5427C92.5379 16.6855 93.5882 16.818 94.5671 17.4095C95.7092 18.0825 96.1273 19.1531 96.1273 21.3659C96.1273 23.9967 95.5256 25.3223 94.0063 25.9341C93.0478 26.3522 91.1919 26.4746 86.3484 26.4746C81.5048 26.4746 79.7815 26.2604 78.6599 25.6384C77.4974 24.9858 77.1201 24.0579 77.1201 21.8451V21.1008H81.7087V21.0906Z" fill="white"/>
<path d="M115.675 10.6997V14.6561H108.761V26.2297H103.795V14.6561H96.8818V10.6997H115.675Z" fill="white"/>
<path d="M134.171 10.6997V14.3604H121.639V16.6241H133.538V20.0503H121.639V22.518H134.262V26.2399H116.979V10.7099H134.171V10.6997Z" fill="white"/>
<path d="M57.5621 31.4302V35.0909H45.8662V38.0276H57.0012L56.9808 41.5864H45.8662V46.9703H41.1348V31.4404H57.5519L57.5621 31.4302Z" fill="white"/>
<path d="M75.8132 31.4302V35.0909H63.2811V37.3546H75.181V40.7808H63.2811V43.2485H75.9049V46.9703H58.6211V31.4404H75.8132V31.4302Z" fill="white"/>
<path d="M82.3605 31.4302V46.9601H77.3945V31.4302H82.3605Z" fill="white"/>
<path d="M101.746 31.4302V35.0909H89.2137V37.3546H101.114V40.7808H89.2137V43.2485H101.838V46.9703H84.5537V31.4404H101.746V31.4302Z" fill="white"/>
<path d="M103.326 31.4302H114.756C118.325 31.4302 120.446 31.6307 121.119 32.0318C122.302 32.7558 122.659 33.7755 122.659 36.4777C122.659 38.7414 122.425 39.5979 121.66 40.2505C121.191 40.6278 120.752 40.8114 119.773 40.9541C122.17 41.2295 122.588 41.933 122.496 45.5224V46.9703H117.836V46.1546C117.836 43.1465 117.673 42.9833 114.736 43.0343H108.047V46.9703H103.315V31.4404L103.326 31.4302ZM114.716 39.1391C116.266 39.1051 117.149 39.0269 117.367 38.9045C117.785 38.6496 117.928 38.201 117.928 37.1813C117.928 36.1616 117.765 35.7129 117.295 35.509C116.949 35.3458 116.898 35.3458 114.705 35.3254H108.047V39.1493H114.705L114.716 39.1391Z" fill="white"/>
<path d="M132.672 31.4302L140.799 43.0037H141.288L141.176 31.4302H145.999V46.9601H137.781L129.603 35.3662H129.093L129.205 46.9601H124.382V31.4302H132.672Z" fill="white"/>
<mask id="mask0_165_452" style="mask-type:luminance" maskUnits="userSpaceOnUse" x="0" y="11" width="37" height="36">
<path d="M36.3314 11.2053H0.81543V46.7213H36.3314V11.2053Z" fill="white"/>
</mask>
<g mask="url(#mask0_165_452)">
<path d="M55.6445 45.9161C21.811 45.9365 -12.0225 45.9569 -45.8662 45.9671C-45.8662 45.9671 -45.2544 45.4572 -44.4284 44.7536C-43.5413 43.9889 -42.3992 42.9896 -41.5427 42.184C-39.9316 40.6443 -37.3721 39.6348 -36.587 39.1453C-36.0771 38.819 -35.139 38.2786 -34.2723 37.8095C-33.8134 37.5648 -33.3749 37.3404 -33.0282 37.1773C-32.6815 37.0243 -32.0901 36.6572 -31.4477 36.229C-30.2649 35.4336 -28.9291 34.4139 -28.6945 34.0978C-28.3172 33.5982 -28.0113 33.1495 -27.4301 32.8232C-27.1956 32.6906 -26.9712 32.5377 -26.7163 32.3847C-26.339 32.1502 -25.9006 31.9157 -25.3295 31.7729C-24.371 31.5282 -24.2792 31.8953 -23.8408 32.6702C-23.3921 33.4452 -21.0672 33.9754 -21.0672 33.9754C-18.5486 31.5996 -17.3045 30.4167 -14.8878 28.0816C-11.6554 26.4399 -10.0953 25.6241 -7.14835 24.013C-7.14835 24.013 -3.9771 19.7609 -2.52913 18.8737C-1.10155 17.9866 -0.550919 17.2422 0.0201111 16.2531C0.784885 16.1206 2.28384 16.8955 3.13019 17.7827C3.97654 18.6698 4.87387 19.9648 5.65903 20.7296C6.4544 21.4944 8.84049 22.616 8.84049 22.616C8.84049 22.616 10.8799 20.5359 11.4101 20.5359C11.9404 20.5359 12.542 20.6888 13.4801 21.1681C14.4386 21.6473 14.0919 21.6473 15.8968 23.0851C16.5392 23.5949 17.2734 24.0334 18.0076 24.4413C19.3536 25.1755 20.7097 25.7567 21.4745 26.3175C23.8606 28.7342 25.9 29.9375 27.1236 30.0496C27.4193 30.0802 27.6743 30.0496 27.8578 29.9476C28.8367 29.4582 31.1922 27.7145 31.1922 27.7145C31.1922 27.7145 35.5361 30.9571 36.1683 31.3344C36.8006 31.7015 37.3512 31.4772 37.7183 32.2216C38.0854 32.9558 40.3287 35.0563 40.3287 35.0563C40.3287 35.0563 40.7978 35.2093 41.4708 35.403C42.3375 35.6579 43.5509 35.9741 44.5502 36.127C44.9989 36.9836 46.0288 37.626 47.2422 38.7884C48.4761 39.9611 49.6691 40.267 51.6779 42.1942C51.6983 42.2146 51.7289 42.235 51.7493 42.2554C53.7683 44.1622 55.6547 45.9161 55.6547 45.9161H55.6445Z" fill="white"/>
<path d="M20.7416 40.2671C21.2413 39.3188 21.5778 39.1046 21.9755 38.8599C22.3732 38.6152 22.8524 38.3093 23.0564 37.8096C23.2603 37.31 23.5254 36.3311 23.5254 36.3311C22.8728 36.8613 22.5363 37.1264 21.8633 37.6669C21.4248 38.2481 21.2005 38.5336 20.7416 39.1148C20.7416 39.5737 20.7416 39.8082 20.7314 40.2671H20.7416Z" fill="#292929"/>
<path d="M27.1139 30.0394C25.8902 29.9273 23.8508 28.724 21.4648 26.3073C20.7 25.7465 19.354 25.1653 17.9978 24.4311C18.7422 25.3794 19.1195 25.8587 19.8842 26.8274C19.8842 26.8274 16.4479 23.9824 15.9176 23.8601C15.8768 24.5433 16.091 25.41 16.091 25.41C16.091 25.41 16.611 25.6955 16.9781 26.5725C17.3452 27.4494 17.9978 28.3569 17.9978 28.3569C17.9978 28.3569 17.2024 27.7349 16.8965 27.0313C16.6008 26.3277 15.3874 25.563 15.2854 25.1551C15.1732 24.7472 15.2446 23.544 14.9999 23.1055C14.7552 22.667 13.7763 21.2802 11.5329 21.0559C10.9925 21.372 10.1155 22.0858 9.50372 22.5956C8.8919 23.1157 8.44324 23.8499 8.09654 24.3393C7.74984 24.8288 7.64788 25.2265 7.27059 25.461C6.8831 25.6955 4.2013 26.9701 3.875 27.1945C3.5385 27.4188 3.17141 28.4283 2.77373 28.8668C2.37605 29.3052 1.79482 29.2747 1.73364 29.4888C1.67246 29.7029 0.917882 30.5901 0.662958 31.365C0.408034 32.14 0.183701 32.8028 -0.611662 33.0271C-1.41722 33.2515 -2.8448 34.9748 -3.12012 35.403C-1.67215 34.5771 -0.713633 34.5465 -0.25477 34.006C0.193897 33.4656 0.683349 32.7416 0.795516 32.1706C0.907682 31.5996 1.59088 30.1006 2.78392 29.7131C2.78392 30.3046 2.78392 30.6003 2.78392 31.2019C2.78392 31.2019 3.72204 28 4.05854 27.6126C4.39504 27.2251 7.47453 25.9504 7.47453 25.9504C7.47453 25.9504 6.8831 27.5514 5.17001 28.3671C7.62748 27.7757 7.62748 27.0415 7.93339 26.083C8.2393 25.1245 8.2495 25.0225 8.67777 24.6758C9.09585 24.3291 8.92249 23.8091 9.17742 23.5338C9.43234 23.2585 10.8089 22.0552 11.3494 21.8819C11.3494 22.1674 11.3494 22.2999 11.3494 22.5855C11.3494 22.5855 11.849 22.8404 11.951 23.0647C12.053 23.289 12.2467 23.5746 12.7973 23.9416C13.3378 24.2985 14.1229 26.4807 14.1739 26.6234C13.6029 25.8281 13.3174 25.4304 12.7566 24.6452C12.6342 24.89 12.573 25.0123 12.4404 25.2571C12.1039 24.6248 11.9306 24.3087 11.6043 23.6765C11.6655 23.8703 12.6954 26.9701 13.0421 27.4596C12.9605 27.3678 12.3691 26.6744 12.2161 26.654C12.0632 26.6336 12.0937 27.0823 11.9204 27.1027C11.7572 27.1231 11.4717 26.807 11.3086 26.083C11.1454 25.3896 10.4622 24.8288 10.4113 24.7778C10.4418 24.839 10.9415 25.8587 10.9925 26.4705C11.0333 27.0925 10.9619 27.327 11.0944 27.582C11.227 27.8471 11.6145 27.7145 11.7369 28.0102C11.8592 28.2957 13.97 33.0883 14.1026 33.3942C13.9598 33.1903 12.3181 30.9164 12.1753 30.9266C12.0326 30.9266 11.5125 31.9157 11.5329 32.1094C11.5533 32.3032 12.1039 32.4459 12.1651 32.7824C12.2263 33.1189 12.0632 33.8429 12.1039 34.261C12.1447 34.6587 13.2256 36.6165 13.2868 36.7388C13.195 36.6369 12.002 35.2909 11.5737 34.159C11.1352 32.9864 10.5642 32.711 10.4928 32.1604C10.4214 31.6098 10.3501 31.4058 9.95239 30.8654C9.56491 30.3249 9.26919 29.8763 9.2284 29.4276C9.03466 30.3147 9.61589 31.1815 9.70766 31.5282C9.78924 31.8851 9.27939 32.2522 9.52412 32.813C9.77904 33.384 10.0442 33.0067 10.3297 33.9755C10.6254 34.9442 10.2889 35.5458 10.4316 36.5757C10.5744 37.6158 10.9211 38.8598 11.9408 39.4308C12.2467 40.0732 12.4099 40.3995 12.7158 41.0521C12.6648 40.9808 11.8184 39.8183 11.4208 39.7265C11.0129 39.6348 10.1767 39.3289 9.95239 38.7272C9.73825 38.1256 9.33038 37.1569 8.76954 36.5043C9.47313 38.3907 9.21821 39.3798 9.48333 39.9101C9.75865 40.4403 10.4928 40.3282 10.4928 40.3282C10.4928 40.3282 10.452 41.3479 10.8701 41.7557C11.2882 42.1636 11.4921 42.1228 11.4921 42.1228C11.4921 42.1228 11.227 42.7448 11.7471 43.581C12.2773 44.4273 12.573 45.4266 12.573 45.4266C12.573 45.4266 12.573 44.1418 12.9809 43.7339C13.3888 43.3261 14.2351 42.755 14.4493 41.7761C14.6634 40.8074 14.5308 40.5117 14.1535 40.3995C13.7864 40.2874 13.3072 39.3085 13.2358 38.4621C13.9802 39.8591 14.5716 40.1752 15.3466 40.4199C15.3466 41.7557 15.3466 42.4185 15.3262 43.7747C15.3262 43.7747 15.8258 42.7142 16.2847 42.0413C16.7436 41.3682 16.713 40.9604 17.2228 40.787C17.7225 40.6137 18.1609 40.3893 18.1609 40.3893C18.1609 40.3893 18.528 41.1337 19.0379 41.1439C19.0379 41.1439 19.9148 41.1949 19.9556 41.1337C19.9862 41.0725 20.129 40.736 20.129 40.736C20.129 40.736 19.4356 39.8183 19.2112 38.6355C18.9869 37.4526 19.4967 37.004 17.9876 35.5356C19.0379 35.8925 19.7721 37.1671 19.9046 37.8503C20.0372 38.5335 20.649 39.1045 20.649 39.1045C21.0875 38.5947 21.2914 38.3398 21.7197 37.8401C21.7197 37.8401 20.7 36.9632 20.129 35.8721C19.5885 34.832 19.1602 33.9755 19.1297 33.8939C19.2112 33.9959 20.5878 35.6987 21.169 36.1066C21.7809 36.5247 22.1785 36.331 22.77 36.9224C22.9229 36.7796 23.0045 36.7082 23.1575 36.5655C23.1575 36.5655 21.4138 33.5778 21.475 33.5778C21.5361 33.5778 23.6469 35.0461 23.6469 35.0461C23.6469 35.0461 23.5959 33.384 24.4525 32.8436C25.309 32.3032 27.2872 30.3351 27.2872 30.3351C27.2362 30.223 27.2056 30.172 27.1547 30.07L27.1139 30.0394ZM14.9795 29.4582C14.8367 29.1421 14.1127 28.2448 14.2963 27.6431C14.2963 28.0714 15.1121 29.1217 15.3772 29.3562C15.6321 29.5908 15.0611 30.5289 15.1121 30.7736C15.1732 31.0081 16.3969 32.9965 16.3969 32.9965C16.3969 32.9965 14.4492 31.3752 14.4187 30.9164C14.3881 30.4575 15.1324 29.7845 14.9795 29.4582ZM16.1623 38.4621C16.1114 39.1249 16.3051 40.2976 16.3051 40.2976C16.3051 40.2976 15.2956 38.9822 15.6525 38.044C16.0094 37.1059 16.2337 36.851 16.1929 36.5043C16.1623 36.1576 14.9795 33.9959 14.8061 32.7824C15.3874 33.9653 17.5083 36.7286 17.5083 36.7286C17.5083 36.7286 16.2031 37.7993 16.1623 38.4621ZM15.8666 28.826C15.7952 28.4691 15.9074 27.2557 15.7341 26.7356C16.0502 27.4086 16.3255 28.5099 16.4275 28.7648C16.5294 29.0095 17.7123 30.2944 18.0182 31.7321C17.3044 30.5493 15.938 29.1829 15.8666 28.826ZM20.6082 31.4874C20.496 31.5792 20.4349 31.62 20.3227 31.7015C19.5375 30.6105 19.1399 30.07 18.3649 28.9891C19.0481 29.6417 19.3948 29.9681 20.0984 30.6309C20.4145 30.6309 20.5776 30.6309 20.8937 30.6309C20.8937 30.6309 22.0664 33.1291 22.0766 33.1699C22.0766 33.2107 20.6082 31.4874 20.6082 31.4874ZM21.7299 29.1625C21.6483 29.1013 21.5055 29.3052 21.1181 29.2543C20.7306 29.2033 19.2928 27.4392 19.252 27.429C19.252 27.429 20.9447 28.5915 21.0569 28.6221C21.169 28.6424 21.5973 28.5507 21.7299 28.5711C21.8624 28.5915 23.5857 30.5799 23.5857 30.5799C23.5857 30.5799 21.8115 29.2135 21.7197 29.1625H21.7299ZM25.1866 30.9164C25.0133 31.0795 24.0446 30.3759 23.0453 29.2849C23.5449 29.5704 25.3702 30.7532 25.1866 30.9164Z" fill="url(#paint0_linear_165_452)"/>
<path d="M6.1075 30.0803C4.425 31.0286 3.89476 31.2938 3.61944 31.7322C3.34412 32.1707 3.4359 32.599 3.32373 32.9763C3.21156 33.3535 2.83427 34.0979 2.84447 34.3732C2.84447 34.3732 0.856065 35.5561 -0.173828 37.2386C0.825474 36.3209 2.03891 35.3216 2.65073 35.0768C3.26255 34.8321 3.73161 34.1897 3.86417 33.3434C3.99673 32.497 3.93554 32.2013 4.12929 31.9974C4.32303 31.8036 6.0973 30.0803 6.0973 30.0803H6.1075Z" fill="#292929"/>
<path d="M51.7394 42.2554C51.7394 42.5715 51.7394 42.7244 51.7394 43.0507C51.7394 43.0507 49.3839 41.6843 49.0983 41.5416C48.823 41.3988 48.6599 41.0317 47.7931 40.5831C46.9672 40.165 45.9985 39.492 45.8965 39.4206C45.9781 39.5022 46.6613 40.1956 47.5076 40.9094C48.4152 41.6741 49.0066 42.9896 48.8638 43.01C48.7313 43.0303 47.9563 42.8468 47.5688 42.6021C47.1813 42.3573 45.4274 40.4913 44.8564 40.2466C44.2752 40.0018 43.9183 39.7469 42.6233 38.6049C43.592 39.8591 44.7137 40.5219 44.8666 40.7258C45.0196 40.94 45.0706 41.3478 45.0706 41.3478C44.8666 41.2867 44.7646 41.2561 44.5607 41.2051C44.6423 41.2867 45.9067 42.6633 46.804 43.4484C47.732 44.2642 47.579 43.7339 48.303 44.1928C49.027 44.6517 49.8529 45.4062 49.8529 45.4062C49.8529 45.4062 48.5885 44.6517 48.1296 44.4171C47.681 44.1826 47.3241 44.2336 47.0182 44.101C46.7123 43.9685 46.4675 43.6218 45.7334 43.1119C44.9992 42.6021 43.5716 41.6945 43.2351 41.2459C42.8986 40.7972 41.624 39.8081 41.0631 39.4716C40.5023 39.1453 39.7477 38.6049 39.7477 38.6049C39.7477 38.6049 39.8701 38.819 40.278 39.1453C40.6859 39.4716 40.6247 39.8897 41.0224 40.5729C41.3996 41.2153 42.3378 41.8577 42.4601 41.9291C42.3378 41.8577 41.3792 41.2663 41.1549 41.1133C40.9306 40.94 40.7674 41.0827 40.2882 40.6137C39.8089 40.1548 40.0638 39.7367 39.7171 39.5838C39.3705 39.441 38.8198 38.666 38.6057 38.299C38.3915 37.9319 38.7484 37.3506 38.3202 36.9632C37.9021 36.5757 36.291 34.8524 36.2298 34.832C36.1686 34.8116 37.8409 37.2589 37.8409 37.2589C37.8409 37.2589 37.7287 37.626 37.6981 37.993C37.6676 38.3601 37.8817 39.0841 37.8817 39.0841C37.8817 39.0841 37.2393 38.3397 36.9436 38.146C36.6479 37.9523 36.3114 38.0644 36.0258 37.9828C35.7403 37.8911 33.5786 36.5247 33.5786 36.5247C33.5786 36.5247 35.5976 38.2786 35.9647 38.4825C36.3318 38.6864 36.3012 38.3805 36.6479 38.5947C36.9946 38.8088 37.7695 39.9203 38.3304 40.4199C38.9014 40.9196 38.7484 41.3173 39.4214 41.9393C40.0944 42.5613 40.3698 42.5205 40.8184 42.8264C41.2671 43.1323 41.2263 43.5198 41.4608 44.0296C41.6852 44.5293 42.7966 45.3451 42.8884 45.4062C42.7762 45.3654 41.0224 44.6823 40.7368 44.4987C40.4513 44.305 40.5635 44.0296 40.125 43.7441C39.6866 43.4586 38.6771 42.9794 38.0754 42.4797C37.484 41.9801 37.0557 41.2459 36.862 40.8788C36.6683 40.5117 36.3929 40.4505 36.1074 40.1548C35.8219 39.8591 35.8423 39.5838 35.618 39.4104C35.3834 39.2371 34.7308 38.972 34.7308 38.972C34.7308 38.972 35.3936 39.4104 35.516 39.6348C35.6384 39.8591 35.5976 40.0324 35.8015 40.2364C35.9953 40.4505 35.8933 40.6137 35.9035 40.838C35.9035 41.0623 36.291 41.8577 36.291 41.8577C36.291 41.8577 35.2203 42.0005 34.8226 42.2146C34.4249 42.4287 33.9763 43.0813 33.7927 43.0711C33.6092 43.0609 32.2224 42.3268 32.1102 42.3573C31.998 42.3879 32.0082 42.5613 32.3753 42.8672C32.7424 43.1731 33.4766 43.9481 33.2115 44.1418C32.9464 44.3254 32.4059 45.2635 31.8553 45.2329C31.5698 45.1411 31.6004 44.0602 31.5596 43.8359C31.5188 43.6014 31.2741 43.4484 30.6724 42.704C30.0708 41.9495 29.51 40.4403 29.51 40.4403C29.9994 40.8584 30.2442 41.0725 30.7336 41.4906C31.2027 41.2051 31.4372 41.0623 31.9063 40.7768C31.9063 40.7768 30.8254 40.0222 30.5297 39.8387C30.234 39.6551 30.0198 40.216 29.612 39.8897C29.2143 39.5736 28.2354 38.146 28.1742 38.0542C28.266 38.1256 29.7445 39.3186 29.8261 39.3798C29.9179 39.441 30.1014 39.3492 30.3563 39.2779C30.6113 39.2065 31.631 39.9815 32.1102 40.3587C32.5895 40.736 34.6493 41.613 34.6493 41.613C34.6493 41.613 34.3026 41.1541 33.6398 40.6239C32.9973 40.114 31.9675 38.9006 31.9063 38.819C32.4875 39.1555 32.7832 39.3288 33.3644 39.6653C33.395 39.3696 33.4154 39.2269 33.446 38.9312C32.7628 38.717 31.6208 37.7585 31.2639 37.5342C30.9172 37.3098 29.7241 37.5444 29.6222 37.5648C30.0198 37.1059 30.2136 36.8714 30.6011 36.4125C30.6011 36.4125 29.9587 35.6375 29.408 34.9136C29.459 34.9136 33.0279 37.473 33.0279 37.473C32.4365 36.8306 32.1408 36.5145 31.5494 35.8823C31.8859 35.4948 32.0592 35.301 32.3855 34.9136C32.3855 34.9136 31.2027 33.8633 31.427 33.7409C31.6412 33.6287 34.6798 35.7089 34.8634 35.8415C34.7308 35.6987 32.2428 33.1597 31.6921 32.4153C31.1619 31.7015 30.4379 30.8042 30.3563 30.7022C30.4787 30.8144 32.1306 32.2522 33.2625 32.9965C31.9063 31.6709 31.58 30.7022 31.4576 30.2332C31.3352 29.7641 31.427 29.2033 31.1517 29.1319C30.8866 29.0605 30.7642 29.5806 29.9892 29.9986C29.2143 30.4167 28.6229 30.5697 28.4801 30.9062C28.3271 31.2427 27.9499 31.8647 27.7153 32.2216C27.4808 32.5785 27.5828 32.762 27.6643 33.0883C27.7459 33.4146 26.665 34.4139 26.5937 34.4751C26.6446 34.4037 27.4604 33.2413 27.2361 32.9048C27.0117 32.5581 27.2259 32.038 27.2259 32.038C27.2259 32.038 25.7167 33.0373 25.472 33.2922C25.2273 33.5472 24.7072 34.5363 24.6868 35.1277C24.6664 35.7191 24.8806 36.6267 24.901 37.1161C24.9214 37.6158 24.2382 38.4723 23.9322 39.9713C23.8711 39.1963 24.0954 38.0542 24.2178 37.5954C24.3401 37.1467 24.2178 36.9326 24.1362 36.5247C24.0546 36.1168 24.0954 35.0869 24.2687 34.679C24.4421 34.2814 24.4523 33.7205 24.8704 33.3432C25.2884 32.9659 26.8486 31.8851 27.1851 31.6097C27.5216 31.3344 27.7357 31.0591 27.8989 30.7328C28.062 30.4065 29.306 29.7947 29.8159 29.4786C30.3257 29.1625 30.7744 28.4079 31.1415 28.3977C31.5086 28.3977 34.2924 30.7328 34.6697 31.1815C35.0469 31.6199 36.0972 32.6906 36.6683 33.282C37.2393 33.8735 37.1883 34.2814 37.3311 34.679C37.4738 35.0665 38.9218 35.9333 39.0034 35.9842C38.932 35.9231 37.8307 34.883 37.7389 34.5669C37.637 34.2406 37.6064 33.6185 36.964 32.9863C36.3318 32.3541 35.8525 31.6709 35.8525 31.6709C35.8525 31.6709 36.5663 31.9666 36.964 32.2012C37.3718 32.4459 37.5146 33.1087 38.9116 34.3935C40.3188 35.6783 40.9918 36.851 41.4608 37.1773C41.9401 37.5036 42.1746 37.3404 43.2147 37.993C44.2344 38.6253 45.8455 40.1446 45.9475 40.2364C45.8353 40.1038 44.0509 37.9625 43.5206 37.5138C42.97 37.0549 41.8483 36.5349 41.5628 35.9842C41.4914 35.8517 41.4812 35.6274 41.4914 35.3826C42.3582 35.6375 43.5716 35.9537 44.5709 36.1066C45.0196 36.9632 46.0495 37.6056 47.2629 38.768C48.4967 39.9407 49.6898 40.2466 51.6986 42.1738C51.719 42.1942 51.7496 42.2146 51.77 42.235L51.7394 42.2554Z" fill="url(#paint1_linear_165_452)"/>
<path d="M26.572 38.187C26.776 39.1659 27.0717 40.155 26.6536 40.7872C26.2355 41.4194 24.9201 41.6744 24.7978 41.9293C24.6754 42.1842 24.6754 42.7145 24.3695 42.7858C24.5428 42.3576 24.2267 42.0619 24.4409 41.7967C24.655 41.5316 26.2967 41.0829 26.4599 40.3896C26.623 39.6962 26.5822 38.187 26.5822 38.187H26.572Z" fill="#292929"/>
<path d="M55.7875 46.375C55.7875 46.7727 -45.9985 46.7727 -45.9985 46.375C-46.1821 46.375 -46.3249 46.2934 -46.3656 46.1507C-46.4064 46.0181 -46.335 45.855 -46.1821 45.7326C-46.1821 45.7326 -45.5703 45.2228 -44.7545 44.5294C-43.9286 43.8156 -42.7559 42.7959 -41.8892 41.9801C-40.6247 40.7769 -38.8607 39.8999 -37.7084 39.3187C-37.3209 39.125 -36.9946 38.9618 -36.8111 38.8395C-36.2401 38.4826 -35.2713 37.9217 -34.4454 37.4833C-33.9151 37.1977 -33.4869 36.9836 -33.1504 36.8307C-32.8751 36.7083 -32.3346 36.382 -31.682 35.9435C-30.3156 35.0156 -29.2245 34.1489 -29.0716 33.9551C-29.0308 33.8939 -29.0002 33.8633 -28.9594 33.8022C-28.6025 33.3433 -28.2354 32.864 -27.593 32.4969C-27.4503 32.4154 -27.3177 32.3338 -27.1648 32.2318C-27.0832 32.1808 -26.9914 32.1197 -26.9098 32.0687C-26.5122 31.8239 -26.0023 31.5486 -25.3293 31.3753C-24.1465 31.0694 -23.9017 31.5384 -23.5448 32.2012C-23.5041 32.2828 -23.4735 32.3236 -23.4327 32.395C-23.1777 32.8334 -21.9847 33.2719 -21.1282 33.4962C-18.7013 31.2121 -17.498 30.0803 -15.1629 27.8267C-15.1221 27.7859 -15.061 27.7452 -15.01 27.7146C-11.8285 26.0933 -10.2888 25.2979 -7.37246 23.7072C-6.87281 23.0648 -4.05844 19.3938 -2.65127 18.5271C-1.33586 17.7114 -0.815815 17.0485 -0.234589 16.0594C-0.173405 15.9473 -0.0816345 15.8759 0.0203362 15.8657C0.938065 15.7127 2.5084 16.5999 3.33435 17.4768C3.81361 17.9765 4.29286 18.5883 4.77212 19.1899C5.14941 19.659 5.5267 20.0974 5.86319 20.4237C6.47501 21.005 8.12692 21.8513 8.72854 22.1368C9.56469 21.3109 10.8087 20.1178 11.339 20.128C11.9712 20.1382 12.634 20.332 13.5619 20.801C14.1533 21.0967 14.3165 21.2395 14.7142 21.6168C14.9589 21.8411 15.326 22.1878 16.0704 22.7792C16.6108 23.2075 17.2532 23.6154 18.1097 24.0845C18.538 24.319 18.9663 24.5331 19.3844 24.7473C20.2919 25.2061 21.0873 25.5936 21.6379 26.0015C21.6685 26.0219 21.6889 26.0423 21.7093 26.0627C23.7793 28.1428 25.7881 29.499 27.0117 29.6112C27.2258 29.6316 27.4094 29.6112 27.5419 29.5398C28.4801 29.0708 30.7948 27.3577 30.8152 27.3373C30.9477 27.2353 31.1823 27.2659 31.376 27.4087C33.0993 28.6833 35.8627 30.7125 36.3011 30.9776C36.4439 31.0592 36.5968 31.1 36.7702 31.1509C37.1577 31.2529 37.7491 31.4059 38.1264 32.1401C38.3405 32.5581 39.6049 33.8327 40.4921 34.6791C40.6756 34.7403 41.0325 34.8524 41.4608 34.9748C42.2867 35.2195 43.49 35.5356 44.4485 35.6784C44.6626 35.709 44.8666 35.8517 44.9685 36.0353C45.2235 36.5145 45.7231 36.9326 46.4165 37.524C46.753 37.8096 47.1405 38.1359 47.5382 38.5233C48.0378 39.0026 48.5477 39.3289 49.1289 39.7164C49.9141 40.2262 50.8114 40.8483 51.9739 41.9189C51.9942 41.9393 52.035 41.9699 52.0656 42.0005C53.9215 43.836 55.9201 45.6 55.9405 45.6204C56.0934 45.7632 56.1648 45.9467 56.1342 46.0997C56.1036 46.2526 55.9609 46.3546 55.7773 46.3546L55.7875 46.375ZM-44.7851 45.5695C-11.6552 45.5389 21.4544 45.4981 54.5537 45.4675C53.8093 44.7741 52.5959 43.6626 51.4232 42.5104C51.3926 42.4798 51.3824 42.4696 51.3722 42.4594C50.2914 41.4601 49.4654 40.8687 48.7312 40.3894C48.1092 39.9815 47.528 39.594 46.9264 39.023C46.5491 38.6661 46.2024 38.3602 45.8659 38.0747C45.2337 37.5342 44.6728 37.055 44.2955 36.4942C43.337 36.3208 42.246 36.0353 41.4608 35.8008C40.7878 35.607 40.3085 35.4439 40.2881 35.4439C40.1862 35.4133 40.0944 35.3521 40.023 35.2807C39.6355 34.9136 37.6879 33.0476 37.2902 32.2624C37.1883 32.0585 37.1679 32.0585 36.8314 31.9667C36.607 31.9055 36.3215 31.8341 36.0054 31.6506C35.4446 31.3243 32.3753 29.03 31.3148 28.2346C30.6928 28.6935 28.9695 29.9171 28.1538 30.325C27.8988 30.4474 27.5827 30.4983 27.2054 30.4678C25.6963 30.3352 23.5039 28.8872 21.2402 26.5929C20.7712 26.2564 20.0268 25.8893 19.2008 25.461C18.7726 25.2469 18.3341 25.0226 17.8956 24.7778C16.9881 24.2782 16.2947 23.8397 15.7135 23.3809C14.9487 22.769 14.5612 22.402 14.3063 22.1674C13.9698 21.8411 13.8882 21.7697 13.3886 21.525C12.5728 21.1171 12.0018 20.9438 11.4715 20.9336C11.186 20.9744 10.0439 21.9839 9.10583 22.922C9.00386 23.0138 8.8611 23.0444 8.72854 22.9832C8.62657 22.9322 6.26088 21.8309 5.43493 21.0356C5.06783 20.6787 4.69054 20.2198 4.29286 19.7405C3.8238 19.1593 3.36494 18.5679 2.90608 18.0886C2.19229 17.3341 0.887077 16.6407 0.163094 16.6407C-0.418133 17.64 -1.04015 18.3742 -2.41674 19.2307C-3.5384 19.9241 -5.98567 23.0648 -6.87281 24.2374C-6.9136 24.2986 -6.97478 24.3394 -7.03596 24.3802C-9.96249 25.9709 -11.5022 26.7866 -14.6939 28.408C-17.08 30.7227 -18.3036 31.8953 -20.7815 34.2406C-20.9242 34.3732 -21.118 34.4344 -21.2811 34.4038C-21.536 34.3528 -23.7794 33.8225 -24.2688 32.966C-24.3096 32.8844 -24.3402 32.8436 -24.381 32.7621C-24.7379 32.1197 -24.7889 32.0585 -25.3395 32.2012C-25.8392 32.3338 -26.2164 32.5377 -26.5427 32.7417C-26.6243 32.7927 -26.7059 32.8436 -26.7875 32.8946C-26.9608 33.0068 -27.1138 33.1088 -27.2769 33.2005C-27.6644 33.4147 -27.9091 33.741 -28.2049 34.1387C-28.2558 34.1998 -28.2762 34.2304 -28.317 34.2916C-28.7045 34.8015 -30.54 36.1169 -31.2232 36.5757C-31.7432 36.9224 -32.4468 37.3813 -32.9056 37.5852C-33.2014 37.7178 -33.599 37.9217 -34.0987 38.1868C-34.8941 38.6151 -35.822 39.1454 -36.3624 39.4921C-36.6071 39.645 -36.9538 39.8184 -37.3821 40.0325C-38.463 40.5729 -40.0945 41.3887 -41.1958 42.439C-42.0727 43.2751 -43.2556 44.305 -44.1019 45.029C-44.3466 45.2431 -44.5812 45.4369 -44.7749 45.6L-44.7851 45.5695Z" fill="white"/>
<path d="M16.2843 46.2323C15.9784 45.9978 15.8254 45.8754 15.5195 45.6409C15.5501 45.6103 18.3339 42.6022 19.0987 41.5825C19.6085 40.8993 19.7819 40.2773 19.9552 39.6757C20.0266 39.4106 20.098 39.1556 20.1897 38.9109C20.3937 38.3501 21.2502 37.5751 22.2393 36.6982C22.5146 36.4535 22.8307 36.1679 22.8817 36.0864C22.9327 36.0048 23.0143 35.5765 23.0857 35.24C23.2386 34.4446 23.4324 33.3536 23.8301 32.65C23.8606 32.5888 23.9116 32.548 23.983 32.5174C24.8701 32.1299 25.6247 31.3652 26.2671 30.6922C26.777 30.1517 27.1747 29.7235 27.5825 29.5603C27.8069 29.8662 27.919 30.0192 28.1332 30.3149C27.8375 30.4372 27.4398 30.8655 27.0013 31.3244C26.3691 31.977 25.5737 32.7927 24.605 33.2414C24.2991 33.8634 24.1258 34.8321 23.9932 35.5459C23.881 36.1577 23.8097 36.4535 23.6975 36.6268C23.6057 36.7594 23.3814 36.9735 22.9429 37.361C22.3209 37.9116 21.24 38.8497 21.0769 39.2882C20.9953 39.5023 20.9341 39.7369 20.8627 39.9918C20.6894 40.624 20.4855 41.3378 19.9042 42.123C19.1191 43.1732 16.3965 46.1202 16.2843 46.2425V46.2323Z" fill="white"/>
<path d="M-14.6936 46.222C-14.9588 46.0079 -15.0913 45.9059 -15.3564 45.6918C-12.3687 42.959 -9.50339 40.2058 -6.75021 37.4322C-6.67883 37.3507 -4.54767 34.8932 -2.40631 33.5778C-0.999125 32.7008 -0.815579 32.2726 -0.530065 31.62C-0.417898 31.365 -0.295532 31.0795 -0.10179 30.7328C0.510027 29.6519 0.979086 29.2543 1.47874 28.8362C1.58071 28.7546 1.68268 28.6628 1.78465 28.5609C1.97839 28.3875 2.05996 28.1836 2.16193 27.9185C2.31489 27.531 2.49843 27.0517 3.11025 26.6642C3.90561 26.1544 6.32229 24.9104 6.82194 24.6452C7.03608 24.2781 7.83145 22.9423 8.58602 22.2795C8.77976 22.5243 8.88173 22.6568 9.08567 22.9016C8.3107 23.5746 7.44396 25.1449 7.43376 25.1653C7.40317 25.2265 7.35219 25.2774 7.29101 25.308C7.26042 25.3182 4.37468 26.7968 3.53852 27.3372C3.15104 27.582 3.04907 27.8573 2.9267 28.1938C2.81454 28.4997 2.68198 28.8362 2.34548 29.1421C2.23331 29.2441 2.12114 29.3358 2.01917 29.4276C1.55011 29.8253 1.17283 30.1516 0.652782 31.0897C0.479434 31.3854 0.377466 31.6404 0.275496 31.8851C-0.0712004 32.711 -0.366911 33.2719 -1.93724 34.2406C-3.94604 35.4744 -6.02623 37.8809 -6.04662 37.9115C-8.7998 40.6953 -11.6651 43.4586 -14.6529 46.2016L-14.6936 46.222Z" fill="white"/>
</g>
<path d="M23.8499 23.7722C24.4524 23.7722 24.9409 23.2837 24.9409 22.6812C24.9409 22.0786 24.4524 21.5901 23.8499 21.5901C23.2473 21.5901 22.7588 22.0786 22.7588 22.6812C22.7588 23.2837 23.2473 23.7722 23.8499 23.7722Z" fill="white"/>
<path d="M30.7131 17.2461C31.3157 17.2461 31.8042 16.7576 31.8042 16.155C31.8042 15.5525 31.3157 15.064 30.7131 15.064C30.1106 15.064 29.6221 15.5525 29.6221 16.155C29.6221 16.7576 30.1106 17.2461 30.7131 17.2461Z" fill="white"/>
<path d="M42.7559 1.44079C42.5826 0.951334 42.0319 1.01252 41.4405 1.09409C40.5636 1.09409 40.1455 0.910546 39.2176 0.492471C38.5242 0.176365 38.0143 0.12538 37.4433 0.319122C36.7193 0.563849 36.1279 1.08389 35.7812 1.76709L35.4039 2.50127V9.93486L34.476 9.61875C34.0579 9.47599 32.9974 9.20068 32.2225 9.75131C31.733 10.098 31.4883 10.6792 31.4883 11.4746C31.4883 12.0252 31.7024 12.4841 32.1001 12.8002C32.5692 13.1673 33.1912 13.2591 33.7418 13.2591C34.3332 13.2591 34.8329 13.1469 34.9247 13.1163L36.495 12.7186C37.0762 12.5759 37.4739 12.0558 37.4739 11.4644V3.00092L37.9328 2.80718C38.3814 2.62364 38.8913 2.64403 39.3399 2.86836C39.5235 2.96013 39.7478 3.0621 39.9824 3.0723C40.7267 3.13348 41.257 2.89895 41.9606 2.46048L42.4704 2.14438C42.7661 1.96083 42.8171 1.66512 42.7355 1.44079H42.7559Z" fill="white"/>
<path d="M36.7091 13.5346L35.516 13.8303V45.7162H1.65191V11.8623H30.7132C30.6929 11.7297 30.6725 11.6074 30.6725 11.4748C30.6725 10.965 30.754 10.5469 30.8968 10.2002H0V47.3783H37.1781V13.3511C37.0354 13.4224 36.8824 13.4938 36.7193 13.5346H36.7091Z" fill="white"/>
<path d="M27.7151 20.7234C28.3177 20.7234 28.8062 20.2349 28.8062 19.6323C28.8062 19.0298 28.3177 18.5413 27.7151 18.5413C27.1125 18.5413 26.624 19.0298 26.624 19.6323C26.624 20.2349 27.1125 20.7234 27.7151 20.7234Z" fill="white"/>
<defs>
<linearGradient id="paint0_linear_165_452" x1="-3.13031" y1="33.2311" x2="27.2464" y2="33.2311" gradientUnits="userSpaceOnUse">
<stop stop-color="#292929"/>
<stop offset="1" stop-color="#292929"/>
</linearGradient>
<linearGradient id="paint1_linear_165_452" x1="23.9017" y1="36.9122" x2="51.7394" y2="36.9122" gradientUnits="userSpaceOnUse">
<stop/>
<stop offset="1"/>
</linearGradient>
</defs>
</svg>
