<svg width="31" height="31" viewBox="0 0 31 31" fill="none" xmlns="http://www.w3.org/2000/svg">
<path d="M15.1095 7.39636C16.4586 7.39636 17.7402 7.80108 18.9544 8.47561C20.1685 9.15014 21.1129 10.0945 21.7874 11.3086C22.462 12.5228 22.8667 13.8044 22.8667 15.1535C22.8667 16.57 22.462 17.8516 21.7874 19.0658C21.1129 20.2799 20.1685 21.2243 18.9544 21.8988C17.7402 22.5734 16.4586 22.9106 15.1095 22.9106C13.693 22.9106 12.4114 22.5734 11.1972 21.8988C9.98309 21.2243 9.03874 20.2799 8.36421 19.0658C7.68968 17.8516 7.35241 16.57 7.35241 15.1535C7.35241 13.8044 7.68968 12.5228 8.36421 11.3086C9.03874 10.0945 9.98309 9.15014 11.1972 8.47561C12.4114 7.80108 13.693 7.39636 15.1095 7.39636ZM15.1095 20.2125C16.4586 20.2125 17.6728 19.7403 18.6846 18.7285C19.6289 17.7842 20.1685 16.57 20.1685 15.1535C20.1685 13.8044 19.6289 12.5903 18.6846 11.5785C17.6728 10.6341 16.4586 10.0945 15.1095 10.0945C13.693 10.0945 12.4789 10.6341 11.5345 11.5785C10.5227 12.5903 10.0505 13.8044 10.0505 15.1535C10.0505 16.57 10.5227 17.7842 11.5345 18.7285C12.4789 19.7403 13.693 20.2125 15.1095 20.2125ZM25.0252 7.05909C25.0252 6.58692 24.8228 6.1822 24.4856 5.77748C24.0808 5.44021 23.6761 5.23785 23.2039 5.23785C22.6643 5.23785 22.2596 5.44021 21.9223 5.77748C21.5176 6.1822 21.3827 6.58692 21.3827 7.05909C21.3827 7.59872 21.5176 8.00344 21.9223 8.3407C22.2596 8.74542 22.6643 8.88033 23.2039 8.88033C23.6761 8.88033 24.0808 8.74542 24.4181 8.3407C24.7554 8.00344 24.9577 7.59872 25.0252 7.05909ZM30.1516 8.88033C30.1516 10.1619 30.2191 12.253 30.2191 15.1535C30.2191 18.1214 30.1516 20.2125 30.0842 21.4941C30.0167 22.7757 29.8144 23.855 29.5445 24.7993C29.1398 25.946 28.4653 26.9578 27.6559 27.7673C26.8464 28.5767 25.8346 29.1838 24.7554 29.5885C23.811 29.9258 22.6643 30.1281 21.3827 30.1956C20.1011 30.263 18.01 30.263 15.1095 30.263C12.1416 30.263 10.0505 30.263 8.76893 30.1956C7.48732 30.1281 6.40806 29.9258 5.46372 29.521C4.31701 29.1838 3.30521 28.5767 2.49577 27.7673C1.68633 26.9578 1.07925 25.946 0.674533 24.7993C0.337267 23.855 0.134907 22.7757 0.0674533 21.4941C0 20.2125 0 18.1214 0 15.1535C0 12.253 0 10.1619 0.0674533 8.88033C0.134907 7.59872 0.337267 6.45201 0.674533 5.50766C1.07925 4.42841 1.68633 3.41661 2.49577 2.60717C3.30521 1.79773 4.31701 1.1232 5.46372 0.718479C6.40806 0.448665 7.48732 0.246305 8.76893 0.178852C10.0505 0.111399 12.1416 0.0439453 15.1095 0.0439453C18.01 0.0439453 20.1011 0.111399 21.3827 0.178852C22.6643 0.246305 23.811 0.448665 24.7554 0.718479C25.8346 1.1232 26.8464 1.79773 27.6559 2.60717C28.4653 3.41661 29.1398 4.42841 29.5445 5.50766C29.8144 6.45201 30.0167 7.59872 30.1516 8.88033ZM26.9139 24.0573C27.1837 23.3153 27.3186 22.1012 27.4535 20.4148C27.4535 19.4705 27.521 18.054 27.521 16.2327V14.0742C27.521 12.253 27.4535 10.8365 27.4535 9.89213C27.3186 8.2058 27.1837 6.99164 26.9139 6.24965C26.3742 4.90058 25.3624 3.88878 24.0134 3.34916C23.2714 3.07934 22.0572 2.94444 20.3709 2.80953C19.3591 2.80953 17.9426 2.74208 16.1888 2.74208H14.0303C12.209 2.74208 10.7925 2.80953 9.84818 2.80953C8.16185 2.94444 6.94769 3.07934 6.2057 3.34916C4.78919 3.88878 3.84484 4.90058 3.30521 6.24965C3.0354 6.99164 2.83304 8.2058 2.76559 9.89213C2.69813 10.9039 2.69813 12.3204 2.69813 14.0742V16.2327C2.69813 18.054 2.69813 19.4705 2.76559 20.4148C2.83304 22.1012 3.0354 23.3153 3.30521 24.0573C3.84484 25.4738 4.85664 26.4182 6.2057 26.9578C6.94769 27.2276 8.16185 27.43 9.84818 27.4974C10.7925 27.5649 12.209 27.5649 14.0303 27.5649H16.1888C18.01 27.5649 19.4266 27.5649 20.3709 27.4974C22.0572 27.43 23.2714 27.2276 24.0134 26.9578C25.3624 26.4182 26.3742 25.4064 26.9139 24.0573Z" fill="white"/>
</svg>
