<svg width="26" height="35" viewBox="0 0 26 35" fill="none" xmlns="http://www.w3.org/2000/svg">
<path d="M22.763 0C24.0446 0 24.9215 0.40472 25.3937 1.07925C25.7984 1.82124 25.8659 2.90049 25.5961 4.38447L22.2908 20.8431C22.0885 21.6525 21.8861 22.1921 21.6163 22.5294C21.0767 23.2039 20.3347 23.4738 19.3229 23.4738H13.6568C13.5219 23.4738 13.387 23.5412 13.2521 23.6761L4.41569 33.929C4.07843 34.3337 3.67371 34.5361 3.20154 34.5361C2.79682 34.6035 2.45956 34.5361 2.18974 34.4012C1.3803 34.1314 0.975586 33.4568 0.975586 32.3776V3.10285C0.975586 2.36087 1.17794 1.68633 1.71757 1.07925C2.32465 0.40472 3.20154 0 4.34825 0H22.763ZM21.6838 4.99155C21.6838 4.72173 21.6163 4.45192 21.4814 4.18211C21.279 3.91229 21.0092 3.77739 20.7394 3.77739H5.96713C5.62986 3.77739 5.36006 3.91229 5.1577 4.18211C4.95534 4.45192 4.88787 4.65428 4.88787 4.92409V27.7908V27.8582C4.88787 27.8582 4.95533 27.8582 5.02278 27.7908L11.0261 20.5058C11.2959 20.1685 11.5657 19.9662 11.7681 19.8313C11.9705 19.6964 12.3077 19.6289 12.8474 19.6289H17.7715C18.0413 19.6289 18.3111 19.5615 18.5135 19.3591C18.7158 19.1567 18.8507 18.9544 18.9182 18.752C19.0531 17.7402 19.3229 16.3912 19.6602 14.7723C19.7276 14.5025 19.6602 14.2326 19.4578 13.9628C19.188 13.693 18.9856 13.5581 18.7158 13.5581H12.5776C12.1728 13.5581 11.8356 13.4232 11.5658 13.1534C11.296 12.8836 11.161 12.5463 11.2285 12.1416V11.2647C11.2285 10.86 11.296 10.5902 11.5658 10.3204C11.8356 10.0505 12.1728 9.91564 12.5776 9.91564H19.7951C19.9974 9.91564 20.1998 9.84818 20.4696 9.64582C20.672 9.44346 20.8069 9.2411 20.8743 8.97129L21.6838 4.99155Z" fill="white"/>
</svg>
