<svg width="34" height="34" viewBox="0 0 34 34" fill="none" xmlns="http://www.w3.org/2000/svg">
<path d="M33.949 17.2504C33.949 14.2824 33.1396 11.4494 31.6556 8.88618C30.1716 6.32296 28.148 4.29936 25.5848 2.81539C23.0216 1.33141 20.1886 0.521973 17.2206 0.521973C14.1852 0.521973 11.4196 1.33141 8.85639 2.81539C6.29317 4.29936 4.20212 6.32296 2.71815 8.88618C1.23418 11.4494 0.492188 14.2824 0.492188 17.2504C0.492188 20.758 1.43653 23.9283 3.39268 26.7613C5.34882 29.5943 7.91206 31.6179 11.1498 32.8321C10.88 30.8085 10.9474 29.1896 11.2173 28.0429L13.106 19.7462C12.7687 19.0716 12.6338 18.2622 12.6338 17.2504C12.6338 16.1037 12.9036 15.1593 13.5107 14.3499C14.0503 13.6079 14.7923 13.2032 15.6692 13.2032C16.3437 13.2032 16.8159 13.473 17.2206 13.8777C17.5579 14.2824 17.7602 14.8221 17.7602 15.4966C17.7602 16.1711 17.4904 17.3178 17.0182 18.9367C16.681 19.8811 16.4786 20.6231 16.4112 21.0952C16.2088 21.9047 16.3437 22.6467 16.8833 23.2537C17.3555 23.8608 18.0301 24.1306 18.9069 24.1306C20.3909 24.1306 21.6051 23.4561 22.6169 21.9721C23.6287 20.5556 24.1683 18.7344 24.1683 16.441C24.1683 14.4848 23.4938 12.8659 22.2122 11.5843C20.8631 10.3027 19.1768 9.62817 17.1532 9.62817C15.6017 9.62817 14.2527 10.0329 13.106 10.7074C11.9593 11.382 11.0824 12.3263 10.4753 13.4056C9.8682 14.4848 9.59839 15.699 9.59839 16.9131C9.59839 17.6551 9.66583 18.3971 9.93565 19.0716C10.138 19.7462 10.4078 20.3532 10.8125 20.758C10.9475 20.8929 10.9475 21.0952 10.9475 21.2301L10.4753 23.1188C10.4078 23.3886 10.2055 23.4561 9.93565 23.3212C8.92385 22.9165 8.11441 22.0396 7.43987 20.758C6.76534 19.4764 6.49553 18.1947 6.49553 16.8457C6.49553 15.0919 6.90025 13.4056 7.77714 11.8541C8.65404 10.3027 9.86819 9.08854 11.4871 8.1442C13.2409 7.19985 15.2645 6.72768 17.5579 6.72768C19.4466 6.72768 21.2004 7.19985 22.8192 8.00929C24.3707 8.81873 25.5848 9.96544 26.5292 11.4494C27.4061 12.9334 27.8782 14.6197 27.8782 16.5084C27.8782 18.3971 27.4735 20.0834 26.7315 21.6349C25.9895 23.2537 24.9777 24.4679 23.6287 25.4122C22.2796 26.3566 20.8631 26.7613 19.2442 26.7613C18.3673 26.7613 17.5579 26.6264 16.8833 26.2217C16.1414 25.8844 15.6692 25.4122 15.3994 24.8726L14.3201 28.8524C14.0503 29.9991 13.3758 31.483 12.2965 33.2368C13.8479 33.7765 15.4668 33.9788 17.2206 33.9788C20.1886 33.9788 23.0216 33.2368 25.5848 31.7529C28.148 30.2689 30.1716 28.1778 31.6556 25.6146C33.1396 23.0514 33.949 20.2858 33.949 17.2504Z" fill="white"/>
</svg>
