<svg width="147" height="110" viewBox="0 0 147 110" fill="none" xmlns="http://www.w3.org/2000/svg">
<g clip-path="url(#clip0_165_722)">
<path d="M38.1533 96.9911C38.1533 96.8794 38.2315 96.8013 38.3431 96.8013H43.11C43.2217 96.8013 43.2998 96.8794 43.2998 96.9911V98.007C43.2998 98.1186 43.2217 98.1967 43.11 98.1967H39.7721C39.6939 98.1967 39.6604 98.2302 39.6604 98.3084V102.316C39.6604 102.394 39.6939 102.428 39.7721 102.428H42.6635C42.7751 102.428 42.8533 102.506 42.8533 102.618V103.634C42.8533 103.745 42.7751 103.823 42.6635 103.823H39.7721C39.6939 103.823 39.6604 103.857 39.6604 103.935V109.238C39.6604 109.349 39.5823 109.428 39.4706 109.428H38.3431C38.2315 109.428 38.1533 109.349 38.1533 109.238V97.0022V96.9911Z" fill="white"/>
<path d="M54.2852 96.9911C54.2852 96.8794 54.3633 96.8013 54.4749 96.8013H55.6025C55.7141 96.8013 55.7923 96.8794 55.7923 96.9911V109.227C55.7923 109.338 55.7141 109.416 55.6025 109.416H54.4749C54.3633 109.416 54.2852 109.338 54.2852 109.227V96.9911Z" fill="white"/>
<path d="M67.3916 96.9911C67.3916 96.8794 67.4698 96.8013 67.5814 96.8013H68.7089C68.8206 96.8013 68.8987 96.8794 68.8987 96.9911V107.909C68.8987 107.987 68.9322 108.021 69.0104 108.021H72.3148C72.4265 108.021 72.5046 108.099 72.5046 108.211V109.227C72.5046 109.338 72.4265 109.416 72.3148 109.416H67.5814C67.4698 109.416 67.3916 109.338 67.3916 109.227V96.9911Z" fill="white"/>
<path d="M83.4223 96.9911C83.4223 96.8794 83.5004 96.8013 83.6121 96.8013H84.762C84.9071 96.8013 84.9852 96.8571 85.0187 96.9911L87.3185 104.705H87.3966L89.6405 96.9911C89.674 96.8571 89.7745 96.8013 89.9196 96.8013H91.0472C91.1588 96.8013 91.2369 96.8794 91.2369 96.9911V109.227C91.2369 109.338 91.1588 109.416 91.0472 109.416H90.0424C89.9308 109.416 89.8526 109.338 89.8526 109.227V100.496H89.7633L87.8543 106.983C87.8208 107.094 87.7427 107.172 87.6311 107.172H87.017C86.8831 107.172 86.8273 107.094 86.7938 106.983L84.8848 100.496H84.7954V109.227C84.7954 109.338 84.7173 109.416 84.6057 109.416H83.6009C83.4893 109.416 83.4111 109.338 83.4111 109.227V96.9911H83.4223Z" fill="white"/>
<path d="M105.359 109.584C103.45 109.584 102.479 108.512 102.39 106.335C102.39 106.223 102.423 106.145 102.535 106.134L103.629 105.933C103.763 105.911 103.83 105.989 103.83 106.101C103.908 107.664 104.399 108.211 105.37 108.211C106.342 108.211 106.777 107.742 106.777 106.045C106.777 104.594 106.498 104.058 105.493 103.667L104.734 103.366C103.015 102.696 102.524 101.847 102.524 99.8936C102.524 97.739 103.45 96.6338 105.348 96.6338C107.246 96.6338 108.117 97.672 108.206 99.6369C108.206 99.7485 108.15 99.8266 108.039 99.8378L107 100.005C106.889 100.039 106.799 99.9718 106.799 99.8601C106.766 98.6209 106.353 98.0069 105.393 98.0069C104.433 98.0069 104.02 98.5651 104.02 99.8378C104.02 101.11 104.321 101.579 105.337 101.97L106.096 102.272C107.715 102.919 108.284 103.756 108.284 105.855C108.284 108.4 107.492 109.584 105.359 109.584Z" fill="white"/>
<path d="M146.219 103.935H120.33V101.791H144.075V49.757H2.3622V101.791H26.0183V103.935H0.21875V47.6135H146.219V103.935Z" fill="white"/>
<path d="M22.3793 63.7898C23.4957 62.7739 24.7795 62.2715 26.2532 62.2715C27.8384 62.2715 29.2004 62.8408 30.3391 63.9684C31.4778 65.1071 32.0583 66.4691 32.0583 68.0767V87.39C32.0583 87.9035 31.9244 88.3278 31.6676 88.6738C31.3997 89.0199 31.0759 89.2432 30.6964 89.3213C30.3168 89.3995 29.9261 89.3995 29.5353 89.3213C29.1446 89.2432 28.8208 89.0311 28.5529 88.6738C28.285 88.3278 28.1622 87.8924 28.1845 87.39V68.0767C28.1845 67.5073 27.9947 67.0496 27.6263 66.6812C27.2579 66.3239 26.789 66.1342 26.2308 66.1342C25.6726 66.1342 25.2149 66.3128 24.8577 66.6812C24.5005 67.0384 24.3107 67.5073 24.3107 68.0767V87.39C24.3107 87.9928 24.1097 88.4729 23.7078 88.8301C23.3059 89.1762 22.8594 89.3548 22.3793 89.3548C21.8993 89.3548 21.4416 89.1762 21.0508 88.8301C20.6489 88.4841 20.448 88.004 20.448 87.39V68.0767C20.448 67.5073 20.2582 67.0496 19.8898 66.6812C19.5214 66.3239 19.0637 66.1342 18.5167 66.1342C17.9696 66.1342 17.5119 66.3128 17.1435 66.6812C16.7751 67.0384 16.5853 67.5073 16.5853 68.0767V87.39C16.5853 87.9928 16.3844 88.4729 15.9825 88.8301C15.5806 89.1762 15.134 89.3548 14.654 89.3548C14.1739 89.3548 13.7162 89.1762 13.3255 88.8301C12.9236 88.4841 12.7227 88.004 12.7227 87.39V68.0767C12.7227 66.4802 13.292 65.1071 14.4196 63.9684C15.5471 62.8408 16.9202 62.2715 18.5278 62.2715C19.968 62.2715 21.263 62.785 22.4017 63.7898H22.3793Z" fill="white"/>
<path d="M46.5488 68.0432V83.5162C46.5488 85.1014 45.9795 86.4634 44.8296 87.6021C43.6909 88.7408 42.3289 89.3213 40.7436 89.3213C39.1584 89.3213 37.7964 88.752 36.6577 87.6021C35.519 86.4634 34.9385 85.1014 34.9385 83.5162V68.0432C34.9385 66.4579 35.5078 65.1071 36.6577 63.9684C37.7964 62.8408 39.1584 62.2715 40.7436 62.2715C42.3289 62.2715 43.6909 62.8408 44.8296 63.9684C45.9683 65.1071 46.5488 66.4579 46.5488 68.0432ZM38.8123 68.0432V83.5162C38.8123 84.0632 39.0021 84.5209 39.3705 84.8893C39.7389 85.2577 40.1966 85.4475 40.7436 85.4475C41.2907 85.4475 41.7484 85.2577 42.1168 84.8893C42.4852 84.5209 42.675 84.0632 42.675 83.5162V68.0432C42.675 67.4961 42.4852 67.0384 42.1168 66.6812C41.7484 66.3239 41.2907 66.1342 40.7436 66.1342C40.1966 66.1342 39.7389 66.3128 39.3705 66.6812C39.0021 67.0384 38.8123 67.4961 38.8123 68.0432Z" fill="white"/>
<path d="M61.0616 67.9875V87.3902C61.0616 87.9149 60.8719 88.3726 60.4923 88.7522C60.1127 89.1318 59.655 89.3215 59.1191 89.3215C58.5833 89.3215 58.1256 89.1318 57.7572 88.7522C57.3888 88.3726 57.199 87.9149 57.199 87.3902V67.9875C57.199 67.4405 57.0092 66.9828 56.6408 66.6144C56.2724 66.246 55.8147 66.0562 55.2676 66.0562C54.7206 66.0562 54.2629 66.246 53.8945 66.6144C53.5261 66.9828 53.3363 67.4405 53.3363 67.9875V87.3344C53.3363 87.8591 53.1465 88.3168 52.767 88.6964C52.3874 89.0759 51.9297 89.2657 51.405 89.2657C50.8803 89.2657 50.4226 89.0759 50.043 88.6964C49.6634 88.3168 49.4736 87.8591 49.4736 87.3344V67.9875C49.4736 66.4023 50.043 65.0403 51.1929 63.9016C52.3316 62.7629 53.6935 62.1824 55.2788 62.1824C56.8641 62.1824 58.226 62.7517 59.3647 63.9016C60.5035 65.0403 61.084 66.4023 61.084 67.9875H61.0616Z" fill="white"/>
<path d="M75.5635 68.0432V83.5162C75.5635 85.1014 74.9941 86.4634 73.8442 87.6021C72.7055 88.7408 71.3436 89.3213 69.7583 89.3213C68.173 89.3213 66.8111 88.752 65.6723 87.6021C64.5336 86.4634 63.9531 85.1014 63.9531 83.5162V68.0432C63.9531 66.4579 64.5225 65.1071 65.6723 63.9684C66.8111 62.8408 68.173 62.2715 69.7583 62.2715C71.3436 62.2715 72.7055 62.8408 73.8442 63.9684C74.9829 65.1071 75.5635 66.4579 75.5635 68.0432ZM67.827 68.0432V83.5162C67.827 84.0632 68.0167 84.5209 68.3851 84.8893C68.7536 85.2577 69.2113 85.4475 69.7583 85.4475C70.3053 85.4475 70.763 85.2577 71.1314 84.8893C71.4998 84.5209 71.6896 84.0632 71.6896 83.5162V68.0432C71.6896 67.4961 71.4998 67.0384 71.1314 66.6812C70.763 66.3239 70.3053 66.1342 69.7583 66.1342C69.2113 66.1342 68.7536 66.3128 68.3851 66.6812C68.0167 67.0384 67.827 67.4961 67.827 68.0432Z" fill="white"/>
<path d="M80.3966 62.2715C80.9213 62.2715 81.379 62.4613 81.7586 62.8297C82.1382 63.1981 82.3279 63.6446 82.3279 64.1805V83.5273C82.3279 84.0744 82.5177 84.5321 82.8861 84.9005C83.2545 85.2689 83.7122 85.4587 84.2593 85.4587H88.1889C88.7136 85.4587 89.1713 85.6485 89.5509 86.028C89.9305 86.4076 90.1203 86.8653 90.1203 87.39C90.1203 87.9147 89.9305 88.3724 89.5509 88.752C89.1713 89.1316 88.7136 89.3213 88.1889 89.3213H84.2593C82.674 89.3213 81.312 88.752 80.1733 87.6021C79.0346 86.4634 78.4541 85.1014 78.4541 83.5162V64.1693C78.4541 63.667 78.6439 63.2204 79.0123 62.8408C79.3807 62.4613 79.8272 62.2715 80.3631 62.2715H80.3966Z" fill="white"/>
<path d="M104.667 68.0432V83.5162C104.667 85.1014 104.098 86.4634 102.948 87.6021C101.809 88.7408 100.447 89.3213 98.8618 89.3213C97.2765 89.3213 95.9146 88.752 94.7759 87.6021C93.6372 86.4634 93.0566 85.1014 93.0566 83.5162V68.0432C93.0566 66.4579 93.626 65.1071 94.7759 63.9684C95.9146 62.8408 97.2765 62.2715 98.8618 62.2715C100.447 62.2715 101.809 62.8408 102.948 63.9684C104.086 65.1071 104.667 66.4579 104.667 68.0432ZM96.9305 68.0432V83.5162C96.9305 84.0632 97.1203 84.5209 97.4887 84.8893C97.8571 85.2577 98.3148 85.4475 98.8618 85.4475C99.4088 85.4475 99.8665 85.2577 100.235 84.8893C100.603 84.5209 100.793 84.0632 100.793 83.5162V68.0432C100.793 67.4961 100.603 67.0384 100.235 66.6812C99.8665 66.3239 99.4088 66.1342 98.8618 66.1342C98.3148 66.1342 97.8571 66.3128 97.4887 66.6812C97.1203 67.0384 96.9305 67.4961 96.9305 68.0432Z" fill="white"/>
<path d="M118.521 63.9349C118.7 64.0912 118.845 64.3145 118.979 64.5936C119.102 64.8726 119.169 65.1406 119.169 65.375C119.169 65.8997 118.979 66.3574 118.599 66.737C118.22 67.1166 117.762 67.3064 117.237 67.3064C116.746 67.3064 116.322 67.1389 115.953 66.804C115.44 66.3574 114.837 66.1342 114.134 66.1342C113.375 66.1342 112.727 66.3909 112.213 66.9156C111.7 67.4292 111.432 68.0767 111.432 68.8358V82.757C111.432 83.5162 111.689 84.1637 112.213 84.6772C112.727 85.1907 113.375 85.4587 114.134 85.4587C114.837 85.4587 115.44 85.2354 115.953 84.7888C116.322 84.4204 116.768 84.2306 117.304 84.2306C117.84 84.2306 118.287 84.4204 118.666 84.8C119.046 85.1796 119.235 85.6373 119.235 86.162C119.235 86.4188 119.169 86.6867 119.035 86.9769C118.901 87.2672 118.733 87.4905 118.532 87.6468C117.282 88.7632 115.819 89.3213 114.134 89.3213C112.336 89.3213 110.796 88.6738 109.501 87.39C108.217 86.095 107.569 84.5544 107.569 82.757V68.8358C107.569 67.0384 108.217 65.4978 109.501 64.2028C110.785 62.9078 112.336 62.2715 114.134 62.2715C115.808 62.2715 117.282 62.8297 118.532 63.9461L118.521 63.9349Z" fill="white"/>
<path d="M133.737 68.0432V83.5162C133.737 85.1014 133.168 86.4634 132.018 87.6021C130.879 88.7408 129.517 89.3213 127.932 89.3213C126.347 89.3213 124.985 88.752 123.846 87.6021C122.707 86.4634 122.127 85.1014 122.127 83.5162V68.0432C122.127 66.4579 122.696 65.1071 123.846 63.9684C124.985 62.8408 126.347 62.2715 127.932 62.2715C129.517 62.2715 130.879 62.8408 132.018 63.9684C133.157 65.1071 133.737 66.4579 133.737 68.0432ZM126.001 68.0432V83.5162C126.001 84.0632 126.191 84.5209 126.559 84.8893C126.927 85.2577 127.385 85.4475 127.932 85.4475C128.479 85.4475 128.937 85.2577 129.305 84.8893C129.674 84.5209 129.863 84.0632 129.863 83.5162V68.0432C129.863 67.4961 129.674 67.0384 129.305 66.6812C128.937 66.3239 128.479 66.1342 127.932 66.1342C127.385 66.1342 126.927 66.3128 126.559 66.6812C126.191 67.0384 126.001 67.4961 126.001 68.0432Z" fill="white"/>
<path d="M98.4373 12.816C101.976 12.816 104.845 9.94706 104.845 6.40801C104.845 2.86897 101.976 0 98.4373 0C94.8983 0 92.0293 2.86897 92.0293 6.40801C92.0293 9.94706 94.8983 12.816 98.4373 12.816Z" fill="white"/>
<path d="M68.4626 0.926475C68.3286 1.40652 68.8757 1.70794 69.378 1.98703C69.8804 2.26613 73.6984 3.97419 72.3699 8.55134C70.2488 14.4235 55.814 12.3582 55.8252 22.3721C55.8252 32.386 63.1933 32.0399 63.1933 32.0399C63.1933 32.0399 62.4788 36.204 63.7961 39.1178C61.5411 41.0156 56.5843 42.7349 56.5174 43.5275C56.4504 44.3201 57.3658 45.9724 58.3817 46.9659C60.3577 48.9084 61.6192 48.5735 62.0323 48.3726C62.6016 47.8925 61.3848 47.2339 60.4135 46.5417C59.4423 45.8496 58.6161 44.3871 58.6161 44.3871C58.6161 44.3871 63.238 43.4493 65.8391 41.518C68.217 39.5867 67.7593 37.3651 67.7593 37.3651C67.7593 37.3651 71.3987 38.4703 71.4768 39.3299C71.968 40.6361 71.4657 43.2372 71.1866 45.2579C70.9075 47.2785 70.9968 47.3678 72.7048 48.06C74.4129 48.7521 76.9248 48.8638 76.8466 48.2051C76.2549 47.2115 72.6267 46.8878 72.917 45.5928C73.2072 44.2978 75.0046 40.3458 75.1609 38.8164C75.2948 37.5325 75.1385 37.1083 74.2008 36.5836C75.4176 36.9408 76.2438 37.019 77.0141 37.0413C76.1768 38.0684 76.0428 39.3411 76.0428 39.7988C75.9982 42.0092 77.7062 47.4906 78.097 47.9595C78.4877 48.4284 79.1575 48.8638 80.3297 48.8638C81.5019 48.8638 82.6853 48.5512 82.3392 48.0042C81.9485 47.379 79.5036 47.6134 79.2357 46.7873C78.9677 45.9612 79.1017 41.4287 79.2022 40.5914C79.805 39.6202 80.5083 39.2964 80.5083 39.2964C80.5083 39.2964 80.9326 40.9375 81.5912 41.9869C82.5401 43.9405 85.2083 46.9436 85.7776 47.7586C86.4475 48.7298 86.8382 48.7298 88.4011 48.6405C89.2161 48.5958 90.3994 48.54 90.3101 47.9595C90.2208 47.379 87.1619 47.1111 87.1619 47.1111C87.1619 47.1111 84.0026 42.065 83.9021 41.2389L83.7347 39.8881C83.7347 39.8881 84.4938 38.247 84.7282 37.3204C84.9627 36.3938 85.0966 34.496 85.3757 34.4513C85.6548 34.4067 86.7489 34.976 87.2513 34.9872C87.7536 34.9984 89.551 34.5853 90.2543 33.6699C90.9576 32.7544 90.4329 31.2808 89.7743 30.6445C89.1156 30.0081 89.8413 28.434 87.4187 27.9652C84.9962 27.4963 85.3199 29.4611 83.6119 29.9188C81.2451 30.3877 78.6886 28.6127 75.1386 27.4293C69.2441 25.3528 63.5282 28.5345 63.5282 28.5345C63.5282 28.5345 58.6496 28.769 58.6496 22.5731C58.6496 14.1779 73.1402 15.3947 74.2343 8.55134C75.2948 2.14333 70.0814 0.625052 69.6013 0.502251C69.1213 0.379449 68.5854 0.457596 68.4514 0.937638L68.4626 0.926475Z" fill="white"/>
</g>
<defs>
<clipPath id="clip0_165_722">
<rect width="146" height="109.584" fill="white" transform="translate(0.21875)"/>
</clipPath>
</defs>
</svg>
