<svg width="82" height="104" viewBox="0 0 82 104" fill="none" xmlns="http://www.w3.org/2000/svg">
<g clip-path="url(#clip0_165_618)">
<path d="M43.4419 89.7184V74.9727C43.4419 71.3098 40.4593 68.3376 36.8069 68.3376C33.1545 68.3376 30.1719 71.3203 30.1719 74.9727V89.7184C30.1719 93.3812 33.1545 96.3534 36.8069 96.3534C40.4593 96.3534 43.4419 93.3708 43.4419 89.7184ZM33.9289 89.7184V74.9727C33.9289 73.382 35.2162 72.0947 36.8069 72.0947C38.3976 72.0947 39.6849 73.382 39.6849 74.9727V89.7184C39.6849 91.3091 38.3976 92.5963 36.8069 92.5963C35.2162 92.5963 33.9289 91.3091 33.9289 89.7184Z" fill="white"/>
<path d="M13.846 89.7184V74.9727C13.846 71.3098 10.8633 68.3376 7.21093 68.3376C3.55852 68.3376 0.56543 71.3098 0.56543 74.9727V89.7184C0.56543 93.3812 3.54805 96.3534 7.20046 96.3534C10.8529 96.3534 13.8355 93.3708 13.8355 89.7184H13.846ZM4.33296 89.7184V74.9727C4.33296 73.382 5.62019 72.0947 7.21093 72.0947C8.80166 72.0947 10.0889 73.382 10.0889 74.9727V89.7184C10.0889 91.3091 8.80166 92.5963 7.21093 92.5963C5.62019 92.5963 4.33296 91.3091 4.33296 89.7184Z" fill="white"/>
<path d="M21.6741 92.5965C20.0834 92.5965 18.7961 91.3092 18.7961 89.7185H15.0391C15.0391 93.3814 18.0217 96.3535 21.6741 96.3535C25.3265 96.3535 28.3091 93.3709 28.3091 89.7185V70.8076C28.3091 69.7715 27.4719 68.9238 26.4254 68.9238H16.4937V72.6809H24.5521V89.708C24.5521 91.2988 23.2648 92.586 21.6741 92.586V92.5965Z" fill="white"/>
<path d="M50.83 86.2648L47.4602 68.5784H43.6299L49.2288 94.9929C49.3544 95.5894 49.8149 96.0918 50.4533 96.2278C51.3219 96.4162 52.1696 95.872 52.358 95.0034L58.1767 68.9342H54.3778L50.8196 86.2753L50.83 86.2648Z" fill="white"/>
<path d="M59.0873 95.9139L60.5734 88.6823H64.5711L66.0153 96.2592H69.8457L64.2467 69.8447C64.1211 69.2481 63.6606 68.7458 63.0223 68.6098C62.1536 68.4214 61.3059 68.9656 61.1176 69.8342L55.2988 95.9034H59.0977L59.0873 95.9139ZM62.6455 78.5728L63.8595 84.9252H61.3478L62.656 78.5728H62.6455Z" fill="white"/>
<path d="M74.9211 68.9238H71.1641V95.9663H74.9211V68.9238Z" fill="white"/>
<path d="M74.9218 100.362H0.56543V103.282H74.9218V100.362Z" fill="white"/>
<path d="M62.5824 66.7889C63.1789 66.8517 63.7022 66.4226 63.765 65.8261L64.508 58.7829C64.5185 58.6573 64.5185 58.5317 64.508 58.4061C64.4034 57.4015 63.5034 56.6794 62.5092 56.784C61.5045 56.8887 60.7824 57.7887 60.887 58.7829L61.6301 65.8261C61.6824 66.3179 62.0696 66.7261 62.5929 66.7889H62.5824Z" fill="white"/>
<path d="M25.6403 14.7864C25.831 14.7864 25.9856 14.6318 25.9856 14.4411C25.9856 14.2503 25.831 14.0957 25.6403 14.0957C25.4495 14.0957 25.2949 14.2503 25.2949 14.4411C25.2949 14.6318 25.4495 14.7864 25.6403 14.7864Z" fill="white"/>
<path d="M29.2711 11.49C29.4619 11.49 29.6165 11.3354 29.6165 11.1447C29.6165 10.9539 29.4619 10.7993 29.2711 10.7993C29.0804 10.7993 28.9258 10.9539 28.9258 11.1447C28.9258 11.3354 29.0804 11.49 29.2711 11.49Z" fill="white"/>
<path d="M29.6168 13.3108C29.8076 13.3108 29.9622 13.1562 29.9622 12.9655C29.9622 12.7747 29.8076 12.6201 29.6168 12.6201C29.4261 12.6201 29.2715 12.7747 29.2715 12.9655C29.2715 13.1562 29.4261 13.3108 29.6168 13.3108Z" fill="white"/>
<path d="M28.152 14.4412C27.9636 14.4412 27.8066 14.5981 27.8066 14.7865C27.8066 14.9749 27.9636 15.1319 28.152 15.1319C28.3404 15.1319 28.4974 14.9749 28.4974 14.7865C28.4974 14.5981 28.3404 14.4412 28.152 14.4412Z" fill="white"/>
<path d="M26.3207 11.8979C25.9649 11.8979 25.6719 12.191 25.6719 12.5468C25.6719 12.9026 25.9649 13.1957 26.3207 13.1957C26.6765 13.1957 26.9696 12.9026 26.9696 12.5468C26.9696 12.191 26.6765 11.8979 26.3207 11.8979Z" fill="white"/>
<path d="M32.8198 12.9237C33.1781 12.9237 33.4686 12.6332 33.4686 12.2748C33.4686 11.9165 33.1781 11.626 32.8198 11.626C32.4614 11.626 32.1709 11.9165 32.1709 12.2748C32.1709 12.6332 32.4614 12.9237 32.8198 12.9237Z" fill="white"/>
<path d="M40.6993 14.4202C40.5005 14.4202 40.333 14.5771 40.333 14.7865C40.333 14.9958 40.49 15.1527 40.6993 15.1527C40.9086 15.1527 41.0656 14.9958 41.0656 14.7865C41.0656 14.5771 40.9086 14.4202 40.6993 14.4202Z" fill="white"/>
<path d="M46.9577 12.0445C47.1484 12.0445 47.303 11.8899 47.303 11.6991C47.303 11.5084 47.1484 11.3538 46.9577 11.3538C46.7669 11.3538 46.6123 11.5084 46.6123 11.6991C46.6123 11.8899 46.7669 12.0445 46.9577 12.0445Z" fill="white"/>
<path d="M48.1403 13.719C48.331 13.719 48.4856 13.5644 48.4856 13.3737C48.4856 13.1829 48.331 13.0283 48.1403 13.0283C47.9495 13.0283 47.7949 13.1829 47.7949 13.3737C47.7949 13.5644 47.9495 13.719 48.1403 13.719Z" fill="white"/>
<path d="M47.2409 8.82133C47.4316 8.82133 47.5862 8.66671 47.5862 8.47597C47.5862 8.28524 47.4316 8.13062 47.2409 8.13062C47.0501 8.13062 46.8955 8.28524 46.8955 8.47597C46.8955 8.66671 47.0501 8.82133 47.2409 8.82133Z" fill="white"/>
<path d="M45.1166 14.305C45.4725 14.305 45.7655 14.012 45.7655 13.6562C45.7655 13.3004 45.4725 13.0073 45.1166 13.0073C44.7608 13.0073 44.4678 13.3004 44.4678 13.6562C44.4678 14.012 44.7608 14.305 45.1166 14.305Z" fill="white"/>
<path d="M50.3696 14.305C50.7254 14.305 51.0184 14.012 51.0184 13.6562C51.0184 13.3004 50.7254 13.0073 50.3696 13.0073C50.0137 13.0073 49.7207 13.3004 49.7207 13.6562C49.7207 14.012 50.0137 14.305 50.3696 14.305Z" fill="white"/>
<path d="M41.0553 10.9876C41.2461 10.9876 41.4007 10.833 41.4007 10.6422C41.4007 10.4515 41.2461 10.2969 41.0553 10.2969C40.8646 10.2969 40.71 10.4515 40.71 10.6422C40.71 10.833 40.8646 10.9876 41.0553 10.9876Z" fill="white"/>
<path d="M42.6774 7.69096C42.8681 7.69096 43.0227 7.53634 43.0227 7.3456C43.0227 7.15487 42.8681 7.00024 42.6774 7.00024C42.4867 7.00024 42.332 7.15487 42.332 7.3456C42.332 7.53634 42.4867 7.69096 42.6774 7.69096Z" fill="white"/>
<path d="M39.6012 12.1075C39.792 12.1075 39.9466 11.9528 39.9466 11.7621C39.9466 11.5714 39.792 11.4167 39.6012 11.4167C39.4105 11.4167 39.2559 11.5714 39.2559 11.7621C39.2559 11.9528 39.4105 12.1075 39.6012 12.1075Z" fill="white"/>
<path d="M36.4713 7.00028C36.6621 7.00028 36.8167 6.84566 36.8167 6.65493C36.8167 6.46419 36.6621 6.30957 36.4713 6.30957C36.2806 6.30957 36.126 6.46419 36.126 6.65493C36.126 6.84566 36.2806 7.00028 36.4713 7.00028Z" fill="white"/>
<path d="M35.3522 8.03642C35.5429 8.03642 35.6976 7.8818 35.6976 7.69106C35.6976 7.50032 35.5429 7.3457 35.3522 7.3457C35.1615 7.3457 35.0068 7.50032 35.0068 7.69106C35.0068 7.8818 35.1615 8.03642 35.3522 8.03642Z" fill="white"/>
<path d="M37.5075 11.4165C37.6982 11.4165 37.8528 11.2619 37.8528 11.0712C37.8528 10.8805 37.6982 10.7258 37.5075 10.7258C37.3167 10.7258 37.1621 10.8805 37.1621 11.0712C37.1621 11.2619 37.3167 11.4165 37.5075 11.4165Z" fill="white"/>
<path d="M35.3522 10.6421C35.5429 10.6421 35.6976 10.4875 35.6976 10.2968C35.6976 10.106 35.5429 9.95142 35.3522 9.95142C35.1615 9.95142 35.0068 10.106 35.0068 10.2968C35.0068 10.4875 35.1615 10.6421 35.3522 10.6421Z" fill="white"/>
<path d="M37.3717 14.347C37.5625 14.347 37.7171 14.1923 37.7171 14.0016C37.7171 13.8109 37.5625 13.6562 37.3717 13.6562C37.181 13.6562 37.0264 13.8109 37.0264 14.0016C37.0264 14.1923 37.181 14.347 37.3717 14.347Z" fill="white"/>
<path d="M33.4994 9.12485C33.8578 9.12485 34.1483 8.83435 34.1483 8.476C34.1483 8.11765 33.8578 7.82715 33.4994 7.82715C33.1411 7.82715 32.8506 8.11765 32.8506 8.476C32.8506 8.83435 33.1411 9.12485 33.4994 9.12485Z" fill="white"/>
<path d="M36.8173 3.66191C36.9219 3.66191 37.0057 3.57819 37.0057 3.47353C37.0057 3.36888 36.9219 3.28516 36.8173 3.28516C36.7126 3.28516 36.6289 3.36888 36.6289 3.47353C36.6289 3.57819 36.7126 3.66191 36.8173 3.66191Z" fill="white"/>
<path d="M40.3437 8.2039C40.4483 8.2039 40.532 8.12018 40.532 8.01553C40.532 7.91087 40.4483 7.82715 40.3437 7.82715C40.239 7.82715 40.1553 7.91087 40.1553 8.01553C40.1553 8.12018 40.239 8.2039 40.3437 8.2039Z" fill="white"/>
<path d="M23.6933 15.2888C23.5886 15.2888 23.5049 15.3725 23.5049 15.4772C23.5049 15.5818 23.5886 15.6656 23.6933 15.6656C23.7979 15.6656 23.8816 15.5818 23.8816 15.4772C23.8816 15.3725 23.7979 15.2888 23.6933 15.2888Z" fill="white"/>
<path d="M27.9949 9.30263C27.9949 9.19798 27.9112 9.11426 27.8065 9.11426C27.7019 9.11426 27.6182 9.19798 27.6182 9.30263C27.6182 9.40729 27.7019 9.49101 27.8065 9.49101C27.9112 9.49101 27.9949 9.40729 27.9949 9.30263Z" fill="white"/>
<path d="M42.1542 12.8191C42.0495 12.8191 41.9658 12.9028 41.9658 13.0075C41.9658 13.1121 42.0495 13.1958 42.1542 13.1958C42.2589 13.1958 42.3426 13.1121 42.3426 13.0075C42.3426 12.9028 42.2589 12.8191 42.1542 12.8191Z" fill="white"/>
<path d="M43.6093 11.6783C43.7133 11.6783 43.7977 11.5939 43.7977 11.4899C43.7977 11.3859 43.7133 11.3015 43.6093 11.3015C43.5052 11.3015 43.4209 11.3859 43.4209 11.4899C43.4209 11.5939 43.5052 11.6783 43.6093 11.6783Z" fill="white"/>
<path d="M45.3046 9.83647C45.4092 9.83647 45.493 9.75275 45.493 9.64809C45.493 9.54344 45.4092 9.45972 45.3046 9.45972C45.1999 9.45972 45.1162 9.54344 45.1162 9.64809C45.1162 9.75275 45.1999 9.83647 45.3046 9.83647Z" fill="white"/>
<path d="M29.6171 8.01542C29.7217 8.01542 29.8055 7.9317 29.8055 7.82705C29.8055 7.72239 29.7217 7.63867 29.6171 7.63867C29.5124 7.63867 29.4287 7.72239 29.4287 7.82705C29.4287 7.9317 29.5124 8.01542 29.6171 8.01542Z" fill="white"/>
<path d="M46.4657 7.18876C46.5704 7.18876 46.6541 7.10504 46.6541 7.00039C46.6541 6.89573 46.5704 6.81201 46.4657 6.81201C46.3611 6.81201 46.2773 6.89573 46.2773 7.00039C46.2773 7.10504 46.3611 7.18876 46.4657 7.18876Z" fill="white"/>
<path d="M38.3871 4.31064C38.7455 4.31064 39.036 4.02014 39.036 3.66179C39.036 3.30344 38.7455 3.01294 38.3871 3.01294C38.0288 3.01294 37.7383 3.30344 37.7383 3.66179C37.7383 4.02014 38.0288 4.31064 38.3871 4.31064Z" fill="white"/>
<path d="M38.3979 8.65381C38.0421 8.65381 37.749 8.94684 37.749 9.30266C37.749 9.65848 38.0421 9.95151 38.3979 9.95151C38.7537 9.95151 39.0467 9.65848 39.0467 9.30266C39.0467 8.94684 38.7537 8.65381 38.3979 8.65381Z" fill="white"/>
<path d="M34.1899 5.90136C34.3633 5.90136 34.5039 5.76079 34.5039 5.5874C34.5039 5.414 34.3633 5.27344 34.1899 5.27344C34.0165 5.27344 33.876 5.414 33.876 5.5874C33.876 5.76079 34.0165 5.90136 34.1899 5.90136Z" fill="white"/>
<path d="M38.5967 5.94319C38.5967 6.14203 38.7537 6.30948 38.963 6.30948C39.1723 6.30948 39.3293 6.1525 39.3293 5.94319C39.3293 5.73388 39.1723 5.5769 38.963 5.5769C38.7537 5.5769 38.5967 5.73388 38.5967 5.94319Z" fill="white"/>
<path d="M75.382 41.2952C75.4134 41.2011 75.4134 41.1278 75.4343 41.0336C77.8623 41.7557 80.2797 41.8813 81.7763 40.8766C81.7658 40.6778 78.8983 41.0859 75.5389 39.694C75.5285 39.6417 75.4866 35.9684 74.5552 33.8648C73.6342 31.7613 72.2528 30.6206 72.2424 30.5892C72.2424 30.5892 72.2424 30.5683 72.2424 30.5578C72.2424 30.5369 72.2319 30.5159 72.2214 30.495C72.2214 30.4845 72.2214 30.4741 72.211 30.4531C72.211 30.4322 72.2005 30.4113 72.19 30.4008C72.19 30.3904 72.1796 30.3694 72.1691 30.359C72.1691 30.338 72.1482 30.3171 72.1482 30.3066C72.1482 30.2962 72.1377 30.2752 72.1272 30.2648C72.1272 30.2438 72.1063 30.2229 72.0958 30.202C72.0958 30.1915 72.0854 30.1706 72.0749 30.1601C72.0749 30.1392 72.054 30.1182 72.0435 30.0973C72.0435 30.0869 72.0226 30.0659 72.0226 30.0555C72.0121 30.0345 72.0017 30.0136 71.9912 29.9927C71.9912 29.9717 71.9703 29.9613 71.9598 29.9403C71.9493 29.9194 71.9389 29.8985 71.9179 29.8775C71.9179 29.8671 71.897 29.8462 71.8865 29.8357C71.8761 29.8148 71.8551 29.7938 71.8447 29.7729C71.8447 29.7624 71.8237 29.7415 71.8133 29.731C71.7923 29.6996 71.7714 29.6682 71.7505 29.6368C71.7505 29.6264 71.7296 29.6159 71.7296 29.6054C71.7086 29.5741 71.6877 29.5427 71.6668 29.5113C71.6668 29.5008 71.6458 29.4799 71.6354 29.4694C71.6144 29.4485 71.604 29.4275 71.583 29.4066C71.5726 29.3857 71.5621 29.3752 71.5516 29.3543C71.5412 29.3333 71.5202 29.3124 71.5098 29.2915C71.4993 29.2706 71.4888 29.2601 71.4784 29.2392C71.4679 29.2182 71.447 29.1973 71.4365 29.1764C71.4261 29.1554 71.4156 29.145 71.3947 29.124C71.3947 29.1136 71.3737 29.1031 71.3737 29.0926C70.8714 28.4438 70.3481 27.9101 70.3481 27.9101C70.3481 27.9101 69.9504 26.9263 69.49 26.2147C69.3016 25.9635 68.9353 25.9112 68.7888 25.7961C68.2446 25.3565 65.8794 22.6565 62.4258 21.9762C60.8246 21.6727 60.3118 22.2274 60.1653 22.1541C59.9456 20.6785 57.5595 20.0087 54.9117 19.7262C55.4559 19.0773 55.9373 18.3971 56.3559 17.6854C56.4501 17.5284 56.4606 17.3401 56.3873 17.1831C56.3141 17.0156 56.1676 16.9005 55.9897 16.8691C55.6338 16.7959 55.278 16.7226 54.9117 16.6493C54.3571 15.4982 52.4314 11.6783 51.1128 10.9353C50.5581 10.6213 49.8256 9.39685 49.1767 8.31892C48.1092 6.53981 47.4081 5.45141 46.5813 5.45141C45.7545 5.45141 45.2522 6.30957 44.6871 7.33518C44.4045 6.8747 44.101 6.41422 43.7661 5.96421C43.2743 5.29443 42.8556 4.70837 42.4789 4.19557C40.1556 0.961775 39.6637 0.291992 37.7695 0.291992C36.6497 0.291992 36.116 1.0141 34.8392 2.75135C34.2322 3.57811 33.395 4.71884 32.2019 6.16306C31.8252 6.62353 31.4484 7.1468 31.0821 7.71193C30.5589 6.77005 30.067 6.01654 29.2925 6.01654C28.4658 6.01654 27.7646 7.10494 26.6971 8.88405C26.0483 9.96198 25.3157 11.1864 24.761 11.5004C23.4843 12.2225 21.6319 15.4772 21.0145 16.597C20.5226 16.6912 20.0307 16.7854 19.5493 16.8796C19.3714 16.911 19.2249 17.0366 19.1516 17.1935C19.0784 17.361 19.0888 17.5494 19.183 17.6959C20.8365 20.5215 23.5366 22.8448 26.8541 24.4356C26.1948 24.4984 25.4099 24.6449 24.5727 24.9588C24.175 25.0635 22.647 25.7228 22.2389 25.8798C20.8575 26.4449 18.7749 27.1984 15.8864 33.1218C15.2794 33.3311 13.5108 35.1939 12.7573 36.6486C11.8154 38.4487 11.8887 40.6569 11.5956 41.6406C11.47 41.7139 11.3235 41.808 11.1561 41.9022C10.2875 42.4464 10.0572 42.6453 9.74327 43.7232C9.43977 44.8011 9.41884 44.9686 9.37698 45.1151C9.33512 45.2616 9.85839 44.3616 9.85839 44.3616C9.85839 44.3616 9.7642 44.8849 9.68048 45.1046C9.60722 45.3349 10.2875 44.1837 10.2875 44.1837C10.2875 44.1837 10.1305 44.8116 10.0782 44.9686C10.0468 45.0732 10.6014 44.4558 11.0828 43.9011C11.1456 43.8697 11.1875 43.8488 11.1875 43.8488C11.1875 43.8488 11.1247 43.9953 11.0619 44.1C11.3235 44.0372 11.5852 43.6395 11.9619 42.8755C12.0456 42.7185 12.1084 42.5511 12.1608 42.3836C12.255 42.1639 12.3177 41.9755 12.2968 41.8918C12.5689 40.772 12.7468 39.6313 13.291 38.4801C15.0283 35.4974 16.0225 35.5916 16.0225 35.5916C15.5411 38.8987 17.9062 40.9918 18.1365 43.0744C18.3563 45.157 16.1062 53.2048 16.1585 58.3224C16.1585 59.5259 16.3888 60.4259 16.6295 61.0224H0.554688V63.9423H60.0188L59.7153 61.0224H48.0255C47.9523 60.4468 47.6906 60.0806 47.5755 59.4317C47.6383 59.2852 47.2197 57.527 47.9209 55.2351C48.5593 53.1734 46.5499 48.0035 46.8534 46.9256C46.9581 47.114 50.7675 49.521 50.9454 49.8873C51.364 50.6408 51.1233 51.9908 50.9349 52.3885C50.6942 52.8804 49.5953 55.8002 49.5744 56.6898C51.1337 58.0293 55.4559 59.5154 55.4559 59.5154C55.4559 59.5154 55.6234 58.7829 55.6443 57.841C55.6652 56.8991 56.7118 54.3351 56.6908 51.1745C56.6699 48.014 54.1582 41.7976 54.1582 41.7976C54.0012 40.5522 54.9222 39.0033 55.435 38.7731C55.9478 38.5429 57.6223 38.7312 59.4223 36.8579C60.6991 37.287 61.5782 36.7533 61.5782 36.7533C61.5782 36.7533 62.7607 37.601 65.3876 36.9312C65.4922 36.8893 65.6596 36.9521 65.8376 37.0568C66.612 38.2603 68.1609 39.5057 69.9818 40.5208C69.9818 41.065 69.8981 41.7976 69.6365 42.6557C69.5318 42.9278 69.4272 43.179 69.333 43.3255C69.0086 43.8174 68.3283 45.1884 67.0934 44.9895C65.8794 44.7907 64.7387 42.3418 65.4085 42.2476C65.691 42.2057 66.1411 41.6301 66.1411 41.5987C66.1724 41.2115 65.5341 41.2011 65.3771 41.0859C65.2306 40.9813 65.6492 40.479 65.3038 40.1441C65.0736 39.8824 64.5399 40.1441 64.2782 40.4476C63.755 41.5673 63.3782 43.179 63.8282 44.4139C63.8387 44.8849 65.3143 47.8466 69.5214 47.8152C73.7389 47.7838 74.7226 42.6662 74.7226 42.6662C74.7226 42.6662 74.8378 42.5929 74.9633 42.4464C76.9727 42.8755 78.8669 42.8232 80.1228 41.9755C80.1228 41.7976 78.082 42.0697 75.3924 41.2952H75.382ZM44.6557 9.03056C44.8336 8.748 44.9906 8.46543 45.1476 8.18287C45.1999 8.08868 45.2522 7.99449 45.3045 7.9003C45.7127 7.1468 46.1732 6.28864 46.5499 6.28864C46.9476 6.28864 47.879 7.82705 48.4337 8.748C48.8837 9.49104 49.3128 10.2131 49.7418 10.7678C49.7418 10.7678 49.7314 10.7678 49.7209 10.7678C49.5221 10.7678 49.3546 10.9248 49.3546 11.1341C49.3546 11.3434 49.5116 11.5004 49.7209 11.5004C49.9093 11.5004 50.0558 11.3539 50.0767 11.176C50.2756 11.3853 50.4744 11.5632 50.6733 11.6678C50.9663 11.8353 51.6361 12.4423 52.9128 14.7132C53.2791 15.3621 53.614 16.0005 53.8547 16.4714C53.2163 16.3563 52.5675 16.2517 51.9186 16.1575C52.0547 16.1156 52.1593 15.9796 52.1593 15.833C52.1593 15.6447 52.0024 15.4877 51.814 15.4877C51.6256 15.4877 51.4686 15.6447 51.4686 15.833C51.4686 15.9482 51.5314 16.0528 51.6151 16.1156C51.0395 16.0319 50.464 15.9586 49.8674 15.8854C49.8674 15.8644 49.8674 15.854 49.8674 15.833C49.8674 15.4772 49.5744 15.1842 49.2186 15.1842C48.8942 15.1842 48.6325 15.4249 48.5802 15.7389C47.879 15.6656 47.1674 15.5923 46.4453 15.5295C46.4453 15.5191 46.4453 15.4982 46.4453 15.4877C46.4453 15.2993 46.2883 15.1423 46.0999 15.1423C45.9115 15.1423 45.765 15.2888 45.7545 15.4772C45.1371 15.4249 44.5092 15.383 43.8708 15.3516C43.9126 15.2993 43.9336 15.2261 43.9336 15.1528C43.9336 14.9644 43.7766 14.8074 43.5882 14.8074C43.3998 14.8074 43.2429 14.9644 43.2429 15.1528C43.2429 15.2156 43.2638 15.2679 43.2847 15.3202C42.1649 15.2574 41.0347 15.2156 39.8939 15.1947C40.5742 14.0016 41.9766 11.6888 43.0859 10.726C43.201 10.8725 43.3789 10.9667 43.5882 10.9667C43.944 10.9667 44.2371 10.6736 44.2371 10.3178C44.2371 10.1399 44.1638 9.98291 44.0592 9.86779C44.2685 9.61662 44.4673 9.34452 44.6452 9.06196L44.6557 9.03056ZM32.8194 6.67586C34.0124 5.22117 34.8601 4.06998 35.4776 3.23276C36.7125 1.5583 37.0683 1.11876 37.7381 1.11876C38.23 1.11876 38.5753 1.15015 38.9207 1.32806C38.8369 1.39085 38.7846 1.48504 38.7846 1.60016C38.7846 1.78854 38.9416 1.94552 39.13 1.94552C39.2765 1.94552 39.4021 1.85133 39.4544 1.71528C39.9881 2.20715 40.6265 3.08624 41.7672 4.67698C42.144 5.20024 42.5626 5.7863 43.0545 6.45609C43.4626 7.02121 43.8394 7.59681 44.1743 8.18287C43.808 8.82126 43.3894 9.43871 42.8766 9.805C41.987 10.4329 40.9091 11.9399 40.0823 13.2481C39.9672 13.1016 39.7893 13.0074 39.58 13.0074C39.2242 13.0074 38.9311 13.3004 38.9311 13.6562C38.9311 13.9702 39.1509 14.2214 39.4439 14.2842C39.2346 14.64 39.0672 14.933 38.9416 15.1528C38.5335 15.1528 38.1253 15.1528 37.7172 15.1528C37.5706 15.1528 37.4137 15.1528 37.2671 15.1528C37.2671 14.9749 37.1102 14.8284 36.9218 14.8284C36.8171 14.8284 36.7229 14.8702 36.6602 14.9435C36.3357 14.4412 35.8125 13.6562 35.2159 12.8609C35.2787 12.7981 35.3206 12.7144 35.3206 12.6202C35.3206 12.4318 35.1636 12.2748 34.9752 12.2748C34.9124 12.2748 34.8496 12.2958 34.8078 12.3271C34.1799 11.5318 33.4996 10.7783 32.9031 10.3597C32.338 9.96198 31.888 9.25034 31.4903 8.53869C31.9298 7.84798 32.3694 7.22006 32.8089 6.68632L32.8194 6.67586ZM25.1378 12.2016C25.8808 11.7725 26.6134 10.569 27.3774 9.2922C27.932 8.37125 28.8635 6.83284 29.2612 6.83284C29.6379 6.83284 30.0984 7.691 30.5065 8.4445C30.517 8.46543 30.5275 8.48636 30.5379 8.50729C30.6844 8.77939 30.8414 9.07242 31.0089 9.34452C31.1763 9.61662 31.3438 9.88872 31.5321 10.1399C31.4379 10.2027 31.3856 10.3073 31.3856 10.4329C31.3856 10.6318 31.5426 10.7992 31.7519 10.7992C31.8566 10.7992 31.9507 10.7573 32.0135 10.6841C32.1496 10.8201 32.2856 10.9353 32.4426 11.0399C33.5519 11.8143 35.0694 14.0016 35.8334 15.1633C35.2787 15.1633 34.7241 15.1842 34.1799 15.2051C34.1799 15.1737 34.1903 15.1528 34.1903 15.1214C34.1903 14.933 34.0334 14.776 33.845 14.776C33.6566 14.776 33.4996 14.933 33.4996 15.1214C33.4996 15.1633 33.4996 15.1947 33.5205 15.2261C32.9764 15.247 32.4217 15.2784 31.8775 15.2993C31.8984 15.2365 31.9089 15.1842 31.9089 15.1109C31.9089 14.7551 31.6159 14.4621 31.26 14.4621C30.9042 14.4621 30.6112 14.7551 30.6112 15.1109C30.6112 15.2051 30.6321 15.2888 30.6635 15.3726C27.6495 15.5819 24.7506 15.9168 22.0401 16.3772C22.8878 14.9016 24.2796 12.683 25.1273 12.2016H25.1378ZM23.2645 61.0224C23.1494 59.5468 22.4796 59.0131 22.354 56.8782C22.218 54.6386 22.5633 51.3211 23.6831 49.4059C24.8238 47.4384 27.7437 46.3605 27.7437 46.3605C27.7437 46.3605 28.7274 51.0176 28.9995 54.5653C29.1565 56.5851 30.0042 58.6573 30.2868 59.484C30.5065 60.1434 30.9356 60.7189 31.1658 61.0329H23.2645V61.0224ZM41.6207 61.0224H37.9055C37.7695 60.3213 37.2567 60.0492 36.8067 59.5364C36.1055 58.3956 34.881 57.3805 34.7869 53.7595C34.6927 50.2327 34.3264 46.4756 34.3264 46.4756C34.3264 46.4756 37.0055 47.3861 39.5277 46.4965C40.7312 49.1966 42.1231 52.4618 42.1126 53.5292C41.7672 57.0456 41.3277 59.3584 41.6207 61.0224ZM44.9801 24.6658C44.5092 24.8123 44.0278 24.9379 43.5464 25.053C43.1801 25.0112 42.7301 24.9693 42.2173 24.917C40.7835 24.7809 38.8579 24.6449 36.9218 24.5611C35.3206 24.4879 33.7299 24.467 32.4008 24.467C33.7299 24.3414 35.2473 24.2263 36.7543 24.153C38.9939 24.0379 41.2335 23.996 42.9184 24.0169C43.7557 24.0169 44.4673 24.0379 44.9487 24.0483C45.0115 24.0483 45.0743 24.0483 45.1266 24.0483C45.0743 24.2263 45.022 24.4356 44.9696 24.6553L44.9801 24.6658ZM45.1476 24.0065C45.0848 24.0065 45.0324 23.996 44.9592 23.9856C44.4673 23.9332 43.7766 23.86 42.9289 23.7762C41.244 23.6193 39.0044 23.4623 36.7439 23.389C34.4834 23.3158 32.2333 23.3158 30.5275 23.3681C30.4647 23.3681 30.4123 23.3681 30.3495 23.3681C32.0135 23.1797 34.002 23.0123 35.9904 22.9076C36.6183 22.8762 37.2567 22.8448 37.8741 22.8239C38.4916 22.803 39.109 22.782 39.6951 22.7716C40.8777 22.7506 41.987 22.7506 42.9394 22.7611C43.8708 22.7716 44.6452 22.7925 45.1999 22.8134C45.1999 22.8239 45.1999 22.8344 45.1999 22.8448C45.1999 22.8658 45.1999 22.8972 45.1999 22.9181C45.1999 22.9286 45.1999 22.9495 45.1999 22.9599C45.1999 22.9913 45.2104 23.0227 45.2208 23.0541C45.2208 23.0646 45.2208 23.0855 45.2208 23.096C45.2313 23.1379 45.2417 23.1902 45.2522 23.2425C45.2522 23.4414 45.1894 23.6925 45.1057 23.996L45.1476 24.0065ZM53.4884 19.611C50.4221 19.4227 47.4395 19.632 47.3871 19.611C47.3557 19.6215 47.3139 19.6424 47.2825 19.6529C46.6546 19.6948 45.7441 21.3797 45.7441 21.3797C45.6708 21.5367 45.608 21.6622 45.5452 21.7774C45.5452 21.7983 45.5243 21.8088 45.5243 21.8297C45.5243 21.8506 45.5034 21.8611 45.4929 21.882C45.4615 21.9343 45.4406 21.9867 45.4092 22.0285C45.4092 22.0285 45.4092 22.039 45.3987 22.0495C45.3883 22.0704 45.3778 22.0913 45.3673 22.1227C45.3673 22.1332 45.3569 22.1437 45.3464 22.1541C45.3464 22.175 45.3255 22.196 45.315 22.2169C45.315 22.2274 45.315 22.2378 45.3045 22.2483C45.3045 22.2692 45.2941 22.2902 45.2836 22.3006C45.2836 22.3111 45.2836 22.3216 45.2731 22.332C45.2731 22.353 45.2627 22.3739 45.2522 22.3948C45.2522 22.3948 45.2522 22.4157 45.2522 22.4262C45.2522 22.4576 45.2417 22.4785 45.2313 22.5099C45.2313 22.5413 45.2313 22.5727 45.2208 22.6041C45.2208 22.6041 45.2208 22.6251 45.2208 22.6355C45.2208 22.6565 45.2208 22.6774 45.2208 22.7088C45.2208 22.7192 45.2208 22.7297 45.2208 22.7506C44.6766 22.6878 43.9022 22.6041 42.9812 22.5309C42.0289 22.4471 40.93 22.3634 39.737 22.3006C39.1404 22.2692 38.523 22.2378 37.9055 22.2169C37.2776 22.196 36.6497 22.175 36.0113 22.1646C33.4682 22.1018 30.9251 22.1646 29.01 22.2483C28.5286 22.2692 28.089 22.3006 27.7018 22.3216C27.3146 22.3425 26.9797 22.3739 26.6971 22.3844C26.3309 22.4158 25.7867 22.4262 25.4622 22.4367C25.3994 22.3948 25.3262 22.353 25.2634 22.3111C25.389 22.2902 25.5146 22.2692 25.6506 22.2483C26.0274 22.1855 26.4564 22.1227 26.9274 22.0495C27.8693 21.9134 28.9577 21.7669 30.1402 21.6308C31.3228 21.4948 32.5787 21.3797 33.845 21.2855C35.1113 21.1913 36.3776 21.118 37.5706 21.0762C38.7637 21.0239 39.873 21.0029 40.8254 20.9925C41.7777 20.9925 42.5731 20.9925 43.1277 20.9925C43.6824 20.9925 44.0068 21.0134 44.0068 21.0134C44.0068 21.0134 43.6929 20.982 43.1382 20.9297C42.5835 20.8773 41.7882 20.8146 40.8358 20.7518C39.8835 20.689 38.7637 20.6262 37.5706 20.5843C36.3776 20.5425 35.1008 20.5111 33.824 20.5111C32.5473 20.5111 31.2705 20.532 30.067 20.5843C28.8635 20.6262 27.7437 20.689 26.7913 20.7622C26.3099 20.7936 25.8704 20.8355 25.4832 20.8669C25.0959 20.8983 24.7506 20.9401 24.4785 20.9611C24.0913 21.0029 23.6831 21.0029 23.4738 21.0029C23.4319 20.9611 23.3901 20.9297 23.3378 20.8878C23.8715 20.7832 24.5727 20.6576 25.3994 20.5215C25.8704 20.4378 26.3832 20.3645 26.9274 20.2808C27.4716 20.1971 28.0472 20.1238 28.6437 20.0401C28.9472 19.9983 29.2507 19.9669 29.5542 19.925C29.8577 19.8936 30.1716 19.8517 30.4856 19.8203C31.1135 19.7576 31.7519 19.6948 32.3903 19.632C33.0287 19.5796 33.6671 19.5273 34.3055 19.4855C34.9334 19.4436 35.5613 19.4017 36.1578 19.3703C36.7543 19.3389 37.3509 19.318 37.8951 19.2971C38.4497 19.2761 38.973 19.2657 39.4544 19.2552C40.4172 19.2343 41.223 19.2343 41.7882 19.2343C42.3533 19.2343 42.6777 19.2343 42.6777 19.2343C42.6777 19.2343 42.3533 19.2134 41.7882 19.161C41.223 19.1192 40.4172 19.0668 39.4544 19.0145C38.973 18.9936 38.4497 18.9622 37.8951 18.9413C37.3404 18.9203 36.7543 18.8994 36.1474 18.8889C35.5404 18.8785 34.9124 18.868 34.2741 18.868C33.6357 18.868 32.9868 18.868 32.338 18.868C31.6891 18.868 31.0403 18.8889 30.4019 18.9099C30.0879 18.9203 29.7635 18.9308 29.4495 18.9413C29.1356 18.9517 28.8321 18.9726 28.5286 18.9831C27.9216 19.0145 27.3355 19.0564 26.7809 19.0982C26.2262 19.1401 25.7029 19.182 25.2111 19.2238C24.2378 19.3075 23.4319 19.4017 22.8668 19.475C22.4796 19.5273 22.1342 19.5587 21.9459 19.5796C21.904 19.5273 21.8517 19.475 21.8098 19.4227C22.0819 19.3703 22.3854 19.3075 22.7308 19.2343C23.1494 19.1506 23.6308 19.0564 24.1541 18.9726C24.4157 18.9203 24.6878 18.8785 24.9704 18.8366C25.2529 18.7947 25.5459 18.7424 25.8494 18.6901C26.446 18.5959 27.0844 18.5017 27.7437 18.418C28.0681 18.3761 28.4135 18.3343 28.7483 18.2924C29.0832 18.2505 29.4286 18.2087 29.774 18.1668C30.1193 18.125 30.4751 18.0936 30.8205 18.0517C31.1763 18.0203 31.5217 17.9889 31.8775 17.947C32.5891 17.8843 33.2903 17.8319 33.9915 17.7796C34.6927 17.7273 35.3729 17.6854 36.0427 17.654C36.702 17.6226 37.3613 17.6017 37.9683 17.5703C38.5753 17.5494 39.1614 17.5389 39.6951 17.5284C40.7626 17.5075 41.6521 17.518 42.28 17.5284C42.908 17.5284 43.2638 17.5389 43.2638 17.5389C43.2638 17.5389 42.908 17.5075 42.2905 17.4552C41.6731 17.4028 40.7835 17.3401 39.7056 17.2877C39.1718 17.2563 38.5962 17.2354 37.9788 17.2145C37.3613 17.1935 36.7229 17.1726 36.0532 17.1621C35.3834 17.1517 34.6927 17.1412 33.9915 17.1412C33.2903 17.1412 32.5682 17.1517 31.8566 17.1621C31.5007 17.1621 31.1449 17.1831 30.7891 17.1935C30.4333 17.204 30.0774 17.2249 29.7216 17.2354C29.3658 17.2563 29.0204 17.2668 28.6751 17.2877C28.3297 17.3087 27.9844 17.3296 27.6495 17.3505C26.9797 17.3924 26.3309 17.4447 25.7134 17.497C25.4099 17.518 25.1064 17.5494 24.8134 17.5808C24.5203 17.6122 24.2482 17.6331 23.9761 17.6645C23.4424 17.7168 22.9505 17.7796 22.511 17.8424C22.0715 17.9052 21.6947 17.9575 21.3807 17.9994C21.1191 18.0412 20.9098 18.0726 20.7528 18.0936C20.6796 17.9889 20.5958 17.8738 20.5226 17.7691C25.6506 16.7645 31.5845 16.2412 37.7276 16.2412C43.8708 16.2412 49.8046 16.7749 54.9327 17.7691C54.5036 18.4075 54.0222 19.0145 53.4884 19.5796V19.611Z" fill="white"/>
<path d="M74.9218 61.033H65.6704L65.3564 63.9528H74.9218V61.033Z" fill="white"/>
</g>
<defs>
<clipPath id="clip0_165_618">
<rect width="81.2216" height="103" fill="white" transform="translate(0.554688 0.291992)"/>
</clipPath>
</defs>
</svg>
