<svg width="109" height="104" viewBox="0 0 109 104" fill="none" xmlns="http://www.w3.org/2000/svg">
<g clip-path="url(#clip0_165_663)">
<path d="M95.8882 63.8122C95.9573 62.8911 96.2106 59.9667 96.3602 58.7578C95.8306 58.7002 92.8717 57.664 92.3766 57.3531C92.4687 57.2955 96.1876 57.5143 96.5099 57.5258C96.556 57.1228 96.5675 57.1228 96.6251 56.7199C96.7057 56.1672 96.7517 55.8333 96.8323 55.2807C96.579 55.1771 92.2039 53.9681 92.3881 53.9797C92.4457 53.9797 96.7978 54.3596 96.959 54.4402C97.0856 53.5882 97.4425 50.9516 97.4425 50.9516C97.4425 50.9516 95.6349 49.996 94.1842 49.4318C95.5428 49.3282 97.6037 50.0075 97.6037 50.0075C97.6037 50.0075 97.7534 48.9713 97.8225 48.4647C97.5231 48.2229 95.7616 47.4515 94.9441 47.1752C95.7846 47.1636 97.8225 47.2442 97.9837 47.3824C98.0527 46.9103 98.0067 47.1867 98.0758 46.7146C98.1218 46.3922 98.1564 46.1044 98.1564 45.8396C98.1794 43.4217 94.2418 42.7079 92.8717 44.3313C92.2154 45.1027 92.0312 46.1735 91.8009 47.1291C91.444 48.5798 91.0986 50.0305 90.7762 51.4812C89.4521 57.3186 88.3929 63.2711 88.4389 69.2811C88.462 72.0559 88.1281 80.1844 92.7796 79.7009C94.4951 79.5167 94.8405 78.112 94.9441 76.6268C95.0247 75.4063 95.0592 74.9918 95.1398 73.7829C94.8635 73.8175 92.699 73.2648 91.1907 72.7812C92.296 73.0115 95.0362 72.7006 95.1974 72.7237C95.2434 71.9868 95.301 71.2615 95.3586 70.5246C94.8405 70.5246 91.7894 69.7877 91.0986 69.592C91.1907 69.5574 95.255 69.4999 95.4392 69.4999C95.4392 69.4999 95.5198 68.4176 95.6004 67.5311C95.6694 66.7827 95.6694 65.8386 95.727 65.0787C95.1168 65.0441 92.7105 64.48 92.0312 64.1576C92.8601 64.077 95.5543 63.7661 95.8997 63.8237L95.8882 63.8122Z" fill="white"/>
<path d="M108.047 52.9318C107.886 51.7805 107.448 50.917 106.861 50.134C106.47 49.6274 106.021 49.1439 105.549 48.6603C101.945 21.6381 80.9674 0.764047 55.557 0.303506L54.6935 0.291992H53.3464C27.913 0.764047 6.91237 21.6841 3.35469 48.7524C2.85961 49.282 2.38755 49.7886 1.99609 50.3298C1.42042 51.1127 0.982903 51.9877 0.844741 53.1391C0.568416 55.3842 1.19015 57.6063 1.44344 59.8169C1.7428 62.3729 2.14577 64.9174 2.5142 67.4619C2.83658 69.684 3.35469 71.9637 4.79388 73.7483C5.25442 74.324 6.46334 75.6595 7.47653 75.7286C7.58015 79.9771 9.03086 83.3736 11.6905 85.5612C12.0589 85.8605 12.4504 86.1484 12.8649 86.4016C15.4784 88.0251 18.9095 88.6468 22.5938 88.1747C23.0198 88.1172 23.4458 88.0596 23.8718 87.9675C28.9032 86.9888 33.6583 84.4213 37.5383 80.7485C38.8163 79.5396 39.9907 78.204 41.0615 76.7648C41.3608 76.6727 41.6717 76.5691 41.9711 76.4655C43.652 75.8553 45.2985 75.0263 46.9104 73.967C47.3133 73.7022 47.7278 73.4259 48.1308 73.1265C48.2805 73.0114 48.4186 72.9078 48.5683 72.7927C50.468 71.3304 52.0914 69.6955 53.45 68.1067C53.1161 69.3156 52.7592 70.6396 52.3563 72.0097C51.7691 72.7581 51.1704 73.5641 50.5717 74.393C50.5371 74.4391 50.5026 74.4967 50.4565 74.5427C50.399 74.6233 50.3529 74.6924 50.2953 74.773C48.4417 77.375 46.5765 80.288 44.884 83.27C44.4234 84.0989 43.9399 84.9625 43.4793 85.8375C42.4431 87.8178 41.476 89.8672 40.8197 91.6979C40.8197 91.7324 40.7967 91.7554 40.7852 91.79C40.7506 91.8821 40.7161 91.9742 40.693 92.0663C40.693 92.0663 40.6931 92.0893 40.6815 92.1008C40.6815 92.1239 40.67 92.1469 40.6585 92.1699C40.647 92.216 40.6355 92.2505 40.6125 92.2966C40.5779 92.4117 40.5434 92.5268 40.5088 92.6305C40.4973 92.6765 40.4858 92.7111 40.4743 92.7571C40.4398 92.8722 40.4052 92.9759 40.3822 93.091C40.3822 93.1255 40.3592 93.1716 40.3476 93.2061C40.3131 93.3213 40.2901 93.4364 40.267 93.54C40.267 93.5746 40.2555 93.5976 40.244 93.6321C40.2095 93.7588 40.1865 93.897 40.1634 94.0236C40.1634 94.0236 40.1634 94.0351 40.1634 94.0466C40.0598 94.5532 40.0138 95.0253 40.0253 95.4398C40.0253 95.8427 40.0943 96.1997 40.221 96.499C40.267 96.6026 40.3131 96.6947 40.3592 96.7868C40.3937 96.8559 40.4398 96.9135 40.4858 96.9711C40.5319 97.0286 40.5779 97.0862 40.624 97.1438C40.624 97.1438 40.647 97.1668 40.647 97.1783C40.6931 97.2244 40.7391 97.2819 40.7967 97.3165C40.7967 97.3165 40.8197 97.328 40.8312 97.3395C40.9348 97.4201 41.0385 97.4892 41.1536 97.5467C41.1766 97.5467 41.1881 97.5698 41.2112 97.5813C41.2572 97.6043 41.2918 97.6158 41.3378 97.6389C41.3839 97.6619 41.4299 97.6734 41.476 97.6849C41.5105 97.6964 41.5566 97.7079 41.5911 97.7194C41.6487 97.731 41.7062 97.7425 41.7638 97.754C41.7983 97.754 41.8329 97.7655 41.8559 97.7655C41.948 97.777 42.0516 97.7885 42.1438 97.7885C42.2359 97.7885 42.351 97.7885 42.4546 97.777C42.4776 97.777 42.4892 97.777 42.5122 97.777C42.9842 97.731 43.5023 97.5583 44.078 97.1898C44.1471 97.1438 44.2047 97.0977 44.2738 97.0517C44.3083 97.0286 44.3428 96.9941 44.3774 96.9711C44.4234 96.9365 44.4695 96.902 44.504 96.8674C44.5616 96.8214 44.6192 96.7753 44.6767 96.7178C44.7228 96.6832 44.7573 96.6487 44.8034 96.6026C44.8494 96.5566 44.8955 96.522 44.9415 96.476C44.9761 96.4414 44.9991 96.4184 45.0336 96.3839C45.1258 96.2918 45.2064 96.1997 45.2985 96.1076C45.3215 96.0845 45.3445 96.0615 45.3675 96.0385C45.5518 95.8312 45.736 95.601 45.9317 95.3477C45.9317 95.3477 45.9432 95.3246 45.9547 95.3131C46.162 95.0483 46.3692 94.749 46.5765 94.4266C46.9334 93.897 47.2903 93.2752 47.6818 92.5614C48.0502 91.8821 48.4301 91.1222 48.8216 90.2587C49.8578 88.0135 50.9977 85.1121 52.2526 81.3818C52.4944 80.6679 52.7362 79.9426 52.9895 79.1596C53.0931 78.8257 53.2083 78.4803 53.3119 78.1465C53.6112 77.2139 53.8876 76.2928 54.1639 75.3717C54.3941 74.6233 54.6129 73.8864 54.8201 73.1611C56.2018 71.4456 57.6064 69.9258 58.965 68.7399C61.2447 66.7481 62.1312 66.9323 62.2809 66.9898C62.2809 66.9898 62.2809 66.9898 62.2924 66.9898C63.3286 67.4274 63.5704 68.8665 63.5819 70.0985C63.5819 70.1791 63.5819 70.2597 63.5819 70.3403C63.5474 72.6545 62.7645 75.3256 61.6937 77.6168C61.2792 77.755 60.8647 77.8816 60.4618 78.0083C58.8153 78.5379 57.3761 78.9985 56.2478 79.5166C54.9007 80.1383 54.0027 80.8521 53.7264 81.8768C53.6918 82.0265 53.6573 82.1877 53.6573 82.3719C53.6458 82.8325 53.7609 83.3966 54.2099 83.9953C54.302 84.1105 54.3941 84.2371 54.5093 84.3637C54.6014 84.4674 54.705 84.548 54.8086 84.6401C55.8794 85.6072 57.2034 85.8605 58.5736 85.3309C58.9765 85.1812 59.368 84.9509 59.7594 84.6746C61.1871 83.6614 62.5227 81.8768 63.6165 79.8044C65.3781 79.2057 67.1281 78.5149 68.5443 77.6399C68.717 78.3652 68.9818 79.079 69.3502 79.7814C71.296 83.4542 75.5215 85.7339 78.8489 86.8852C79.793 87.2076 80.6565 87.4494 81.3819 87.5991C81.8424 87.6912 82.2914 87.7718 82.752 87.8293C87.8294 88.5547 92.9529 87.4724 96.6027 84.9049C96.8675 84.7207 97.1208 84.5249 97.3741 84.3177C100.172 82.0495 101.703 79.0445 101.83 75.6135C102.82 75.4753 103.971 74.1743 104.42 73.5986C105.837 71.791 106.32 69.4998 106.608 67.2777C106.942 64.7332 107.31 62.1772 107.564 59.6212C107.782 57.4106 108.37 55.1655 108.059 52.9318H108.047ZM46.7031 88.3935C46.6686 88.4626 46.6455 88.5201 46.611 88.5892C46.5074 88.8195 46.4038 89.0498 46.3001 89.2685C46.2195 89.4297 46.1505 89.5909 46.0814 89.7406C46.0238 89.8672 45.9662 89.9939 45.9087 90.109C45.8166 90.2817 45.736 90.4544 45.6554 90.6271C45.6439 90.6617 45.6208 90.6962 45.6093 90.7192C45.5402 90.8459 45.4712 90.9725 45.4136 91.0992C45.3906 91.1452 45.3675 91.1798 45.3445 91.2258C45.2869 91.341 45.2294 91.4446 45.1718 91.5482C45.1488 91.5943 45.1258 91.6288 45.1027 91.6748C45.0452 91.7785 44.9991 91.8706 44.9415 91.9627C44.9185 91.9972 44.8955 92.0433 44.8725 92.0778C44.8149 92.1699 44.7688 92.262 44.7113 92.3426C44.6882 92.3772 44.6652 92.4117 44.6422 92.4463C44.5846 92.5268 44.5386 92.6189 44.4925 92.6995C44.4695 92.7226 44.458 92.7571 44.4349 92.7801C44.3774 92.8607 44.3313 92.9529 44.2738 93.0334C44.2622 93.0565 44.2507 93.068 44.2392 93.091C44.1816 93.1831 44.1126 93.2752 44.055 93.3558C43.7672 93.7703 43.5023 94.0812 43.2836 94.323C43.1685 94.4381 43.0648 94.5417 42.9727 94.6338C42.9727 94.6338 42.9497 94.6453 42.9382 94.6568C42.9036 94.6914 42.8691 94.7144 42.8346 94.749C42.8231 94.749 42.8115 94.772 42.8 94.772C42.7655 94.795 42.7309 94.8295 42.6964 94.8526C42.6964 94.772 42.7194 94.6914 42.7425 94.5993C42.7425 94.5763 42.7425 94.5532 42.754 94.5302C42.7655 94.4611 42.7885 94.3805 42.8 94.2999C42.8 94.2769 42.8 94.2539 42.8115 94.2308C42.8346 94.1502 42.8576 94.0581 42.8806 93.966C42.8806 93.9545 42.8806 93.9315 42.8921 93.92C42.9267 93.8164 42.9612 93.7012 42.9958 93.5861C43.1685 93.0334 43.4102 92.3887 43.6981 91.6633C43.7556 91.5252 43.8132 91.387 43.8708 91.2488C43.9284 91.0992 43.9974 90.9495 44.0665 90.7998C44.1701 90.5695 44.2738 90.3393 44.3774 90.109C45.6669 87.2882 47.5897 83.7305 49.8118 80.2189C48.6489 83.6845 47.6127 86.3441 46.7146 88.382L46.7031 88.3935ZM57.5949 82.8209C57.2034 82.9706 56.8926 82.9706 56.4666 82.5216C56.4551 82.5101 56.432 82.487 56.4205 82.4755C56.5011 82.4064 56.6163 82.3374 56.7429 82.2568C57.3416 81.8999 58.4124 81.4969 59.4946 81.1284C59.5177 81.1284 59.5522 81.1054 59.5752 81.1054C58.8959 81.9689 58.2051 82.5792 57.5949 82.8094V82.8209ZM40.6815 72.4012C40.3361 72.9999 39.9792 73.5871 39.5993 74.1513C39.5647 74.2088 39.5302 74.2664 39.4841 74.324C35.6156 75.2796 32.2997 74.8536 30.4575 74.4391C30.2733 74.393 30.0891 74.3585 29.9394 74.3124C27.9591 73.8059 26.4623 72.9884 25.4607 71.8716C24.6777 71.0081 24.1942 69.9603 24.01 68.7284C23.9639 68.4405 23.9409 68.1412 23.9294 67.8418C23.8142 63.2019 27.6252 55.9829 33.9001 52.1144C33.9807 52.0683 34.0497 52.0223 34.1303 51.9762C35.3393 51.2624 37.1469 50.4219 38.92 50.4219C39.841 50.4219 40.7621 50.6522 41.5911 51.2278C43.5139 52.5864 44.7228 55.3497 44.7343 59.0455C44.7343 62.7298 43.5599 67.3468 40.6815 72.4012ZM97.1093 80.7831C96.6833 81.3012 96.1998 81.7732 95.6586 82.2222C95.3017 82.5101 94.9218 82.7864 94.5188 83.0397C94.4497 83.0858 94.3806 83.1318 94.3115 83.1779C94.2885 83.1779 94.277 83.2009 94.254 83.2124C91.1568 85.0776 86.9889 85.7914 82.8556 85.1352C82.5447 85.0891 82.2223 85.0315 81.9115 84.9625C81.3473 84.8473 80.7141 84.6746 80.0348 84.4559C78.1811 83.8456 76.0281 82.8325 74.2895 81.4739C73.2072 80.6219 72.2977 79.6432 71.699 78.5264C71.5723 78.2961 71.4687 78.0543 71.3766 77.8126C71.2615 77.5017 71.1578 77.1793 71.1003 76.8685C71.3421 76.926 71.6069 76.9836 71.8832 77.0296C72.6431 77.1563 73.5296 77.2254 74.5313 77.1678C75.3603 77.1217 76.2583 76.9836 77.237 76.7303C80.7371 75.7977 83.1089 72.5854 83.8342 69.9949C84.3639 68.0836 84.0645 66.3681 83.0283 65.2974C82.9707 65.2398 82.9132 65.1937 82.8556 65.1477C81.7618 64.1575 80.0348 63.7545 78.135 64.0539C78.0429 64.0654 77.9508 64.0769 77.8587 64.0884C74.7961 64.6756 72.0444 66.7941 70.1792 69.9028C69.7762 70.5821 69.4078 71.3074 69.0854 72.0788C69.0394 72.1824 69.0048 72.2746 68.9703 72.3782C68.8666 72.6545 68.763 72.9308 68.6824 73.2072C68.5788 73.5871 68.4867 73.9555 68.4291 74.324C67.6808 75.1069 66.4603 75.7747 65.0672 76.3619C65.781 74.2894 66.2185 72.1594 66.2531 70.3633C66.2991 67.7382 65.5047 66.2415 64.6412 65.3895C64.1922 64.9404 63.7086 64.6641 63.3286 64.5029C61.521 63.743 59.2529 64.6987 56.3975 67.4274C56.9962 65.1937 57.4452 63.3976 57.6985 62.3499C57.7216 62.2463 57.7446 62.1542 57.7676 62.0621C57.8712 61.613 57.9288 61.3712 57.9403 61.3597C57.9633 61.2791 57.9749 61.1985 57.9749 61.1179C57.9749 61.0949 57.9749 61.0604 57.9749 61.0373C57.9749 60.4962 57.641 60.0011 57.1113 59.7939C56.9501 59.7363 56.789 59.7018 56.6278 59.7018C56.1903 59.7018 55.7758 59.9205 55.5225 60.289C55.4994 60.3235 55.4649 60.3696 55.4419 60.4041C55.2116 60.8301 54.9813 61.2331 54.7511 61.6361C51.2625 67.6116 47.2788 70.9966 43.5023 72.8502C45.8051 68.5327 47.1752 63.9618 47.3824 59.886C47.3939 59.5751 47.4054 59.2758 47.4054 58.9764C47.4285 54.5092 45.9317 50.9976 43.1454 49.0172C40.3361 47.0254 36.5482 47.3132 32.4839 49.8117C28.2124 52.4483 24.0675 57.3645 22.2254 62.3959C21.5576 64.2266 21.1891 66.0688 21.2352 67.8188C21.2352 68.2563 21.2812 68.6938 21.3503 69.1198C21.7648 71.8485 23.4688 75.4062 29.2716 76.903C31.8737 77.5708 34.4067 77.7895 36.8821 77.5708C33.1862 81.5429 28.4196 84.3177 23.3652 85.3079C23.3191 85.3079 23.2731 85.3194 23.2155 85.3309C19.3009 86.0562 15.7317 85.3885 13.3945 83.4657C11.3336 81.7732 10.2513 79.1481 10.1592 75.671C10.7809 76.0855 11.3105 76.5806 11.5753 77.3175C11.7135 77.6974 11.702 78.1695 11.9668 78.5034C12.3237 78.9754 12.9455 79.1481 13.5211 79.1827C12.9339 78.3076 12.8533 77.2023 12.8188 76.6382C12.6346 73.7368 12.4273 70.6511 12.1625 67.5655C12.0819 66.656 12.0129 65.7464 11.9438 64.8368C11.7365 62.1887 11.5178 59.4485 11.1378 56.8004L9.68713 46.7836C9.62956 46.4152 9.59502 46.1043 9.59502 45.8165C9.59502 45.7359 9.59502 45.6668 9.59502 45.5862C9.0654 46.0237 8.62788 46.726 8.28248 47.2096C7.92556 47.7047 7.59167 48.1998 7.23475 48.6488C7.18869 47.7968 6.98145 47.0714 6.4288 46.7836C6.40577 46.7836 6.38275 46.7721 6.37123 46.7606C8.85815 32.3341 16.5377 19.9341 27.1762 12.0473C27.1762 12.0588 27.1877 12.0818 27.1992 12.0934C27.4525 12.5194 27.9015 12.7496 28.3506 12.7496C28.5808 12.7496 28.8226 12.6921 29.0414 12.5654C36.9627 7.85638 45.4481 5.46156 54.256 5.46156C54.3596 5.46156 54.4517 5.45005 54.5553 5.42702C54.6474 5.45005 54.7511 5.46156 54.8547 5.46156C63.6625 5.46156 72.148 7.85638 80.0693 12.5654C80.2881 12.6921 80.5183 12.7496 80.7601 12.7496C81.1976 12.7496 81.6236 12.5309 81.8769 12.1394C92.4118 20.0031 100.022 32.2996 102.521 46.5994C102.475 46.6224 102.417 46.6339 102.371 46.657C101.818 46.9448 101.623 47.6817 101.588 48.5337C101.22 48.0846 100.874 47.6011 100.517 47.106C100.16 46.6224 99.7229 45.9316 99.1818 45.4941C99.1818 45.5747 99.1933 45.6438 99.1933 45.7244C99.1933 46.0122 99.1587 46.3231 99.1127 46.703L97.8117 56.7428C97.4662 59.3909 97.2935 62.1311 97.1208 64.7908C97.0633 65.7003 97.0057 66.6099 96.9366 67.5195C96.7179 70.6166 96.5567 73.7022 96.4185 76.6036C96.3955 77.1678 96.3264 78.2846 95.7507 79.1596C96.3264 79.1136 96.9366 78.9294 97.2935 78.4573C97.5468 78.1119 97.5353 77.6514 97.662 77.2599C97.9268 76.5 98.4679 75.9819 99.1127 75.5559C99.0206 77.5017 98.3413 79.2748 97.1093 80.7715V80.7831ZM71.2154 74.1052C71.3075 73.7713 71.4226 73.4374 71.5608 73.1035C73.6563 68.003 77.283 66.9323 78.3538 66.725C79.793 66.4487 80.7256 66.7826 81.0825 67.151C81.094 67.1625 81.1055 67.1856 81.117 67.2086C81.4279 67.5885 81.474 68.36 81.2207 69.258C81.1286 69.6034 80.9904 69.9603 80.8177 70.3288C80.8177 70.3403 80.8062 70.3633 80.7947 70.3748C80.7947 70.3978 80.7716 70.4209 80.7601 70.4439C79.9542 72.0443 78.4344 73.6216 76.5347 74.1282C74.1859 74.75 72.4013 74.4736 71.3766 74.1628C71.319 74.1397 71.2615 74.1282 71.2039 74.1052H71.2154Z" fill="white"/>
<path d="M84.9281 55.8678C84.1798 55.8563 83.5811 56.4665 83.5811 57.2034C83.5811 59.437 82.1764 61.1756 82.1419 61.2101C81.6698 61.7743 81.7389 62.6263 82.3031 63.0983C82.5564 63.3171 82.8672 63.4207 83.1666 63.4207C83.5465 63.4207 83.9265 63.2595 84.1913 62.9487C84.2719 62.845 86.2522 60.4732 86.2637 57.2264C86.2637 56.4781 85.665 55.8793 84.9281 55.8793V55.8678Z" fill="white"/>
<path d="M25.5066 90.1897C25.1151 90.1552 24.7006 90.1206 23.1693 90.1206H21.1084V103.027H24.2861V99.5732C27.6481 99.5732 29.8932 97.7541 29.8932 94.8987C29.8932 92.2852 28.028 90.489 25.4951 90.2012L25.5066 90.1897ZM24.2861 96.5682V93.1141C25.5987 93.1141 26.7155 93.5401 26.7155 94.8527C26.7155 96.1652 25.5987 96.5682 24.2861 96.5682Z" fill="white"/>
<path d="M59.1377 90.3392C56.409 91.03 54.3711 93.5515 54.3711 96.568C54.3711 99.5846 56.386 102.083 59.1262 102.797C59.7249 102.947 60.3927 103.016 61.3943 103.016H61.5786V99.93H61.3943C60.3236 99.93 59.5752 99.7227 58.9765 99.3082C58.159 98.7441 57.5603 97.6848 57.5603 96.5565C57.5603 95.4282 58.159 94.3689 58.9765 93.8048C59.5752 93.3903 60.3236 93.183 61.3943 93.183H61.5786V90.0974H61.3943C60.3696 90.0974 59.7249 90.1665 59.1492 90.3162L59.1377 90.3392Z" fill="white"/>
<path d="M62.0732 99.0206V103.027H65.251V101.162H68.0603V103.027H71.238V90.1206C65.9072 90.1206 62.0732 92.8723 62.0732 99.0206ZM68.0603 93.8395V98.0649H65.297C65.4812 95.9925 66.3448 94.5073 68.0603 93.8395Z" fill="white"/>
<path d="M78.7569 96.2688C78.066 95.6701 77.0413 95.3708 75.7633 95.0023C75.1877 94.8296 74.9229 94.4842 74.9229 94.0122C74.9229 93.5401 75.1646 93.2062 75.8209 93.2062H78.3078V90.1206H76.5693C75.2798 90.1206 74.9229 90.1552 74.6005 90.2357C72.7353 90.6272 71.7451 92.1585 71.7451 93.9892C71.7451 95.0369 72.0675 95.958 72.7583 96.6603C73.3916 97.3166 74.163 97.5583 75.8439 98.1225C76.293 98.2722 76.719 98.6061 76.719 99.1127C76.719 99.5617 76.362 99.9301 75.5791 99.9301H71.7797V103.016H75.9476C78.1121 103.016 79.8967 101.427 79.8967 99.0551C79.8967 97.9498 79.5283 96.9251 78.7569 96.2688Z" fill="white"/>
<path d="M78.8721 93.1945H81.762V103.016H84.9512V93.1945H87.8411V90.1089H78.8721V93.1945Z" fill="white"/>
<path d="M49.9496 90.5466C49.466 91.5944 49.0055 92.5385 48.5334 93.3674C50.1223 93.828 50.9743 95.129 50.9743 96.5567C50.9743 98.3298 49.6618 99.9186 47.2324 99.9186V95.4744C46.1847 96.9712 45.1485 97.9613 44.0547 98.4794V103.004H46.2998C48.0153 103.004 49.0516 102.855 49.869 102.578C52.2293 101.772 54.1521 99.5272 54.1521 96.5797C54.1521 93.6323 52.1832 91.3756 49.9496 90.5466Z" fill="white"/>
<path d="M40.0827 98.2261C39.484 99.3889 38.275 100.195 36.9049 100.195C34.9246 100.195 33.3357 98.5715 33.3357 96.5912C33.3357 94.6108 34.9246 92.9414 36.9049 92.9414C37.6994 92.9414 38.4362 93.2292 39.0349 93.6898C39.2076 92.8723 39.507 91.8476 39.9906 90.5811C39.058 90.109 38.0102 89.8442 36.8819 89.8442C33.1285 89.8442 30.1465 92.8147 30.1465 96.5566C30.1465 100.299 33.117 103.304 36.8819 103.304C39.8639 103.304 42.3623 101.427 43.2719 98.7903C42.892 98.8939 42.512 98.9514 42.109 98.9514C41.3376 98.9514 40.6238 98.6866 40.0711 98.2376L40.0827 98.2261Z" fill="white"/>
<path d="M17.4474 47.1059C17.2171 46.1618 17.0214 45.0795 16.3766 44.3081C15.0065 42.6847 11.0689 43.3986 11.0919 45.8164C11.0919 46.0812 11.1264 46.369 11.1725 46.6914C11.2416 47.1635 11.1955 46.8872 11.2646 47.3592C11.4258 47.221 13.4637 47.1405 14.3042 47.152C13.4867 47.4283 11.7251 48.1997 11.4258 48.4415C11.4949 48.9596 11.6445 49.9843 11.6445 49.9843C11.6445 49.9843 13.7055 49.305 15.0641 49.4086C13.6018 49.9728 11.8057 50.9284 11.8057 50.9284C11.8057 50.9284 12.1742 53.565 12.2893 54.417C12.4505 54.3364 16.8026 53.9565 16.8602 53.9565C17.0329 53.9334 12.6693 55.1539 12.416 55.2575C12.4965 55.8101 12.5426 56.144 12.6232 56.6967C12.6808 57.0997 12.6808 57.0996 12.7383 57.5026C13.0607 57.5026 16.7911 57.2724 16.8717 57.3299C16.3766 57.6408 13.4176 58.677 12.888 58.7346C13.0377 59.9435 13.291 62.8679 13.3601 63.789C13.7055 63.7314 16.3996 64.0423 17.2286 64.1229C16.5493 64.4453 14.143 65.0094 13.5328 65.044C13.5903 65.7924 13.6018 66.748 13.6594 67.4964C13.74 68.3714 13.8206 69.4652 13.8206 69.4652C13.9933 69.4652 18.0691 69.5227 18.1612 69.5573C17.4704 69.753 14.4193 70.4899 13.9012 70.4899C13.9588 71.2267 14.0048 71.9521 14.0624 72.689C14.2351 72.6659 16.9753 72.9653 18.0691 72.7465C16.5723 73.2301 14.3963 73.7827 14.12 73.7482C14.2005 74.9686 14.2351 75.3716 14.3157 76.592C14.4078 78.0658 14.7647 79.4819 16.4802 79.6662C21.1432 80.1612 20.7978 72.0212 20.8208 69.2464C20.8784 63.2479 19.8076 57.2839 18.4836 51.4465C18.1497 49.9958 17.8043 48.5336 17.4589 47.0944L17.4474 47.1059Z" fill="white"/>
</g>
<defs>
<clipPath id="clip0_165_663">
<rect width="107.352" height="103" fill="white" transform="translate(0.775391 0.291992)"/>
</clipPath>
</defs>
</svg>
