<svg width="85" height="104" viewBox="0 0 85 104" fill="none" xmlns="http://www.w3.org/2000/svg">
<g clip-path="url(#clip0_165_709)">
<path d="M14.3936 75.2653V62.8985H11.8194V69.881L3.8501 54.1248H0.975586L11.6692 75.2761L14.3936 75.2653Z" fill="white"/>
<path d="M60.2031 54.1355V66.5131H62.7666V59.5198L70.7466 75.2761H73.6211L62.9168 54.1248L60.2031 54.1355Z" fill="white"/>
<path d="M19.4453 54.1248H16.8818V75.2653H19.4453V54.1248Z" fill="white"/>
<path d="M77.2578 72.7449V53.7495H74.6836V75.3084H84.2188V72.7449H77.2578Z" fill="white"/>
<path d="M38.2688 75.2868H40.8322V56.699H45.1762V54.1248H33.9248V56.699H38.2688V75.2868Z" fill="white"/>
<path d="M33.3565 59.7667C33.3565 56.6455 30.8145 54.1035 27.6933 54.1035H22.1588V56.667H27.6933C29.3987 56.667 30.793 58.0613 30.793 59.7667C30.793 61.4722 29.3987 62.8665 27.6933 62.8665H21.8906V75.287H24.4541V65.4407H25.6661L30.6322 75.287H33.5281L28.5085 65.3763C31.2435 64.9795 33.3458 62.6198 33.3458 59.7775L33.3565 59.7667Z" fill="white"/>
<path d="M52.2453 75.2868H57.9085V54.1248H55.345V72.7233H52.2453C50.5399 72.7233 49.1455 71.329 49.1455 69.6236V54.1248H46.582V69.6236C46.582 72.7448 49.124 75.2868 52.2453 75.2868Z" fill="white"/>
<path d="M44.7365 81.7117C38.7836 81.7117 33.9463 86.549 33.9463 92.5018C33.9463 98.4547 38.7836 103.292 44.7365 103.292C50.6893 103.292 55.5266 98.4547 55.5266 92.5018C55.5266 86.549 50.6893 81.7117 44.7365 81.7117ZM44.7365 100.246C40.4676 100.246 36.9924 96.7707 36.9924 92.5018C36.9924 88.233 40.4676 84.7578 44.7365 84.7578C49.0053 84.7578 52.4805 88.233 52.4805 92.5018C52.4805 96.7707 49.0053 100.246 44.7365 100.246Z" fill="white"/>
<path d="M55.4092 85.723H62.9173V101.908H66.0492V85.723H73.5573V83.063H55.4092V85.723Z" fill="white"/>
<path d="M22.4591 82.6877H12.0336V85.8197H22.4591C26.1487 85.8197 29.1412 88.8229 29.1412 92.5019C29.1412 96.1808 26.138 99.184 22.4591 99.184H14.7687V92.5019H11.6367V102.316H22.4591C27.8756 102.316 32.2732 97.9077 32.2732 92.5019C32.2732 87.0961 27.8649 82.6877 22.4591 82.6877Z" fill="white"/>
<path d="M42.731 28.812C46.0838 28.812 48.8018 26.094 48.8018 22.7412C48.8018 19.3884 46.0838 16.6704 42.731 16.6704C39.3782 16.6704 36.6602 19.3884 36.6602 22.7412C36.6602 26.094 39.3782 28.812 42.731 28.812Z" fill="white"/>
<path d="M42.5917 0.291992L23.9609 11.5326V33.66L42.5917 45.1903L61.2224 33.66V11.5326L42.5917 0.291992ZM43.6964 35.5799L52.1806 30.3779L50.8291 29.5842L42.7847 34.5073L34.676 29.5413L33.3246 30.335L42.0232 35.6657V42.2407L27.2752 33.113L42.7204 23.9853L58.0261 33.0272L43.6964 41.8974V35.5799ZM32.134 16.5952V26.8491L33.2388 26.1948V16.2413L40.8648 11.3181V10.3314L32.9277 15.4476L26.9856 12.2835L41.5513 3.48829V22.0761L26.1705 31.1716V13.4311L32.1233 16.5952H32.134ZM43.7822 22.0225V3.60627L58.3694 12.4122L52.6418 15.4583L44.4794 10.1812V11.168L52.3414 16.2413V26.2699L53.4462 26.9242V16.5845L59.0022 13.6349V31.0107L43.793 22.0225H43.7822Z" fill="white"/>
</g>
<defs>
<clipPath id="clip0_165_709">
<rect width="83.243" height="103" fill="white" transform="translate(0.975586 0.291992)"/>
</clipPath>
</defs>
</svg>
